G04 #@! TF.GenerationSoftware,KiCad,Pcbnew,8.0.4*
G04 #@! TF.CreationDate,2024-10-24T23:45:57-04:00*
G04 #@! TF.ProjectId,starter_board,73746172-7465-4725-9f62-6f6172642e6b,rev?*
G04 #@! TF.SameCoordinates,Original*
G04 #@! TF.FileFunction,Soldermask,Top*
G04 #@! TF.FilePolarity,Negative*
%FSLAX46Y46*%
G04 Gerber Fmt 4.6, Leading zero omitted, Abs format (unit mm)*
G04 Created by KiCad (PCBNEW 8.0.4) date 2024-10-24 23:45:57*
%MOMM*%
%LPD*%
G01*
G04 APERTURE LIST*
G04 Aperture macros list*
%AMRoundRect*
0 Rectangle with rounded corners*
0 $1 Rounding radius*
0 $2 $3 $4 $5 $6 $7 $8 $9 X,Y pos of 4 corners*
0 Add a 4 corners polygon primitive as box body*
4,1,4,$2,$3,$4,$5,$6,$7,$8,$9,$2,$3,0*
0 Add four circle primitives for the rounded corners*
1,1,$1+$1,$2,$3*
1,1,$1+$1,$4,$5*
1,1,$1+$1,$6,$7*
1,1,$1+$1,$8,$9*
0 Add four rect primitives between the rounded corners*
20,1,$1+$1,$2,$3,$4,$5,0*
20,1,$1+$1,$4,$5,$6,$7,0*
20,1,$1+$1,$6,$7,$8,$9,0*
20,1,$1+$1,$8,$9,$2,$3,0*%
%AMFreePoly0*
4,1,6,0.500000,-0.750000,-0.650000,-0.750000,-0.150000,0.000000,-0.650000,0.750000,0.500000,0.750000,0.500000,-0.750000,0.500000,-0.750000,$1*%
%AMFreePoly1*
4,1,6,1.000000,0.000000,0.500000,-0.750000,-0.500000,-0.750000,-0.500000,0.750000,0.500000,0.750000,1.000000,0.000000,1.000000,0.000000,$1*%
G04 Aperture macros list end*
%ADD10C,0.000000*%
%ADD11C,1.219200*%
%ADD12RoundRect,0.250000X-0.450000X0.350000X-0.450000X-0.350000X0.450000X-0.350000X0.450000X0.350000X0*%
%ADD13R,1.600000X0.850000*%
%ADD14RoundRect,0.250000X0.350000X0.450000X-0.350000X0.450000X-0.350000X-0.450000X0.350000X-0.450000X0*%
%ADD15RoundRect,0.250000X0.250000X-0.525000X0.250000X0.525000X-0.250000X0.525000X-0.250000X-0.525000X0*%
%ADD16RoundRect,0.250000X-0.475000X0.337500X-0.475000X-0.337500X0.475000X-0.337500X0.475000X0.337500X0*%
%ADD17R,1.700000X1.700000*%
%ADD18O,1.700000X1.700000*%
%ADD19R,2.000000X2.400000*%
%ADD20RoundRect,0.150000X-0.150000X0.587500X-0.150000X-0.587500X0.150000X-0.587500X0.150000X0.587500X0*%
%ADD21RoundRect,0.250000X0.450000X-0.350000X0.450000X0.350000X-0.450000X0.350000X-0.450000X-0.350000X0*%
%ADD22C,1.500000*%
%ADD23R,1.500000X1.500000*%
%ADD24RoundRect,0.250000X-0.337500X-0.475000X0.337500X-0.475000X0.337500X0.475000X-0.337500X0.475000X0*%
%ADD25RoundRect,0.250000X0.337500X0.475000X-0.337500X0.475000X-0.337500X-0.475000X0.337500X-0.475000X0*%
%ADD26R,1.400000X0.400000*%
%ADD27O,1.900000X1.050000*%
%ADD28R,1.450000X1.150000*%
%ADD29R,1.900000X1.750000*%
%ADD30RoundRect,0.250000X0.325000X0.450000X-0.325000X0.450000X-0.325000X-0.450000X0.325000X-0.450000X0*%
%ADD31RoundRect,0.250000X-0.350000X-0.450000X0.350000X-0.450000X0.350000X0.450000X-0.350000X0.450000X0*%
%ADD32RoundRect,0.250000X1.250000X0.550000X-1.250000X0.550000X-1.250000X-0.550000X1.250000X-0.550000X0*%
%ADD33FreePoly0,0.000000*%
%ADD34FreePoly1,0.000000*%
%ADD35R,1.500000X0.550000*%
%ADD36R,0.550000X1.500000*%
G04 APERTURE END LIST*
D10*
G36*
X141093990Y-160792000D02*
G01*
X141093990Y-162023871D01*
X140756692Y-162023871D01*
X140419394Y-162023871D01*
X140419394Y-160792000D01*
X140419394Y-159560129D01*
X140756692Y-159560129D01*
X141093990Y-159560129D01*
X141093990Y-160792000D01*
G37*
G36*
X143323090Y-159809437D02*
G01*
X143323090Y-160058744D01*
X142721819Y-160058744D01*
X142120549Y-160058744D01*
X142120549Y-160308051D01*
X142120549Y-160557358D01*
X142677824Y-160557358D01*
X143235099Y-160557358D01*
X143235099Y-160806665D01*
X143235099Y-161055972D01*
X142677824Y-161055972D01*
X142120549Y-161055972D01*
X142120549Y-161290614D01*
X142120549Y-161525256D01*
X142721819Y-161525256D01*
X143323090Y-161525256D01*
X143323090Y-161774564D01*
X143323090Y-162023871D01*
X142384521Y-162023871D01*
X141445953Y-162023871D01*
X141445953Y-160792000D01*
X141445953Y-159560129D01*
X142384521Y-159560129D01*
X143323090Y-159560129D01*
X143323090Y-159809437D01*
G37*
G36*
X145552189Y-159809437D02*
G01*
X145552189Y-160058744D01*
X144965584Y-160058744D01*
X144378979Y-160058744D01*
X144378979Y-160308051D01*
X144378979Y-160557358D01*
X144921588Y-160557358D01*
X145464198Y-160557358D01*
X145464198Y-160806665D01*
X145464198Y-161055972D01*
X144921588Y-161055972D01*
X144378979Y-161055972D01*
X144378979Y-161290614D01*
X144378979Y-161525256D01*
X144965584Y-161525256D01*
X145552189Y-161525256D01*
X145552189Y-161774564D01*
X145552189Y-162023871D01*
X144628286Y-162023871D01*
X143704383Y-162023871D01*
X143704383Y-160792000D01*
X143704383Y-159560129D01*
X144628286Y-159560129D01*
X145552189Y-159560129D01*
X145552189Y-159809437D01*
G37*
G36*
X147810618Y-159809437D02*
G01*
X147810618Y-160058744D01*
X147209348Y-160058744D01*
X146608078Y-160058744D01*
X146608078Y-160308051D01*
X146608078Y-160557358D01*
X147165353Y-160557358D01*
X147722628Y-160557358D01*
X147722628Y-160806665D01*
X147722628Y-161055972D01*
X147165353Y-161055972D01*
X146608078Y-161055972D01*
X146608078Y-161290614D01*
X146608078Y-161525256D01*
X147209348Y-161525256D01*
X147810618Y-161525256D01*
X147810618Y-161774564D01*
X147810618Y-162023871D01*
X146872050Y-162023871D01*
X145933482Y-162023871D01*
X145933482Y-160792000D01*
X145933482Y-159560129D01*
X146872050Y-159560129D01*
X147810618Y-159560129D01*
X147810618Y-159809437D01*
G37*
G36*
X137165107Y-157979729D02*
G01*
X137256824Y-158058255D01*
X137364407Y-158190045D01*
X137373139Y-158201811D01*
X137572050Y-158458248D01*
X137807966Y-158740478D01*
X138071727Y-159038105D01*
X138354170Y-159340732D01*
X138585131Y-159577155D01*
X138854029Y-159840578D01*
X139094586Y-160062578D01*
X139313499Y-160248780D01*
X139517467Y-160404806D01*
X139713189Y-160536278D01*
X139766796Y-160569079D01*
X139862515Y-160628935D01*
X139917627Y-160673416D01*
X139943125Y-160715052D01*
X139950002Y-160766373D01*
X139950110Y-160778015D01*
X139946390Y-160823730D01*
X139929823Y-160864441D01*
X139892304Y-160909130D01*
X139825723Y-160966776D01*
X139721976Y-161046357D01*
X139678806Y-161078515D01*
X139182515Y-161469307D01*
X138702738Y-161890943D01*
X138249567Y-162333519D01*
X137833095Y-162787126D01*
X137463413Y-163241859D01*
X137430858Y-163285072D01*
X137317766Y-163432816D01*
X137230174Y-163536708D01*
X137161120Y-163601753D01*
X137103643Y-163632958D01*
X137050780Y-163635328D01*
X136995569Y-163613871D01*
X136983251Y-163606938D01*
X136947753Y-163573604D01*
X136885863Y-163503043D01*
X136805980Y-163405263D01*
X136716501Y-163290268D01*
X136707089Y-163277865D01*
X136274191Y-162734553D01*
X135840830Y-162248166D01*
X135405275Y-161816981D01*
X134965797Y-161439276D01*
X134558940Y-161139183D01*
X134407128Y-161030854D01*
X134301678Y-160942639D01*
X134236584Y-160868219D01*
X134228359Y-160850309D01*
X134969645Y-160850309D01*
X135003079Y-160956813D01*
X135022665Y-160997384D01*
X135099719Y-161122121D01*
X135215204Y-161274176D01*
X135362288Y-161447052D01*
X135534141Y-161634250D01*
X135723931Y-161829271D01*
X135924828Y-162025618D01*
X136129999Y-162216790D01*
X136332615Y-162396290D01*
X136525844Y-162557619D01*
X136702855Y-162694278D01*
X136856817Y-162799769D01*
X136980898Y-162867593D01*
X136994609Y-162873357D01*
X137076178Y-162898012D01*
X137146202Y-162892318D01*
X137231186Y-162855790D01*
X137336190Y-162791085D01*
X137473388Y-162689880D01*
X137635385Y-162558962D01*
X137814787Y-162405117D01*
X138004200Y-162235134D01*
X138196229Y-162055799D01*
X138383479Y-161873900D01*
X138558556Y-161696224D01*
X138714066Y-161529557D01*
X138842614Y-161380687D01*
X138855266Y-161365099D01*
X138989148Y-161191582D01*
X139082972Y-161049269D01*
X139139328Y-160929082D01*
X139160802Y-160821946D01*
X139149984Y-160718783D01*
X139109460Y-160610517D01*
X139084352Y-160561612D01*
X138985377Y-160404927D01*
X138847035Y-160221830D01*
X138677367Y-160020465D01*
X138484409Y-159808972D01*
X138276199Y-159595495D01*
X138060776Y-159388177D01*
X137846178Y-159195159D01*
X137640441Y-159024584D01*
X137451605Y-158884594D01*
X137385919Y-158841092D01*
X137239332Y-158758479D01*
X137117335Y-158718855D01*
X137005069Y-158721799D01*
X136887668Y-158766890D01*
X136792992Y-158824297D01*
X136637389Y-158937525D01*
X136460422Y-159081773D01*
X136268827Y-159250164D01*
X136069340Y-159435821D01*
X135868696Y-159631867D01*
X135673632Y-159831425D01*
X135490882Y-160027619D01*
X135327182Y-160213571D01*
X135189269Y-160382404D01*
X135083877Y-160527243D01*
X135021807Y-160632611D01*
X134975907Y-160750589D01*
X134969645Y-160850309D01*
X134228359Y-160850309D01*
X134205840Y-160801276D01*
X134201381Y-160763011D01*
X134224609Y-160710671D01*
X134286033Y-160640379D01*
X134373260Y-160563878D01*
X134473897Y-160492914D01*
X134507304Y-160473070D01*
X134658061Y-160375607D01*
X134837886Y-160236687D01*
X135048167Y-160055085D01*
X135290297Y-159829577D01*
X135565665Y-159558939D01*
X135698075Y-159424878D01*
X135947768Y-159167996D01*
X136160121Y-158944720D01*
X136340785Y-158748743D01*
X136495406Y-158573758D01*
X136629634Y-158413455D01*
X136749115Y-158261528D01*
X136797570Y-158196925D01*
X136905487Y-158063067D01*
X136997405Y-157982203D01*
X137081289Y-157954401D01*
X137165107Y-157979729D01*
G37*
G36*
X137104604Y-158812263D02*
G01*
X137165437Y-158834400D01*
X137267617Y-158890086D01*
X137401904Y-158982576D01*
X137560903Y-159105306D01*
X137737220Y-159251713D01*
X137923461Y-159415233D01*
X138112231Y-159589303D01*
X138296136Y-159767359D01*
X138467780Y-159942838D01*
X138619771Y-160109178D01*
X138677396Y-160176442D01*
X138793229Y-160322567D01*
X138896415Y-160467247D01*
X138980810Y-160600581D01*
X139040273Y-160712669D01*
X139068660Y-160793611D01*
X139070203Y-160809525D01*
X139048529Y-160886440D01*
X138987184Y-160995048D01*
X138891683Y-161129844D01*
X138767542Y-161285320D01*
X138620275Y-161455970D01*
X138455398Y-161636288D01*
X138278427Y-161820766D01*
X138094876Y-162003899D01*
X137910260Y-162180180D01*
X137730096Y-162344102D01*
X137559898Y-162490160D01*
X137405181Y-162612845D01*
X137271461Y-162706653D01*
X137164253Y-162766075D01*
X137090935Y-162785656D01*
X137038107Y-162769375D01*
X136955438Y-162727355D01*
X136860404Y-162668528D01*
X136856219Y-162665698D01*
X136682895Y-162539808D01*
X136493040Y-162387606D01*
X136293024Y-162215477D01*
X136275873Y-162199852D01*
X136863542Y-162199852D01*
X137062026Y-162199852D01*
X137260511Y-162199852D01*
X137241454Y-161931374D01*
X137232543Y-161785815D01*
X137225861Y-161638502D01*
X137222559Y-161516058D01*
X137222397Y-161491420D01*
X137222397Y-161319945D01*
X137079191Y-161319945D01*
X136935986Y-161319945D01*
X136917188Y-161547254D01*
X136904810Y-161697214D01*
X136891304Y-161861288D01*
X136880966Y-161987208D01*
X136863542Y-162199852D01*
X136275873Y-162199852D01*
X136089215Y-162029806D01*
X135887985Y-161836976D01*
X135695703Y-161643373D01*
X135518738Y-161455380D01*
X135363462Y-161279382D01*
X135236243Y-161121765D01*
X135143451Y-160988911D01*
X135097543Y-160902984D01*
X135076112Y-160845162D01*
X135072542Y-160798576D01*
X135090289Y-160746335D01*
X135814545Y-160746335D01*
X135832417Y-160817853D01*
X135871187Y-160885428D01*
X135941628Y-160946357D01*
X136054823Y-161012532D01*
X136196054Y-161077448D01*
X136350602Y-161134603D01*
X136503750Y-161177493D01*
X136556827Y-161188393D01*
X136724213Y-161210855D01*
X136917656Y-161224281D01*
X137120287Y-161228675D01*
X137315239Y-161224039D01*
X137485644Y-161210376D01*
X137612686Y-161188203D01*
X137788039Y-161131169D01*
X137942060Y-161059367D01*
X138066054Y-160978660D01*
X138151326Y-160894910D01*
X138189180Y-160813976D01*
X138190295Y-160798840D01*
X138170256Y-160753956D01*
X138119458Y-160690295D01*
X138087639Y-160658114D01*
X138027362Y-160596166D01*
X137990441Y-160548392D01*
X137984983Y-160534710D01*
X137959263Y-160517416D01*
X137892971Y-160490801D01*
X137802412Y-160459900D01*
X137703892Y-160429750D01*
X137613715Y-160405386D01*
X137548186Y-160391845D01*
X137524229Y-160392401D01*
X137526950Y-160422909D01*
X137545139Y-160486183D01*
X137548879Y-160497133D01*
X137577516Y-160561298D01*
X137615818Y-160582798D01*
X137677283Y-160577661D01*
X137750739Y-160576530D01*
X137819778Y-160606086D01*
X137880227Y-160651261D01*
X137956392Y-160736444D01*
X137977915Y-160817815D01*
X137948784Y-160893310D01*
X137872993Y-160960863D01*
X137754531Y-161018408D01*
X137597391Y-161063879D01*
X137405562Y-161095210D01*
X137183037Y-161110337D01*
X136994512Y-161109681D01*
X136835878Y-161102870D01*
X136719762Y-161092525D01*
X136630024Y-161075854D01*
X136550525Y-161050063D01*
X136484325Y-161021393D01*
X136355235Y-160946803D01*
X136284730Y-160870617D01*
X136272774Y-160793427D01*
X136319332Y-160715823D01*
X136424370Y-160638394D01*
X136509761Y-160594854D01*
X136672064Y-160520549D01*
X136524919Y-160435596D01*
X136377774Y-160350642D01*
X136218485Y-160410239D01*
X136093105Y-160468786D01*
X135978402Y-160543001D01*
X135886201Y-160623047D01*
X135828325Y-160699084D01*
X135814545Y-160746335D01*
X135090289Y-160746335D01*
X135090762Y-160744942D01*
X135134699Y-160665979D01*
X135156146Y-160630192D01*
X135248832Y-160493706D01*
X135375902Y-160331903D01*
X135509484Y-160176065D01*
X136757545Y-160176065D01*
X136862433Y-160176065D01*
X136967322Y-160176065D01*
X136947227Y-160601353D01*
X136927132Y-161026642D01*
X137061478Y-161026642D01*
X137195823Y-161026642D01*
X137191216Y-160608686D01*
X137186609Y-160190730D01*
X137307159Y-160181711D01*
X137381796Y-160174618D01*
X137424108Y-160167670D01*
X137427709Y-160165709D01*
X137416725Y-160137838D01*
X137386364Y-160065282D01*
X137340508Y-159957209D01*
X137283040Y-159822786D01*
X137240695Y-159724219D01*
X137053680Y-159289712D01*
X136905613Y-159732888D01*
X136757545Y-160176065D01*
X135509484Y-160176065D01*
X135530474Y-160151578D01*
X135705668Y-159959527D01*
X135894604Y-159762545D01*
X136090402Y-159567428D01*
X136286181Y-159380971D01*
X136475060Y-159209971D01*
X136650160Y-159061221D01*
X136804599Y-158941518D01*
X136931498Y-158857658D01*
X136973179Y-158835589D01*
X137043757Y-158809070D01*
X137104604Y-158812263D01*
G37*
D11*
X123966000Y-136172000D03*
X126506000Y-136172000D03*
X129046000Y-136172000D03*
X131586000Y-136172000D03*
X134126000Y-136172000D03*
X136666000Y-136172000D03*
X134126000Y-143792000D03*
X131586000Y-143792000D03*
X129046000Y-143792000D03*
X126506000Y-143792000D03*
X123966000Y-143792000D03*
D12*
X129006000Y-132292000D03*
X129006000Y-130292000D03*
D13*
X110006000Y-131167000D03*
X110006000Y-129417000D03*
X106506000Y-129417000D03*
X106506000Y-131167000D03*
D14*
X51506000Y-147792000D03*
X53506000Y-147792000D03*
X55506000Y-140692000D03*
X57506000Y-140692000D03*
D15*
X84506000Y-142667000D03*
X84506000Y-147917000D03*
X81306000Y-142667000D03*
X81306000Y-147917000D03*
D12*
X126506000Y-132292000D03*
X126506000Y-130292000D03*
D13*
X96006000Y-155292000D03*
X96006000Y-153542000D03*
X92506000Y-153542000D03*
X92506000Y-155292000D03*
D16*
X69342000Y-156061500D03*
X69342000Y-158136500D03*
D17*
X59817000Y-153924000D03*
D18*
X59817000Y-156464000D03*
X57277000Y-153924000D03*
X57277000Y-156464000D03*
X54737000Y-153924000D03*
X54737000Y-156464000D03*
D13*
X110006000Y-141792000D03*
X110006000Y-140042000D03*
X106506000Y-140042000D03*
X106506000Y-141792000D03*
X110006000Y-161292000D03*
X110006000Y-159542000D03*
X106506000Y-159542000D03*
X106506000Y-161292000D03*
X96006000Y-149917000D03*
X96006000Y-148167000D03*
X92506000Y-148167000D03*
X92506000Y-149917000D03*
D19*
X69414000Y-152781000D03*
X65714000Y-152781000D03*
D13*
X96006000Y-161292000D03*
X96006000Y-159542000D03*
X92506000Y-159542000D03*
X92506000Y-161292000D03*
D20*
X132506000Y-132292000D03*
X131556000Y-130417000D03*
X133456000Y-130417000D03*
D21*
X116006000Y-154292000D03*
X116006000Y-156292000D03*
X134006000Y-147792000D03*
X134006000Y-149792000D03*
D16*
X59506000Y-140792000D03*
X59506000Y-142867000D03*
D13*
X103006000Y-155292000D03*
X103006000Y-153542000D03*
X99506000Y-153542000D03*
X99506000Y-155292000D03*
D17*
X50130000Y-128000000D03*
D18*
X52670000Y-128000000D03*
X55210000Y-128000000D03*
X57750000Y-128000000D03*
X60290000Y-128000000D03*
X62830000Y-128000000D03*
X65370000Y-128000000D03*
X67910000Y-128000000D03*
X70450000Y-128000000D03*
X72990000Y-128000000D03*
D22*
X127506000Y-158792000D03*
X124966000Y-158792000D03*
X122426000Y-158792000D03*
D23*
X119886000Y-158792000D03*
D24*
X65543500Y-133792000D03*
X63468500Y-133792000D03*
D21*
X124006000Y-147792000D03*
X124006000Y-149792000D03*
D20*
X136506000Y-132292000D03*
X135556000Y-130417000D03*
X137456000Y-130417000D03*
D16*
X65532000Y-156061500D03*
X65532000Y-158136500D03*
D25*
X65506000Y-131792000D03*
X63431000Y-131792000D03*
D26*
X52109000Y-139307000D03*
X52109000Y-139957000D03*
X52109000Y-140607000D03*
X52109000Y-141257000D03*
X52109000Y-141907000D03*
D27*
X49459000Y-137032000D03*
D28*
X51689000Y-138287000D03*
D29*
X49459000Y-139482000D03*
X49459000Y-141732000D03*
D28*
X51689000Y-142927000D03*
D27*
X49459000Y-144182000D03*
D13*
X110006000Y-136417000D03*
X110006000Y-134667000D03*
X106506000Y-134667000D03*
X106506000Y-136417000D03*
D30*
X55456000Y-149792000D03*
X57506000Y-149792000D03*
D21*
X63006000Y-150792000D03*
X63006000Y-152792000D03*
D13*
X96256000Y-131292000D03*
X96256000Y-129542000D03*
X92756000Y-129542000D03*
X92756000Y-131292000D03*
D30*
X55456000Y-147792000D03*
X57506000Y-147792000D03*
D21*
X129006000Y-147792000D03*
X129006000Y-149792000D03*
D13*
X96506000Y-136792000D03*
X96506000Y-135042000D03*
X93006000Y-135042000D03*
X93006000Y-136792000D03*
D21*
X131506000Y-147792000D03*
X131506000Y-149792000D03*
D13*
X96506000Y-141917000D03*
X96506000Y-140167000D03*
X93006000Y-140167000D03*
X93006000Y-141917000D03*
D31*
X84006000Y-135292000D03*
X82006000Y-135292000D03*
D14*
X55506000Y-138692000D03*
X57506000Y-138692000D03*
D12*
X140006000Y-132292000D03*
X140006000Y-130292000D03*
D14*
X51506000Y-149792000D03*
X53506000Y-149792000D03*
D21*
X126506000Y-147792000D03*
X126506000Y-149792000D03*
D13*
X110006000Y-155292000D03*
X110006000Y-153542000D03*
X106506000Y-153542000D03*
X106506000Y-155292000D03*
X110006000Y-149917000D03*
X110006000Y-148167000D03*
X106506000Y-148167000D03*
X106506000Y-149917000D03*
D32*
X50306000Y-132792000D03*
X54706000Y-132792000D03*
D20*
X123006000Y-132292000D03*
X122056000Y-130417000D03*
X123956000Y-130417000D03*
D33*
X58506000Y-136292000D03*
D34*
X57056000Y-136292000D03*
D35*
X62260000Y-138240000D03*
X62260000Y-139040000D03*
X62260000Y-139840000D03*
X62260000Y-140640000D03*
X62260000Y-141440000D03*
X62260000Y-142240000D03*
X62260000Y-143040000D03*
X62260000Y-143840000D03*
X62260000Y-144640000D03*
X62260000Y-145440000D03*
X62260000Y-146240000D03*
D36*
X63960000Y-147940000D03*
X64760000Y-147940000D03*
X65560000Y-147940000D03*
X66360000Y-147940000D03*
X67160000Y-147940000D03*
X67960000Y-147940000D03*
X68760000Y-147940000D03*
X69560000Y-147940000D03*
X70360000Y-147940000D03*
X71160000Y-147940000D03*
X71960000Y-147940000D03*
D35*
X73660000Y-146240000D03*
X73660000Y-145440000D03*
X73660000Y-144640000D03*
X73660000Y-143840000D03*
X73660000Y-143040000D03*
X73660000Y-142240000D03*
X73660000Y-141440000D03*
X73660000Y-140640000D03*
X73660000Y-139840000D03*
X73660000Y-139040000D03*
X73660000Y-138240000D03*
D36*
X71960000Y-136540000D03*
X71160000Y-136540000D03*
X70360000Y-136540000D03*
X69560000Y-136540000D03*
X68760000Y-136540000D03*
X67960000Y-136540000D03*
X67160000Y-136540000D03*
X66360000Y-136540000D03*
X65560000Y-136540000D03*
X64760000Y-136540000D03*
X63960000Y-136540000D03*
D13*
X103256000Y-136792000D03*
X103256000Y-135042000D03*
X99756000Y-135042000D03*
X99756000Y-136792000D03*
M02*
