G04 #@! TF.GenerationSoftware,KiCad,Pcbnew,8.0.4*
G04 #@! TF.CreationDate,2024-10-24T23:45:57-04:00*
G04 #@! TF.ProjectId,starter_board,73746172-7465-4725-9f62-6f6172642e6b,rev?*
G04 #@! TF.SameCoordinates,Original*
G04 #@! TF.FileFunction,Paste,Top*
G04 #@! TF.FilePolarity,Positive*
%FSLAX46Y46*%
G04 Gerber Fmt 4.6, Leading zero omitted, Abs format (unit mm)*
G04 Created by KiCad (PCBNEW 8.0.4) date 2024-10-24 23:45:57*
%MOMM*%
%LPD*%
G01*
G04 APERTURE LIST*
G04 Aperture macros list*
%AMRoundRect*
0 Rectangle with rounded corners*
0 $1 Rounding radius*
0 $2 $3 $4 $5 $6 $7 $8 $9 X,Y pos of 4 corners*
0 Add a 4 corners polygon primitive as box body*
4,1,4,$2,$3,$4,$5,$6,$7,$8,$9,$2,$3,0*
0 Add four circle primitives for the rounded corners*
1,1,$1+$1,$2,$3*
1,1,$1+$1,$4,$5*
1,1,$1+$1,$6,$7*
1,1,$1+$1,$8,$9*
0 Add four rect primitives between the rounded corners*
20,1,$1+$1,$2,$3,$4,$5,0*
20,1,$1+$1,$4,$5,$6,$7,0*
20,1,$1+$1,$6,$7,$8,$9,0*
20,1,$1+$1,$8,$9,$2,$3,0*%
G04 Aperture macros list end*
%ADD10RoundRect,0.250000X-0.450000X0.350000X-0.450000X-0.350000X0.450000X-0.350000X0.450000X0.350000X0*%
%ADD11R,1.600000X0.850000*%
%ADD12RoundRect,0.250000X0.350000X0.450000X-0.350000X0.450000X-0.350000X-0.450000X0.350000X-0.450000X0*%
%ADD13RoundRect,0.250000X0.250000X-0.525000X0.250000X0.525000X-0.250000X0.525000X-0.250000X-0.525000X0*%
%ADD14RoundRect,0.250000X-0.475000X0.337500X-0.475000X-0.337500X0.475000X-0.337500X0.475000X0.337500X0*%
%ADD15R,2.000000X2.400000*%
%ADD16RoundRect,0.150000X-0.150000X0.587500X-0.150000X-0.587500X0.150000X-0.587500X0.150000X0.587500X0*%
%ADD17RoundRect,0.250000X0.450000X-0.350000X0.450000X0.350000X-0.450000X0.350000X-0.450000X-0.350000X0*%
%ADD18RoundRect,0.250000X-0.337500X-0.475000X0.337500X-0.475000X0.337500X0.475000X-0.337500X0.475000X0*%
%ADD19RoundRect,0.250000X0.337500X0.475000X-0.337500X0.475000X-0.337500X-0.475000X0.337500X-0.475000X0*%
%ADD20R,1.400000X0.400000*%
%ADD21R,1.450000X1.150000*%
%ADD22R,1.900000X1.750000*%
%ADD23RoundRect,0.250000X0.325000X0.450000X-0.325000X0.450000X-0.325000X-0.450000X0.325000X-0.450000X0*%
%ADD24RoundRect,0.250000X-0.350000X-0.450000X0.350000X-0.450000X0.350000X0.450000X-0.350000X0.450000X0*%
%ADD25RoundRect,0.250000X1.250000X0.550000X-1.250000X0.550000X-1.250000X-0.550000X1.250000X-0.550000X0*%
%ADD26R,1.500000X0.550000*%
%ADD27R,0.550000X1.500000*%
G04 APERTURE END LIST*
D10*
X129006000Y-132292000D03*
X129006000Y-130292000D03*
D11*
X110006000Y-131167000D03*
X110006000Y-129417000D03*
X106506000Y-129417000D03*
X106506000Y-131167000D03*
D12*
X51506000Y-147792000D03*
X53506000Y-147792000D03*
X55506000Y-140692000D03*
X57506000Y-140692000D03*
D13*
X84506000Y-142667000D03*
X84506000Y-147917000D03*
X81306000Y-142667000D03*
X81306000Y-147917000D03*
D10*
X126506000Y-132292000D03*
X126506000Y-130292000D03*
D11*
X96006000Y-155292000D03*
X96006000Y-153542000D03*
X92506000Y-153542000D03*
X92506000Y-155292000D03*
D14*
X69342000Y-156061500D03*
X69342000Y-158136500D03*
D11*
X110006000Y-141792000D03*
X110006000Y-140042000D03*
X106506000Y-140042000D03*
X106506000Y-141792000D03*
X110006000Y-161292000D03*
X110006000Y-159542000D03*
X106506000Y-159542000D03*
X106506000Y-161292000D03*
X96006000Y-149917000D03*
X96006000Y-148167000D03*
X92506000Y-148167000D03*
X92506000Y-149917000D03*
D15*
X69414000Y-152781000D03*
X65714000Y-152781000D03*
D11*
X96006000Y-161292000D03*
X96006000Y-159542000D03*
X92506000Y-159542000D03*
X92506000Y-161292000D03*
D16*
X132506000Y-132292000D03*
X131556000Y-130417000D03*
X133456000Y-130417000D03*
D17*
X116006000Y-154292000D03*
X116006000Y-156292000D03*
X134006000Y-147792000D03*
X134006000Y-149792000D03*
D14*
X59506000Y-140792000D03*
X59506000Y-142867000D03*
D11*
X103006000Y-155292000D03*
X103006000Y-153542000D03*
X99506000Y-153542000D03*
X99506000Y-155292000D03*
D18*
X65543500Y-133792000D03*
X63468500Y-133792000D03*
D17*
X124006000Y-147792000D03*
X124006000Y-149792000D03*
D16*
X136506000Y-132292000D03*
X135556000Y-130417000D03*
X137456000Y-130417000D03*
D14*
X65532000Y-156061500D03*
X65532000Y-158136500D03*
D19*
X65506000Y-131792000D03*
X63431000Y-131792000D03*
D20*
X52109000Y-139307000D03*
X52109000Y-139957000D03*
X52109000Y-140607000D03*
X52109000Y-141257000D03*
X52109000Y-141907000D03*
D21*
X51689000Y-138287000D03*
D22*
X49459000Y-139482000D03*
X49459000Y-141732000D03*
D21*
X51689000Y-142927000D03*
D11*
X110006000Y-136417000D03*
X110006000Y-134667000D03*
X106506000Y-134667000D03*
X106506000Y-136417000D03*
D23*
X55456000Y-149792000D03*
X57506000Y-149792000D03*
D17*
X63006000Y-150792000D03*
X63006000Y-152792000D03*
D11*
X96256000Y-131292000D03*
X96256000Y-129542000D03*
X92756000Y-129542000D03*
X92756000Y-131292000D03*
D23*
X55456000Y-147792000D03*
X57506000Y-147792000D03*
D17*
X129006000Y-147792000D03*
X129006000Y-149792000D03*
D11*
X96506000Y-136792000D03*
X96506000Y-135042000D03*
X93006000Y-135042000D03*
X93006000Y-136792000D03*
D17*
X131506000Y-147792000D03*
X131506000Y-149792000D03*
D11*
X96506000Y-141917000D03*
X96506000Y-140167000D03*
X93006000Y-140167000D03*
X93006000Y-141917000D03*
D24*
X84006000Y-135292000D03*
X82006000Y-135292000D03*
D12*
X55506000Y-138692000D03*
X57506000Y-138692000D03*
D10*
X140006000Y-132292000D03*
X140006000Y-130292000D03*
D12*
X51506000Y-149792000D03*
X53506000Y-149792000D03*
D17*
X126506000Y-147792000D03*
X126506000Y-149792000D03*
D11*
X110006000Y-155292000D03*
X110006000Y-153542000D03*
X106506000Y-153542000D03*
X106506000Y-155292000D03*
X110006000Y-149917000D03*
X110006000Y-148167000D03*
X106506000Y-148167000D03*
X106506000Y-149917000D03*
D25*
X50306000Y-132792000D03*
X54706000Y-132792000D03*
D16*
X123006000Y-132292000D03*
X122056000Y-130417000D03*
X123956000Y-130417000D03*
D26*
X62260000Y-138240000D03*
X62260000Y-139040000D03*
X62260000Y-139840000D03*
X62260000Y-140640000D03*
X62260000Y-141440000D03*
X62260000Y-142240000D03*
X62260000Y-143040000D03*
X62260000Y-143840000D03*
X62260000Y-144640000D03*
X62260000Y-145440000D03*
X62260000Y-146240000D03*
D27*
X63960000Y-147940000D03*
X64760000Y-147940000D03*
X65560000Y-147940000D03*
X66360000Y-147940000D03*
X67160000Y-147940000D03*
X67960000Y-147940000D03*
X68760000Y-147940000D03*
X69560000Y-147940000D03*
X70360000Y-147940000D03*
X71160000Y-147940000D03*
X71960000Y-147940000D03*
D26*
X73660000Y-146240000D03*
X73660000Y-145440000D03*
X73660000Y-144640000D03*
X73660000Y-143840000D03*
X73660000Y-143040000D03*
X73660000Y-142240000D03*
X73660000Y-141440000D03*
X73660000Y-140640000D03*
X73660000Y-139840000D03*
X73660000Y-139040000D03*
X73660000Y-138240000D03*
D27*
X71960000Y-136540000D03*
X71160000Y-136540000D03*
X70360000Y-136540000D03*
X69560000Y-136540000D03*
X68760000Y-136540000D03*
X67960000Y-136540000D03*
X67160000Y-136540000D03*
X66360000Y-136540000D03*
X65560000Y-136540000D03*
X64760000Y-136540000D03*
X63960000Y-136540000D03*
D11*
X103256000Y-136792000D03*
X103256000Y-135042000D03*
X99756000Y-135042000D03*
X99756000Y-136792000D03*
M02*
