M48
; DRILL file {KiCad 8.0.4} date 2024-10-24T23:47:27-0400
; FORMAT={-:-/ absolute / metric / decimal}
; #@! TF.CreationDate,2024-10-24T23:47:27-04:00
; #@! TF.GenerationSoftware,Kicad,Pcbnew,8.0.4
; #@! TF.FileFunction,Plated,1,2,PTH
FMAT,2
METRIC
; #@! TA.AperFunction,Plated,PTH,ViaDrill
T1C0.400
; #@! TA.AperFunction,Plated,PTH,ComponentDrill
T2C0.450
; #@! TA.AperFunction,Plated,PTH,ComponentDrill
T3C0.711
; #@! TA.AperFunction,Plated,PTH,ComponentDrill
T4C0.800
; #@! TA.AperFunction,Plated,PTH,ComponentDrill
T5C1.000
%
G90
G05
T1
X49.106Y-134.792
X49.506Y-151.092
X51.006Y-158.792
X52.506Y-133.092
X54.506Y-135.192
X55.006Y-142.792
X56.406Y-145.592
X58.19Y-151.729
X58.306Y-132.292
X58.806Y-163.292
X59.006Y-149.067
X59.506Y-151.792
X59.806Y-137.092
X60.006Y-149.067
X60.506Y-130.792
X60.519Y-151.805
X60.993Y-148.279
X61.856Y-136.167
X62.006Y-130.792
X62.006Y-132.792
X63.106Y-149.592
X63.61Y-145.663
X63.706Y-141.092
X64.733Y-146.59
X65.906Y-142.992
X65.906Y-150.392
X66.475Y-145.743
X67.006Y-131.792
X67.006Y-140.292
X67.006Y-146.59
X67.506Y-143.392
X68.006Y-134.292
X68.269Y-140.529
X68.446Y-138.352
X68.731Y-132.292
X69.006Y-149.792
X70.206Y-138.392
X70.36Y-141.292
X70.748Y-139.847
X71.306Y-132.292
X71.36Y-141.292
X72.006Y-145.792
X72.206Y-162.292
X72.506Y-134.292
X73.006Y-147.292
X74.806Y-147.192
X75.406Y-154.292
X75.506Y-141.792
X76.269Y-128.055
X77.006Y-126.292
X77.006Y-128.792
X77.506Y-132.292
X78.019Y-128.805
X78.223Y-130.009
X79.006Y-132.392
X79.506Y-142.792
X79.506Y-143.792
X79.506Y-144.792
X79.506Y-145.792
X82.031Y-144.792
X82.031Y-145.792
X82.206Y-139.892
X82.506Y-143.792
X82.606Y-147.492
X82.806Y-141.992
X82.906Y-129.492
X83.306Y-161.292
X84.306Y-153.492
X85.206Y-132.892
X86.006Y-142.292
X87.006Y-143.392
X88.006Y-137.192
X89.006Y-132.292
X89.506Y-130.567
X90.006Y-143.792
X90.281Y-146.292
X90.281Y-147.292
X90.506Y-132.292
X90.506Y-142.792
X90.706Y-155.292
X91.506Y-141.792
X91.731Y-144.792
X91.731Y-145.792
X92.506Y-143.792
X92.606Y-133.892
X92.631Y-132.442
X93.73Y-149.016
X94.206Y-160.292
X94.406Y-130.292
X94.806Y-141.292
X94.993Y-145.779
X95.006Y-135.892
X96.006Y-144.517
X96.519Y-146.305
X97.506Y-147.292
X97.519Y-145.517
X98.206Y-134.392
X100.006Y-131.192
X100.106Y-140.492
X100.906Y-147.892
X101.306Y-153.692
X101.406Y-159.692
X101.406Y-163.092
X101.506Y-135.892
X102.506Y-131.892
X103.512Y-140.798
X103.906Y-142.592
X103.993Y-139.305
X103.993Y-158.305
X104.006Y-133.292
X104.006Y-151.792
X104.506Y-136.292
X104.506Y-148.792
X104.506Y-154.792
X104.993Y-160.805
X105.731Y-151.792
X106.006Y-133.292
X106.006Y-138.292
X106.206Y-157.492
X107.006Y-143.792
X107.73Y-135.568
X108.006Y-140.792
X108.006Y-148.792
X108.006Y-154.292
X108.006Y-160.292
X108.206Y-129.292
X108.519Y-156.279
X108.769Y-144.555
X111.806Y-160.292
X112.106Y-129.192
X112.429Y-157.233
X114.006Y-157.792
X114.406Y-140.992
X114.406Y-151.792
X114.806Y-129.192
X115.406Y-147.792
X116.206Y-134.592
X117.006Y-129.492
X117.306Y-162.792
X119.906Y-127.392
X120.5Y-129.306
X120.506Y-131.306
X120.506Y-130.306
X120.906Y-128.392
X121.506Y-145.792
X121.506Y-146.792
X121.506Y-147.792
X121.506Y-148.792
X122.006Y-127.292
X124.006Y-126.292
X124.206Y-153.792
X125.006Y-151.092
X125.706Y-128.392
X126.019Y-126.279
X127.493Y-151.005
X127.706Y-127.292
X129.906Y-150.992
X130.306Y-128.792
X130.506Y-126.292
X132.506Y-150.892
X133.306Y-128.192
X134.306Y-133.892
X134.506Y-126.292
X138.106Y-132.092
X139.106Y-153.592
X139.106Y-160.492
X144.706Y-144.692
X145.506Y-129.892
T3
X123.966Y-136.172
X123.966Y-143.792
X126.506Y-136.172
X126.506Y-143.792
X129.046Y-136.172
X129.046Y-143.792
X131.586Y-136.172
X131.586Y-143.792
X134.126Y-136.172
X134.126Y-143.792
X136.666Y-136.172
T4
X119.886Y-158.792
X122.426Y-158.792
X124.966Y-158.792
X127.506Y-158.792
T5
X50.13Y-128.0
X52.67Y-128.0
X54.737Y-153.924
X54.737Y-156.464
X55.21Y-128.0
X57.277Y-153.924
X57.277Y-156.464
X57.75Y-128.0
X59.817Y-153.924
X59.817Y-156.464
X60.29Y-128.0
X62.83Y-128.0
X65.37Y-128.0
X67.91Y-128.0
X70.45Y-128.0
X72.99Y-128.0
T2
X49.059Y-137.032G85X49.859Y-137.032
G05
X49.859Y-144.182G85X49.059Y-144.182
G05
M30
