%TF.GenerationSoftware,KiCad,Pcbnew,8.0.4*%
%TF.CreationDate,2024-10-24T23:47:45-04:00*%
%TF.ProjectId,starter_board,73746172-7465-4725-9f62-6f6172642e6b,rev?*%
%TF.SameCoordinates,Original*%
%TF.FileFunction,Drillmap*%
%TF.FilePolarity,Positive*%
%FSLAX45Y45*%
G04 Gerber Fmt 4.5, Leading zero omitted, Abs format (unit mm)*
G04 Created by KiCad (PCBNEW 8.0.4) date 2024-10-24 23:47:45*
%MOMM*%
%LPD*%
G01*
G04 APERTURE LIST*
%ADD10C,0.100000*%
%ADD11C,0.200000*%
G04 APERTURE END LIST*
D10*
X4800600Y-12529200D02*
X15000600Y-12529200D01*
X15000600Y-16529200D01*
X4800600Y-16529200D01*
X4800600Y-12529200D01*
D11*
D10*
X4890600Y-13459200D02*
X4930600Y-13499200D01*
X4930600Y-13459200D02*
X4890600Y-13499200D01*
X4930600Y-15089200D02*
X4970600Y-15129200D01*
X4970600Y-15089200D02*
X4930600Y-15129200D01*
X5080600Y-15859200D02*
X5120600Y-15899200D01*
X5120600Y-15859200D02*
X5080600Y-15899200D01*
X5230600Y-13289200D02*
X5270600Y-13329200D01*
X5270600Y-13289200D02*
X5230600Y-13329200D01*
X5430600Y-13499200D02*
X5470600Y-13539200D01*
X5470600Y-13499200D02*
X5430600Y-13539200D01*
X5480600Y-14259200D02*
X5520600Y-14299200D01*
X5520600Y-14259200D02*
X5480600Y-14299200D01*
X5620600Y-14539200D02*
X5660600Y-14579200D01*
X5660600Y-14539200D02*
X5620600Y-14579200D01*
X5798990Y-15152850D02*
X5838990Y-15192850D01*
X5838990Y-15152850D02*
X5798990Y-15192850D01*
X5810600Y-13209200D02*
X5850600Y-13249200D01*
X5850600Y-13209200D02*
X5810600Y-13249200D01*
X5860600Y-16309200D02*
X5900600Y-16349200D01*
X5900600Y-16309200D02*
X5860600Y-16349200D01*
X5880600Y-14886700D02*
X5920600Y-14926700D01*
X5920600Y-14886700D02*
X5880600Y-14926700D01*
X5930600Y-15159200D02*
X5970600Y-15199200D01*
X5970600Y-15159200D02*
X5930600Y-15199200D01*
X5960600Y-13689200D02*
X6000600Y-13729200D01*
X6000600Y-13689200D02*
X5960600Y-13729200D01*
X5980600Y-14886700D02*
X6020600Y-14926700D01*
X6020600Y-14886700D02*
X5980600Y-14926700D01*
X6030600Y-13059200D02*
X6070600Y-13099200D01*
X6070600Y-13059200D02*
X6030600Y-13099200D01*
X6031865Y-15160465D02*
X6071865Y-15200465D01*
X6071865Y-15160465D02*
X6031865Y-15200465D01*
X6079335Y-14807935D02*
X6119335Y-14847935D01*
X6119335Y-14807935D02*
X6079335Y-14847935D01*
X6165585Y-13596715D02*
X6205585Y-13636715D01*
X6205585Y-13596715D02*
X6165585Y-13636715D01*
X6180600Y-13059200D02*
X6220600Y-13099200D01*
X6220600Y-13059200D02*
X6180600Y-13099200D01*
X6180600Y-13259200D02*
X6220600Y-13299200D01*
X6220600Y-13259200D02*
X6180600Y-13299200D01*
X6290600Y-14939200D02*
X6330600Y-14979200D01*
X6330600Y-14939200D02*
X6290600Y-14979200D01*
X6341000Y-14546269D02*
X6381000Y-14586269D01*
X6381000Y-14546269D02*
X6341000Y-14586269D01*
X6350600Y-14089200D02*
X6390600Y-14129200D01*
X6390600Y-14089200D02*
X6350600Y-14129200D01*
X6453330Y-14639000D02*
X6493330Y-14679000D01*
X6493330Y-14639000D02*
X6453330Y-14679000D01*
X6570600Y-14279200D02*
X6610600Y-14319200D01*
X6610600Y-14279200D02*
X6570600Y-14319200D01*
X6570600Y-15019200D02*
X6610600Y-15059200D01*
X6610600Y-15019200D02*
X6570600Y-15059200D01*
X6627504Y-14554260D02*
X6667504Y-14594260D01*
X6667504Y-14554260D02*
X6627504Y-14594260D01*
X6680600Y-13159200D02*
X6720600Y-13199200D01*
X6720600Y-13159200D02*
X6680600Y-13199200D01*
X6680600Y-14009200D02*
X6720600Y-14049200D01*
X6720600Y-14009200D02*
X6680600Y-14049200D01*
X6680600Y-14639000D02*
X6720600Y-14679000D01*
X6720600Y-14639000D02*
X6680600Y-14679000D01*
X6730600Y-14319200D02*
X6770600Y-14359200D01*
X6770600Y-14319200D02*
X6730600Y-14359200D01*
X6780600Y-13409200D02*
X6820600Y-13449200D01*
X6820600Y-13409200D02*
X6780600Y-13449200D01*
X6806865Y-14032935D02*
X6846865Y-14072935D01*
X6846865Y-14032935D02*
X6806865Y-14072935D01*
X6824565Y-13815235D02*
X6864565Y-13855235D01*
X6864565Y-13815235D02*
X6824565Y-13855235D01*
X6853100Y-13209200D02*
X6893100Y-13249200D01*
X6893100Y-13209200D02*
X6853100Y-13249200D01*
X6880600Y-14959200D02*
X6920600Y-14999200D01*
X6920600Y-14959200D02*
X6880600Y-14999200D01*
X7000600Y-13819200D02*
X7040600Y-13859200D01*
X7040600Y-13819200D02*
X7000600Y-13859200D01*
X7016000Y-14109200D02*
X7056000Y-14149200D01*
X7056000Y-14109200D02*
X7016000Y-14149200D01*
X7054800Y-13964732D02*
X7094800Y-14004732D01*
X7094800Y-13964732D02*
X7054800Y-14004732D01*
X7110600Y-13209200D02*
X7150600Y-13249200D01*
X7150600Y-13209200D02*
X7110600Y-13249200D01*
X7116000Y-14109200D02*
X7156000Y-14149200D01*
X7156000Y-14109200D02*
X7116000Y-14149200D01*
X7180600Y-14559200D02*
X7220600Y-14599200D01*
X7220600Y-14559200D02*
X7180600Y-14599200D01*
X7200600Y-16209200D02*
X7240600Y-16249200D01*
X7240600Y-16209200D02*
X7200600Y-16249200D01*
X7230600Y-13409200D02*
X7270600Y-13449200D01*
X7270600Y-13409200D02*
X7230600Y-13449200D01*
X7280600Y-14709200D02*
X7320600Y-14749200D01*
X7320600Y-14709200D02*
X7280600Y-14749200D01*
X7460600Y-14699200D02*
X7500600Y-14739200D01*
X7500600Y-14699200D02*
X7460600Y-14739200D01*
X7520600Y-15409200D02*
X7560600Y-15449200D01*
X7560600Y-15409200D02*
X7520600Y-15449200D01*
X7530600Y-14159200D02*
X7570600Y-14199200D01*
X7570600Y-14159200D02*
X7530600Y-14199200D01*
X7606865Y-12785465D02*
X7646865Y-12825465D01*
X7646865Y-12785465D02*
X7606865Y-12825465D01*
X7680600Y-12609200D02*
X7720600Y-12649200D01*
X7720600Y-12609200D02*
X7680600Y-12649200D01*
X7680600Y-12859200D02*
X7720600Y-12899200D01*
X7720600Y-12859200D02*
X7680600Y-12899200D01*
X7730600Y-13209200D02*
X7770600Y-13249200D01*
X7770600Y-13209200D02*
X7730600Y-13249200D01*
X7781865Y-12860465D02*
X7821865Y-12900465D01*
X7821865Y-12860465D02*
X7781865Y-12900465D01*
X7802325Y-12980925D02*
X7842325Y-13020925D01*
X7842325Y-12980925D02*
X7802325Y-13020925D01*
X7880600Y-13219200D02*
X7920600Y-13259200D01*
X7920600Y-13219200D02*
X7880600Y-13259200D01*
X7930600Y-14259200D02*
X7970600Y-14299200D01*
X7970600Y-14259200D02*
X7930600Y-14299200D01*
X7930600Y-14359200D02*
X7970600Y-14399200D01*
X7970600Y-14359200D02*
X7930600Y-14399200D01*
X7930600Y-14459200D02*
X7970600Y-14499200D01*
X7970600Y-14459200D02*
X7930600Y-14499200D01*
X7930600Y-14559200D02*
X7970600Y-14599200D01*
X7970600Y-14559200D02*
X7930600Y-14599200D01*
X8183100Y-14459200D02*
X8223100Y-14499200D01*
X8223100Y-14459200D02*
X8183100Y-14499200D01*
X8183100Y-14559200D02*
X8223100Y-14599200D01*
X8223100Y-14559200D02*
X8183100Y-14599200D01*
X8200600Y-13969200D02*
X8240600Y-14009200D01*
X8240600Y-13969200D02*
X8200600Y-14009200D01*
X8230600Y-14359200D02*
X8270600Y-14399200D01*
X8270600Y-14359200D02*
X8230600Y-14399200D01*
X8240600Y-14729200D02*
X8280600Y-14769200D01*
X8280600Y-14729200D02*
X8240600Y-14769200D01*
X8260600Y-14179200D02*
X8300600Y-14219200D01*
X8300600Y-14179200D02*
X8260600Y-14219200D01*
X8270600Y-12929200D02*
X8310600Y-12969200D01*
X8310600Y-12929200D02*
X8270600Y-12969200D01*
X8310600Y-16109200D02*
X8350600Y-16149200D01*
X8350600Y-16109200D02*
X8310600Y-16149200D01*
X8410600Y-15329200D02*
X8450600Y-15369200D01*
X8450600Y-15329200D02*
X8410600Y-15369200D01*
X8500600Y-13269200D02*
X8540600Y-13309200D01*
X8540600Y-13269200D02*
X8500600Y-13309200D01*
X8580600Y-14209200D02*
X8620600Y-14249200D01*
X8620600Y-14209200D02*
X8580600Y-14249200D01*
X8680600Y-14319200D02*
X8720600Y-14359200D01*
X8720600Y-14319200D02*
X8680600Y-14359200D01*
X8780600Y-13699200D02*
X8820600Y-13739200D01*
X8820600Y-13699200D02*
X8780600Y-13739200D01*
X8880600Y-13209200D02*
X8920600Y-13249200D01*
X8920600Y-13209200D02*
X8880600Y-13249200D01*
X8930600Y-13036700D02*
X8970600Y-13076700D01*
X8970600Y-13036700D02*
X8930600Y-13076700D01*
X8980600Y-14359200D02*
X9020600Y-14399200D01*
X9020600Y-14359200D02*
X8980600Y-14399200D01*
X9008100Y-14609200D02*
X9048100Y-14649200D01*
X9048100Y-14609200D02*
X9008100Y-14649200D01*
X9008100Y-14709200D02*
X9048100Y-14749200D01*
X9048100Y-14709200D02*
X9008100Y-14749200D01*
X9030600Y-13209200D02*
X9070600Y-13249200D01*
X9070600Y-13209200D02*
X9030600Y-13249200D01*
X9030600Y-14259200D02*
X9070600Y-14299200D01*
X9070600Y-14259200D02*
X9030600Y-14299200D01*
X9050600Y-15509200D02*
X9090600Y-15549200D01*
X9090600Y-15509200D02*
X9050600Y-15549200D01*
X9130600Y-14159200D02*
X9170600Y-14199200D01*
X9170600Y-14159200D02*
X9130600Y-14199200D01*
X9153100Y-14459200D02*
X9193100Y-14499200D01*
X9193100Y-14459200D02*
X9153100Y-14499200D01*
X9153100Y-14559200D02*
X9193100Y-14599200D01*
X9193100Y-14559200D02*
X9153100Y-14599200D01*
X9230600Y-14359200D02*
X9270600Y-14399200D01*
X9270600Y-14359200D02*
X9230600Y-14399200D01*
X9240600Y-13369200D02*
X9280600Y-13409200D01*
X9280600Y-13369200D02*
X9240600Y-13409200D01*
X9243115Y-13224215D02*
X9283115Y-13264215D01*
X9283115Y-13224215D02*
X9243115Y-13264215D01*
X9353027Y-14881626D02*
X9393027Y-14921626D01*
X9393027Y-14881626D02*
X9353027Y-14921626D01*
X9400600Y-16009200D02*
X9440600Y-16049200D01*
X9440600Y-16009200D02*
X9400600Y-16049200D01*
X9420600Y-13009200D02*
X9460600Y-13049200D01*
X9460600Y-13009200D02*
X9420600Y-13049200D01*
X9460600Y-14109200D02*
X9500600Y-14149200D01*
X9500600Y-14109200D02*
X9460600Y-14149200D01*
X9479335Y-14557935D02*
X9519335Y-14597935D01*
X9519335Y-14557935D02*
X9479335Y-14597935D01*
X9480600Y-13569200D02*
X9520600Y-13609200D01*
X9520600Y-13569200D02*
X9480600Y-13609200D01*
X9580600Y-14431700D02*
X9620600Y-14471700D01*
X9620600Y-14431700D02*
X9580600Y-14471700D01*
X9631865Y-14610465D02*
X9671865Y-14650465D01*
X9671865Y-14610465D02*
X9631865Y-14650465D01*
X9730600Y-14709200D02*
X9770600Y-14749200D01*
X9770600Y-14709200D02*
X9730600Y-14749200D01*
X9731865Y-14531700D02*
X9771865Y-14571700D01*
X9771865Y-14531700D02*
X9731865Y-14571700D01*
X9800600Y-13419200D02*
X9840600Y-13459200D01*
X9840600Y-13419200D02*
X9800600Y-13459200D01*
X9980600Y-13099200D02*
X10020600Y-13139200D01*
X10020600Y-13099200D02*
X9980600Y-13139200D01*
X9990600Y-14029200D02*
X10030600Y-14069200D01*
X10030600Y-14029200D02*
X9990600Y-14069200D01*
X10070600Y-14769200D02*
X10110600Y-14809200D01*
X10110600Y-14769200D02*
X10070600Y-14809200D01*
X10110600Y-15349200D02*
X10150600Y-15389200D01*
X10150600Y-15349200D02*
X10110600Y-15389200D01*
X10120600Y-15949200D02*
X10160600Y-15989200D01*
X10160600Y-15949200D02*
X10120600Y-15989200D01*
X10120600Y-16289200D02*
X10160600Y-16329200D01*
X10160600Y-16289200D02*
X10120600Y-16329200D01*
X10130600Y-13569200D02*
X10170600Y-13609200D01*
X10170600Y-13569200D02*
X10130600Y-13609200D01*
X10230600Y-13169200D02*
X10270600Y-13209200D01*
X10270600Y-13169200D02*
X10230600Y-13209200D01*
X10331237Y-14059837D02*
X10371237Y-14099837D01*
X10371237Y-14059837D02*
X10331237Y-14099837D01*
X10370600Y-14239200D02*
X10410600Y-14279200D01*
X10410600Y-14239200D02*
X10370600Y-14279200D01*
X10379335Y-13910465D02*
X10419335Y-13950465D01*
X10419335Y-13910465D02*
X10379335Y-13950465D01*
X10379335Y-15810465D02*
X10419335Y-15850465D01*
X10419335Y-15810465D02*
X10379335Y-15850465D01*
X10380600Y-13309200D02*
X10420600Y-13349200D01*
X10420600Y-13309200D02*
X10380600Y-13349200D01*
X10380600Y-15159200D02*
X10420600Y-15199200D01*
X10420600Y-15159200D02*
X10380600Y-15199200D01*
X10430600Y-13609200D02*
X10470600Y-13649200D01*
X10470600Y-13609200D02*
X10430600Y-13649200D01*
X10430600Y-14859200D02*
X10470600Y-14899200D01*
X10470600Y-14859200D02*
X10430600Y-14899200D01*
X10430600Y-15459200D02*
X10470600Y-15499200D01*
X10470600Y-15459200D02*
X10430600Y-15499200D01*
X10479335Y-16060465D02*
X10519335Y-16100465D01*
X10519335Y-16060465D02*
X10479335Y-16100465D01*
X10553100Y-15159200D02*
X10593100Y-15199200D01*
X10593100Y-15159200D02*
X10553100Y-15199200D01*
X10580600Y-13309200D02*
X10620600Y-13349200D01*
X10620600Y-13309200D02*
X10580600Y-13349200D01*
X10580600Y-13809200D02*
X10620600Y-13849200D01*
X10620600Y-13809200D02*
X10580600Y-13849200D01*
X10600600Y-15729200D02*
X10640600Y-15769200D01*
X10640600Y-15729200D02*
X10600600Y-15769200D01*
X10680600Y-14359200D02*
X10720600Y-14399200D01*
X10720600Y-14359200D02*
X10680600Y-14399200D01*
X10753027Y-13536773D02*
X10793027Y-13576773D01*
X10793027Y-13536773D02*
X10753027Y-13576773D01*
X10780600Y-14059200D02*
X10820600Y-14099200D01*
X10820600Y-14059200D02*
X10780600Y-14099200D01*
X10780600Y-14859200D02*
X10820600Y-14899200D01*
X10820600Y-14859200D02*
X10780600Y-14899200D01*
X10780600Y-15409200D02*
X10820600Y-15449200D01*
X10820600Y-15409200D02*
X10780600Y-15449200D01*
X10780600Y-16009200D02*
X10820600Y-16049200D01*
X10820600Y-16009200D02*
X10780600Y-16049200D01*
X10800600Y-12909200D02*
X10840600Y-12949200D01*
X10840600Y-12909200D02*
X10800600Y-12949200D01*
X10831865Y-15607935D02*
X10871865Y-15647935D01*
X10871865Y-15607935D02*
X10831865Y-15647935D01*
X10856865Y-14435465D02*
X10896865Y-14475465D01*
X10896865Y-14435465D02*
X10856865Y-14475465D01*
X11160600Y-16009200D02*
X11200600Y-16049200D01*
X11200600Y-16009200D02*
X11160600Y-16049200D01*
X11190600Y-12899200D02*
X11230600Y-12939200D01*
X11230600Y-12899200D02*
X11190600Y-12939200D01*
X11222873Y-15703329D02*
X11262873Y-15743329D01*
X11262873Y-15703329D02*
X11222873Y-15743329D01*
X11380600Y-15759200D02*
X11420600Y-15799200D01*
X11420600Y-15759200D02*
X11380600Y-15799200D01*
X11420600Y-14079200D02*
X11460600Y-14119200D01*
X11460600Y-14079200D02*
X11420600Y-14119200D01*
X11420600Y-15159200D02*
X11460600Y-15199200D01*
X11460600Y-15159200D02*
X11420600Y-15199200D01*
X11460600Y-12899200D02*
X11500600Y-12939200D01*
X11500600Y-12899200D02*
X11460600Y-12939200D01*
X11520600Y-14759200D02*
X11560600Y-14799200D01*
X11560600Y-14759200D02*
X11520600Y-14799200D01*
X11600600Y-13439200D02*
X11640600Y-13479200D01*
X11640600Y-13439200D02*
X11600600Y-13479200D01*
X11680600Y-12929200D02*
X11720600Y-12969200D01*
X11720600Y-12929200D02*
X11680600Y-12969200D01*
X11710600Y-16259200D02*
X11750600Y-16299200D01*
X11750600Y-16259200D02*
X11710600Y-16299200D01*
X11970585Y-12719215D02*
X12010585Y-12759215D01*
X12010585Y-12719215D02*
X11970585Y-12759215D01*
X12029978Y-12910600D02*
X12069978Y-12950600D01*
X12069978Y-12910600D02*
X12029978Y-12950600D01*
X12030600Y-13110598D02*
X12070600Y-13150598D01*
X12070600Y-13110598D02*
X12030600Y-13150598D01*
X12030609Y-13010598D02*
X12070609Y-13050598D01*
X12070609Y-13010598D02*
X12030609Y-13050598D01*
X12070585Y-12819215D02*
X12110585Y-12859215D01*
X12110585Y-12819215D02*
X12070585Y-12859215D01*
X12130600Y-14559200D02*
X12170600Y-14599200D01*
X12170600Y-14559200D02*
X12130600Y-14599200D01*
X12130600Y-14659200D02*
X12170600Y-14699200D01*
X12170600Y-14659200D02*
X12130600Y-14699200D01*
X12130600Y-14759200D02*
X12170600Y-14799200D01*
X12170600Y-14759200D02*
X12130600Y-14799200D01*
X12130600Y-14859200D02*
X12170600Y-14899200D01*
X12170600Y-14859200D02*
X12130600Y-14899200D01*
X12180600Y-12709200D02*
X12220600Y-12749200D01*
X12220600Y-12709200D02*
X12180600Y-12749200D01*
X12380600Y-12609200D02*
X12420600Y-12649200D01*
X12420600Y-12609200D02*
X12380600Y-12649200D01*
X12400600Y-15359200D02*
X12440600Y-15399200D01*
X12440600Y-15359200D02*
X12400600Y-15399200D01*
X12480600Y-15089200D02*
X12520600Y-15129200D01*
X12520600Y-15089200D02*
X12480600Y-15129200D01*
X12550600Y-12819200D02*
X12590600Y-12859200D01*
X12590600Y-12819200D02*
X12550600Y-12859200D01*
X12581865Y-12607935D02*
X12621865Y-12647935D01*
X12621865Y-12607935D02*
X12581865Y-12647935D01*
X12729335Y-15080465D02*
X12769335Y-15120465D01*
X12769335Y-15080465D02*
X12729335Y-15120465D01*
X12750600Y-12709200D02*
X12790600Y-12749200D01*
X12790600Y-12709200D02*
X12750600Y-12749200D01*
X12970600Y-15079200D02*
X13010600Y-15119200D01*
X13010600Y-15079200D02*
X12970600Y-15119200D01*
X13010600Y-12859200D02*
X13050600Y-12899200D01*
X13050600Y-12859200D02*
X13010600Y-12899200D01*
X13030600Y-12609200D02*
X13070600Y-12649200D01*
X13070600Y-12609200D02*
X13030600Y-12649200D01*
X13230600Y-15069200D02*
X13270600Y-15109200D01*
X13270600Y-15069200D02*
X13230600Y-15109200D01*
X13310600Y-12799200D02*
X13350600Y-12839200D01*
X13350600Y-12799200D02*
X13310600Y-12839200D01*
X13410600Y-13369200D02*
X13450600Y-13409200D01*
X13450600Y-13369200D02*
X13410600Y-13409200D01*
X13430600Y-12609200D02*
X13470600Y-12649200D01*
X13470600Y-12609200D02*
X13430600Y-12649200D01*
X13790600Y-13189200D02*
X13830600Y-13229200D01*
X13830600Y-13189200D02*
X13790600Y-13229200D01*
X13890600Y-15339200D02*
X13930600Y-15379200D01*
X13930600Y-15339200D02*
X13890600Y-15379200D01*
X13890600Y-16029200D02*
X13930600Y-16069200D01*
X13930600Y-16029200D02*
X13890600Y-16069200D01*
X14450600Y-14449200D02*
X14490600Y-14489200D01*
X14490600Y-14449200D02*
X14450600Y-14489200D01*
X14530600Y-12969200D02*
X14570600Y-13009200D01*
X14570600Y-12969200D02*
X14530600Y-13009200D01*
X4968400Y-13703200D02*
G75*
G02*
X4923400Y-13703200I-22500J0D01*
G01*
X4923400Y-13703200D02*
G75*
G02*
X4968400Y-13703200I22500J0D01*
G01*
X4905900Y-13725700D02*
X4985900Y-13725700D01*
X4985900Y-13680700D02*
G75*
G02*
X4985900Y-13725700I0J-22500D01*
G01*
X4985900Y-13680700D02*
X4905900Y-13680700D01*
X4905900Y-13680700D02*
G75*
G03*
X4905900Y-13725700I0J-22500D01*
G01*
X4968400Y-14418200D02*
G75*
G02*
X4923400Y-14418200I-22500J0D01*
G01*
X4923400Y-14418200D02*
G75*
G02*
X4968400Y-14418200I22500J0D01*
G01*
X4985900Y-14395700D02*
X4905900Y-14395700D01*
X4905900Y-14440700D02*
G75*
G02*
X4905900Y-14395700I0J22500D01*
G01*
X4905900Y-14440700D02*
X4985900Y-14440700D01*
X4985900Y-14440700D02*
G75*
G03*
X4985900Y-14395700I0J22500D01*
G01*
X12396600Y-13581640D02*
X12396600Y-13652760D01*
X12361040Y-13617200D02*
X12432160Y-13617200D01*
X12396600Y-14343640D02*
X12396600Y-14414760D01*
X12361040Y-14379200D02*
X12432160Y-14379200D01*
X12650600Y-13581640D02*
X12650600Y-13652760D01*
X12615040Y-13617200D02*
X12686160Y-13617200D01*
X12650600Y-14343640D02*
X12650600Y-14414760D01*
X12615040Y-14379200D02*
X12686160Y-14379200D01*
X12904600Y-13581640D02*
X12904600Y-13652760D01*
X12869040Y-13617200D02*
X12940160Y-13617200D01*
X12904600Y-14343640D02*
X12904600Y-14414760D01*
X12869040Y-14379200D02*
X12940160Y-14379200D01*
X13158600Y-13581640D02*
X13158600Y-13652760D01*
X13123040Y-13617200D02*
X13194160Y-13617200D01*
X13158600Y-14343640D02*
X13158600Y-14414760D01*
X13123040Y-14379200D02*
X13194160Y-14379200D01*
X13412600Y-13581640D02*
X13412600Y-13652760D01*
X13377040Y-13617200D02*
X13448160Y-13617200D01*
X13412600Y-14343640D02*
X13412600Y-14414760D01*
X13377040Y-14379200D02*
X13448160Y-14379200D01*
X13666600Y-13581640D02*
X13666600Y-13652760D01*
X13631040Y-13617200D02*
X13702160Y-13617200D01*
X12016884Y-15907484D02*
X12016884Y-15850915D01*
X11960315Y-15850915D01*
X11960315Y-15907484D01*
X12016884Y-15907484D01*
X12270884Y-15907484D02*
X12270884Y-15850915D01*
X12214315Y-15850915D01*
X12214315Y-15907484D01*
X12270884Y-15907484D01*
X12524884Y-15907484D02*
X12524884Y-15850915D01*
X12468315Y-15850915D01*
X12468315Y-15907484D01*
X12524884Y-15907484D01*
X12778884Y-15907484D02*
X12778884Y-15850915D01*
X12722315Y-15850915D01*
X12722315Y-15907484D01*
X12778884Y-15907484D01*
X5013000Y-12850000D02*
X5063000Y-12800000D01*
X5013000Y-12750000D01*
X4963000Y-12800000D01*
X5013000Y-12850000D01*
X5267000Y-12850000D02*
X5317000Y-12800000D01*
X5267000Y-12750000D01*
X5217000Y-12800000D01*
X5267000Y-12850000D01*
X5473700Y-15442400D02*
X5523700Y-15392400D01*
X5473700Y-15342400D01*
X5423700Y-15392400D01*
X5473700Y-15442400D01*
X5473700Y-15696400D02*
X5523700Y-15646400D01*
X5473700Y-15596400D01*
X5423700Y-15646400D01*
X5473700Y-15696400D01*
X5521000Y-12850000D02*
X5571000Y-12800000D01*
X5521000Y-12750000D01*
X5471000Y-12800000D01*
X5521000Y-12850000D01*
X5727700Y-15442400D02*
X5777700Y-15392400D01*
X5727700Y-15342400D01*
X5677700Y-15392400D01*
X5727700Y-15442400D01*
X5727700Y-15696400D02*
X5777700Y-15646400D01*
X5727700Y-15596400D01*
X5677700Y-15646400D01*
X5727700Y-15696400D01*
X5775000Y-12850000D02*
X5825000Y-12800000D01*
X5775000Y-12750000D01*
X5725000Y-12800000D01*
X5775000Y-12850000D01*
X5981700Y-15442400D02*
X6031700Y-15392400D01*
X5981700Y-15342400D01*
X5931700Y-15392400D01*
X5981700Y-15442400D01*
X5981700Y-15696400D02*
X6031700Y-15646400D01*
X5981700Y-15596400D01*
X5931700Y-15646400D01*
X5981700Y-15696400D01*
X6029000Y-12850000D02*
X6079000Y-12800000D01*
X6029000Y-12750000D01*
X5979000Y-12800000D01*
X6029000Y-12850000D01*
X6283000Y-12850000D02*
X6333000Y-12800000D01*
X6283000Y-12750000D01*
X6233000Y-12800000D01*
X6283000Y-12850000D01*
X6537000Y-12850000D02*
X6587000Y-12800000D01*
X6537000Y-12750000D01*
X6487000Y-12800000D01*
X6537000Y-12850000D01*
X6791000Y-12850000D02*
X6841000Y-12800000D01*
X6791000Y-12750000D01*
X6741000Y-12800000D01*
X6791000Y-12850000D01*
X7045000Y-12850000D02*
X7095000Y-12800000D01*
X7045000Y-12750000D01*
X6995000Y-12800000D01*
X7045000Y-12850000D01*
X7299000Y-12850000D02*
X7349000Y-12800000D01*
X7299000Y-12750000D01*
X7249000Y-12800000D01*
X7299000Y-12850000D01*
D11*
X5056377Y-16845684D02*
X5056377Y-16645684D01*
X5056377Y-16645684D02*
X5103996Y-16645684D01*
X5103996Y-16645684D02*
X5132567Y-16655208D01*
X5132567Y-16655208D02*
X5151615Y-16674255D01*
X5151615Y-16674255D02*
X5161139Y-16693303D01*
X5161139Y-16693303D02*
X5170663Y-16731398D01*
X5170663Y-16731398D02*
X5170663Y-16759969D01*
X5170663Y-16759969D02*
X5161139Y-16798065D01*
X5161139Y-16798065D02*
X5151615Y-16817112D01*
X5151615Y-16817112D02*
X5132567Y-16836160D01*
X5132567Y-16836160D02*
X5103996Y-16845684D01*
X5103996Y-16845684D02*
X5056377Y-16845684D01*
X5256377Y-16845684D02*
X5256377Y-16712350D01*
X5256377Y-16750446D02*
X5265901Y-16731398D01*
X5265901Y-16731398D02*
X5275424Y-16721874D01*
X5275424Y-16721874D02*
X5294472Y-16712350D01*
X5294472Y-16712350D02*
X5313520Y-16712350D01*
X5380186Y-16845684D02*
X5380186Y-16712350D01*
X5380186Y-16645684D02*
X5370663Y-16655208D01*
X5370663Y-16655208D02*
X5380186Y-16664731D01*
X5380186Y-16664731D02*
X5389710Y-16655208D01*
X5389710Y-16655208D02*
X5380186Y-16645684D01*
X5380186Y-16645684D02*
X5380186Y-16664731D01*
X5503996Y-16845684D02*
X5484948Y-16836160D01*
X5484948Y-16836160D02*
X5475424Y-16817112D01*
X5475424Y-16817112D02*
X5475424Y-16645684D01*
X5608758Y-16845684D02*
X5589710Y-16836160D01*
X5589710Y-16836160D02*
X5580186Y-16817112D01*
X5580186Y-16817112D02*
X5580186Y-16645684D01*
X5837329Y-16845684D02*
X5837329Y-16645684D01*
X5837329Y-16645684D02*
X5903996Y-16788541D01*
X5903996Y-16788541D02*
X5970662Y-16645684D01*
X5970662Y-16645684D02*
X5970662Y-16845684D01*
X6151615Y-16845684D02*
X6151615Y-16740922D01*
X6151615Y-16740922D02*
X6142091Y-16721874D01*
X6142091Y-16721874D02*
X6123043Y-16712350D01*
X6123043Y-16712350D02*
X6084948Y-16712350D01*
X6084948Y-16712350D02*
X6065901Y-16721874D01*
X6151615Y-16836160D02*
X6132567Y-16845684D01*
X6132567Y-16845684D02*
X6084948Y-16845684D01*
X6084948Y-16845684D02*
X6065901Y-16836160D01*
X6065901Y-16836160D02*
X6056377Y-16817112D01*
X6056377Y-16817112D02*
X6056377Y-16798065D01*
X6056377Y-16798065D02*
X6065901Y-16779017D01*
X6065901Y-16779017D02*
X6084948Y-16769493D01*
X6084948Y-16769493D02*
X6132567Y-16769493D01*
X6132567Y-16769493D02*
X6151615Y-16759969D01*
X6246853Y-16712350D02*
X6246853Y-16912350D01*
X6246853Y-16721874D02*
X6265901Y-16712350D01*
X6265901Y-16712350D02*
X6303996Y-16712350D01*
X6303996Y-16712350D02*
X6323043Y-16721874D01*
X6323043Y-16721874D02*
X6332567Y-16731398D01*
X6332567Y-16731398D02*
X6342091Y-16750446D01*
X6342091Y-16750446D02*
X6342091Y-16807589D01*
X6342091Y-16807589D02*
X6332567Y-16826636D01*
X6332567Y-16826636D02*
X6323043Y-16836160D01*
X6323043Y-16836160D02*
X6303996Y-16845684D01*
X6303996Y-16845684D02*
X6265901Y-16845684D01*
X6265901Y-16845684D02*
X6246853Y-16836160D01*
X6427805Y-16826636D02*
X6437329Y-16836160D01*
X6437329Y-16836160D02*
X6427805Y-16845684D01*
X6427805Y-16845684D02*
X6418282Y-16836160D01*
X6418282Y-16836160D02*
X6427805Y-16826636D01*
X6427805Y-16826636D02*
X6427805Y-16845684D01*
X6427805Y-16721874D02*
X6437329Y-16731398D01*
X6437329Y-16731398D02*
X6427805Y-16740922D01*
X6427805Y-16740922D02*
X6418282Y-16731398D01*
X6418282Y-16731398D02*
X6427805Y-16721874D01*
X6427805Y-16721874D02*
X6427805Y-16740922D01*
D10*
X4755600Y-17154200D02*
X4795600Y-17194200D01*
X4795600Y-17154200D02*
X4755600Y-17194200D01*
D11*
X5094472Y-17065684D02*
X5113520Y-17065684D01*
X5113520Y-17065684D02*
X5132567Y-17075208D01*
X5132567Y-17075208D02*
X5142091Y-17084731D01*
X5142091Y-17084731D02*
X5151615Y-17103779D01*
X5151615Y-17103779D02*
X5161139Y-17141874D01*
X5161139Y-17141874D02*
X5161139Y-17189493D01*
X5161139Y-17189493D02*
X5151615Y-17227589D01*
X5151615Y-17227589D02*
X5142091Y-17246636D01*
X5142091Y-17246636D02*
X5132567Y-17256160D01*
X5132567Y-17256160D02*
X5113520Y-17265684D01*
X5113520Y-17265684D02*
X5094472Y-17265684D01*
X5094472Y-17265684D02*
X5075424Y-17256160D01*
X5075424Y-17256160D02*
X5065901Y-17246636D01*
X5065901Y-17246636D02*
X5056377Y-17227589D01*
X5056377Y-17227589D02*
X5046853Y-17189493D01*
X5046853Y-17189493D02*
X5046853Y-17141874D01*
X5046853Y-17141874D02*
X5056377Y-17103779D01*
X5056377Y-17103779D02*
X5065901Y-17084731D01*
X5065901Y-17084731D02*
X5075424Y-17075208D01*
X5075424Y-17075208D02*
X5094472Y-17065684D01*
X5246853Y-17246636D02*
X5256377Y-17256160D01*
X5256377Y-17256160D02*
X5246853Y-17265684D01*
X5246853Y-17265684D02*
X5237329Y-17256160D01*
X5237329Y-17256160D02*
X5246853Y-17246636D01*
X5246853Y-17246636D02*
X5246853Y-17265684D01*
X5427805Y-17132350D02*
X5427805Y-17265684D01*
X5380186Y-17056160D02*
X5332567Y-17199017D01*
X5332567Y-17199017D02*
X5456377Y-17199017D01*
X5570663Y-17065684D02*
X5589710Y-17065684D01*
X5589710Y-17065684D02*
X5608758Y-17075208D01*
X5608758Y-17075208D02*
X5618282Y-17084731D01*
X5618282Y-17084731D02*
X5627805Y-17103779D01*
X5627805Y-17103779D02*
X5637329Y-17141874D01*
X5637329Y-17141874D02*
X5637329Y-17189493D01*
X5637329Y-17189493D02*
X5627805Y-17227589D01*
X5627805Y-17227589D02*
X5618282Y-17246636D01*
X5618282Y-17246636D02*
X5608758Y-17256160D01*
X5608758Y-17256160D02*
X5589710Y-17265684D01*
X5589710Y-17265684D02*
X5570663Y-17265684D01*
X5570663Y-17265684D02*
X5551615Y-17256160D01*
X5551615Y-17256160D02*
X5542091Y-17246636D01*
X5542091Y-17246636D02*
X5532567Y-17227589D01*
X5532567Y-17227589D02*
X5523044Y-17189493D01*
X5523044Y-17189493D02*
X5523044Y-17141874D01*
X5523044Y-17141874D02*
X5532567Y-17103779D01*
X5532567Y-17103779D02*
X5542091Y-17084731D01*
X5542091Y-17084731D02*
X5551615Y-17075208D01*
X5551615Y-17075208D02*
X5570663Y-17065684D01*
X5761139Y-17065684D02*
X5780186Y-17065684D01*
X5780186Y-17065684D02*
X5799234Y-17075208D01*
X5799234Y-17075208D02*
X5808758Y-17084731D01*
X5808758Y-17084731D02*
X5818282Y-17103779D01*
X5818282Y-17103779D02*
X5827805Y-17141874D01*
X5827805Y-17141874D02*
X5827805Y-17189493D01*
X5827805Y-17189493D02*
X5818282Y-17227589D01*
X5818282Y-17227589D02*
X5808758Y-17246636D01*
X5808758Y-17246636D02*
X5799234Y-17256160D01*
X5799234Y-17256160D02*
X5780186Y-17265684D01*
X5780186Y-17265684D02*
X5761139Y-17265684D01*
X5761139Y-17265684D02*
X5742091Y-17256160D01*
X5742091Y-17256160D02*
X5732567Y-17246636D01*
X5732567Y-17246636D02*
X5723043Y-17227589D01*
X5723043Y-17227589D02*
X5713520Y-17189493D01*
X5713520Y-17189493D02*
X5713520Y-17141874D01*
X5713520Y-17141874D02*
X5723043Y-17103779D01*
X5723043Y-17103779D02*
X5732567Y-17084731D01*
X5732567Y-17084731D02*
X5742091Y-17075208D01*
X5742091Y-17075208D02*
X5761139Y-17065684D01*
X5913520Y-17265684D02*
X5913520Y-17132350D01*
X5913520Y-17151398D02*
X5923043Y-17141874D01*
X5923043Y-17141874D02*
X5942091Y-17132350D01*
X5942091Y-17132350D02*
X5970663Y-17132350D01*
X5970663Y-17132350D02*
X5989710Y-17141874D01*
X5989710Y-17141874D02*
X5999234Y-17160922D01*
X5999234Y-17160922D02*
X5999234Y-17265684D01*
X5999234Y-17160922D02*
X6008758Y-17141874D01*
X6008758Y-17141874D02*
X6027805Y-17132350D01*
X6027805Y-17132350D02*
X6056377Y-17132350D01*
X6056377Y-17132350D02*
X6075424Y-17141874D01*
X6075424Y-17141874D02*
X6084948Y-17160922D01*
X6084948Y-17160922D02*
X6084948Y-17265684D01*
X6180186Y-17265684D02*
X6180186Y-17132350D01*
X6180186Y-17151398D02*
X6189710Y-17141874D01*
X6189710Y-17141874D02*
X6208758Y-17132350D01*
X6208758Y-17132350D02*
X6237329Y-17132350D01*
X6237329Y-17132350D02*
X6256377Y-17141874D01*
X6256377Y-17141874D02*
X6265901Y-17160922D01*
X6265901Y-17160922D02*
X6265901Y-17265684D01*
X6265901Y-17160922D02*
X6275424Y-17141874D01*
X6275424Y-17141874D02*
X6294472Y-17132350D01*
X6294472Y-17132350D02*
X6323043Y-17132350D01*
X6323043Y-17132350D02*
X6342091Y-17141874D01*
X6342091Y-17141874D02*
X6351615Y-17160922D01*
X6351615Y-17160922D02*
X6351615Y-17265684D01*
X6742091Y-17056160D02*
X6570663Y-17313303D01*
X6999234Y-17065684D02*
X7018282Y-17065684D01*
X7018282Y-17065684D02*
X7037329Y-17075208D01*
X7037329Y-17075208D02*
X7046853Y-17084731D01*
X7046853Y-17084731D02*
X7056377Y-17103779D01*
X7056377Y-17103779D02*
X7065901Y-17141874D01*
X7065901Y-17141874D02*
X7065901Y-17189493D01*
X7065901Y-17189493D02*
X7056377Y-17227589D01*
X7056377Y-17227589D02*
X7046853Y-17246636D01*
X7046853Y-17246636D02*
X7037329Y-17256160D01*
X7037329Y-17256160D02*
X7018282Y-17265684D01*
X7018282Y-17265684D02*
X6999234Y-17265684D01*
X6999234Y-17265684D02*
X6980186Y-17256160D01*
X6980186Y-17256160D02*
X6970663Y-17246636D01*
X6970663Y-17246636D02*
X6961139Y-17227589D01*
X6961139Y-17227589D02*
X6951615Y-17189493D01*
X6951615Y-17189493D02*
X6951615Y-17141874D01*
X6951615Y-17141874D02*
X6961139Y-17103779D01*
X6961139Y-17103779D02*
X6970663Y-17084731D01*
X6970663Y-17084731D02*
X6980186Y-17075208D01*
X6980186Y-17075208D02*
X6999234Y-17065684D01*
X7151615Y-17246636D02*
X7161139Y-17256160D01*
X7161139Y-17256160D02*
X7151615Y-17265684D01*
X7151615Y-17265684D02*
X7142091Y-17256160D01*
X7142091Y-17256160D02*
X7151615Y-17246636D01*
X7151615Y-17246636D02*
X7151615Y-17265684D01*
X7284948Y-17065684D02*
X7303996Y-17065684D01*
X7303996Y-17065684D02*
X7323044Y-17075208D01*
X7323044Y-17075208D02*
X7332567Y-17084731D01*
X7332567Y-17084731D02*
X7342091Y-17103779D01*
X7342091Y-17103779D02*
X7351615Y-17141874D01*
X7351615Y-17141874D02*
X7351615Y-17189493D01*
X7351615Y-17189493D02*
X7342091Y-17227589D01*
X7342091Y-17227589D02*
X7332567Y-17246636D01*
X7332567Y-17246636D02*
X7323044Y-17256160D01*
X7323044Y-17256160D02*
X7303996Y-17265684D01*
X7303996Y-17265684D02*
X7284948Y-17265684D01*
X7284948Y-17265684D02*
X7265901Y-17256160D01*
X7265901Y-17256160D02*
X7256377Y-17246636D01*
X7256377Y-17246636D02*
X7246853Y-17227589D01*
X7246853Y-17227589D02*
X7237329Y-17189493D01*
X7237329Y-17189493D02*
X7237329Y-17141874D01*
X7237329Y-17141874D02*
X7246853Y-17103779D01*
X7246853Y-17103779D02*
X7256377Y-17084731D01*
X7256377Y-17084731D02*
X7265901Y-17075208D01*
X7265901Y-17075208D02*
X7284948Y-17065684D01*
X7542091Y-17265684D02*
X7427806Y-17265684D01*
X7484948Y-17265684D02*
X7484948Y-17065684D01*
X7484948Y-17065684D02*
X7465901Y-17094255D01*
X7465901Y-17094255D02*
X7446853Y-17113303D01*
X7446853Y-17113303D02*
X7427806Y-17122827D01*
X7723044Y-17065684D02*
X7627806Y-17065684D01*
X7627806Y-17065684D02*
X7618282Y-17160922D01*
X7618282Y-17160922D02*
X7627806Y-17151398D01*
X7627806Y-17151398D02*
X7646853Y-17141874D01*
X7646853Y-17141874D02*
X7694472Y-17141874D01*
X7694472Y-17141874D02*
X7713520Y-17151398D01*
X7713520Y-17151398D02*
X7723044Y-17160922D01*
X7723044Y-17160922D02*
X7732567Y-17179970D01*
X7732567Y-17179970D02*
X7732567Y-17227589D01*
X7732567Y-17227589D02*
X7723044Y-17246636D01*
X7723044Y-17246636D02*
X7713520Y-17256160D01*
X7713520Y-17256160D02*
X7694472Y-17265684D01*
X7694472Y-17265684D02*
X7646853Y-17265684D01*
X7646853Y-17265684D02*
X7627806Y-17256160D01*
X7627806Y-17256160D02*
X7618282Y-17246636D01*
X7799234Y-17065684D02*
X7932567Y-17065684D01*
X7932567Y-17065684D02*
X7846853Y-17265684D01*
X7999234Y-17065684D02*
X7999234Y-17103779D01*
X8075425Y-17065684D02*
X8075425Y-17103779D01*
X8370663Y-17341874D02*
X8361139Y-17332350D01*
X8361139Y-17332350D02*
X8342091Y-17303779D01*
X8342091Y-17303779D02*
X8332568Y-17284731D01*
X8332568Y-17284731D02*
X8323044Y-17256160D01*
X8323044Y-17256160D02*
X8313520Y-17208541D01*
X8313520Y-17208541D02*
X8313520Y-17170446D01*
X8313520Y-17170446D02*
X8323044Y-17122827D01*
X8323044Y-17122827D02*
X8332568Y-17094255D01*
X8332568Y-17094255D02*
X8342091Y-17075208D01*
X8342091Y-17075208D02*
X8361139Y-17046636D01*
X8361139Y-17046636D02*
X8370663Y-17037112D01*
X8551615Y-17265684D02*
X8437330Y-17265684D01*
X8494472Y-17265684D02*
X8494472Y-17065684D01*
X8494472Y-17065684D02*
X8475425Y-17094255D01*
X8475425Y-17094255D02*
X8456377Y-17113303D01*
X8456377Y-17113303D02*
X8437330Y-17122827D01*
X8723044Y-17065684D02*
X8684949Y-17065684D01*
X8684949Y-17065684D02*
X8665901Y-17075208D01*
X8665901Y-17075208D02*
X8656377Y-17084731D01*
X8656377Y-17084731D02*
X8637330Y-17113303D01*
X8637330Y-17113303D02*
X8627806Y-17151398D01*
X8627806Y-17151398D02*
X8627806Y-17227589D01*
X8627806Y-17227589D02*
X8637330Y-17246636D01*
X8637330Y-17246636D02*
X8646853Y-17256160D01*
X8646853Y-17256160D02*
X8665901Y-17265684D01*
X8665901Y-17265684D02*
X8703996Y-17265684D01*
X8703996Y-17265684D02*
X8723044Y-17256160D01*
X8723044Y-17256160D02*
X8732568Y-17246636D01*
X8732568Y-17246636D02*
X8742091Y-17227589D01*
X8742091Y-17227589D02*
X8742091Y-17179970D01*
X8742091Y-17179970D02*
X8732568Y-17160922D01*
X8732568Y-17160922D02*
X8723044Y-17151398D01*
X8723044Y-17151398D02*
X8703996Y-17141874D01*
X8703996Y-17141874D02*
X8665901Y-17141874D01*
X8665901Y-17141874D02*
X8646853Y-17151398D01*
X8646853Y-17151398D02*
X8637330Y-17160922D01*
X8637330Y-17160922D02*
X8627806Y-17179970D01*
X8856377Y-17151398D02*
X8837330Y-17141874D01*
X8837330Y-17141874D02*
X8827806Y-17132350D01*
X8827806Y-17132350D02*
X8818282Y-17113303D01*
X8818282Y-17113303D02*
X8818282Y-17103779D01*
X8818282Y-17103779D02*
X8827806Y-17084731D01*
X8827806Y-17084731D02*
X8837330Y-17075208D01*
X8837330Y-17075208D02*
X8856377Y-17065684D01*
X8856377Y-17065684D02*
X8894472Y-17065684D01*
X8894472Y-17065684D02*
X8913520Y-17075208D01*
X8913520Y-17075208D02*
X8923044Y-17084731D01*
X8923044Y-17084731D02*
X8932568Y-17103779D01*
X8932568Y-17103779D02*
X8932568Y-17113303D01*
X8932568Y-17113303D02*
X8923044Y-17132350D01*
X8923044Y-17132350D02*
X8913520Y-17141874D01*
X8913520Y-17141874D02*
X8894472Y-17151398D01*
X8894472Y-17151398D02*
X8856377Y-17151398D01*
X8856377Y-17151398D02*
X8837330Y-17160922D01*
X8837330Y-17160922D02*
X8827806Y-17170446D01*
X8827806Y-17170446D02*
X8818282Y-17189493D01*
X8818282Y-17189493D02*
X8818282Y-17227589D01*
X8818282Y-17227589D02*
X8827806Y-17246636D01*
X8827806Y-17246636D02*
X8837330Y-17256160D01*
X8837330Y-17256160D02*
X8856377Y-17265684D01*
X8856377Y-17265684D02*
X8894472Y-17265684D01*
X8894472Y-17265684D02*
X8913520Y-17256160D01*
X8913520Y-17256160D02*
X8923044Y-17246636D01*
X8923044Y-17246636D02*
X8932568Y-17227589D01*
X8932568Y-17227589D02*
X8932568Y-17189493D01*
X8932568Y-17189493D02*
X8923044Y-17170446D01*
X8923044Y-17170446D02*
X8913520Y-17160922D01*
X8913520Y-17160922D02*
X8894472Y-17151398D01*
X9170663Y-17265684D02*
X9170663Y-17065684D01*
X9256377Y-17265684D02*
X9256377Y-17160922D01*
X9256377Y-17160922D02*
X9246853Y-17141874D01*
X9246853Y-17141874D02*
X9227806Y-17132350D01*
X9227806Y-17132350D02*
X9199234Y-17132350D01*
X9199234Y-17132350D02*
X9180187Y-17141874D01*
X9180187Y-17141874D02*
X9170663Y-17151398D01*
X9380187Y-17265684D02*
X9361139Y-17256160D01*
X9361139Y-17256160D02*
X9351615Y-17246636D01*
X9351615Y-17246636D02*
X9342092Y-17227589D01*
X9342092Y-17227589D02*
X9342092Y-17170446D01*
X9342092Y-17170446D02*
X9351615Y-17151398D01*
X9351615Y-17151398D02*
X9361139Y-17141874D01*
X9361139Y-17141874D02*
X9380187Y-17132350D01*
X9380187Y-17132350D02*
X9408758Y-17132350D01*
X9408758Y-17132350D02*
X9427806Y-17141874D01*
X9427806Y-17141874D02*
X9437330Y-17151398D01*
X9437330Y-17151398D02*
X9446853Y-17170446D01*
X9446853Y-17170446D02*
X9446853Y-17227589D01*
X9446853Y-17227589D02*
X9437330Y-17246636D01*
X9437330Y-17246636D02*
X9427806Y-17256160D01*
X9427806Y-17256160D02*
X9408758Y-17265684D01*
X9408758Y-17265684D02*
X9380187Y-17265684D01*
X9561139Y-17265684D02*
X9542092Y-17256160D01*
X9542092Y-17256160D02*
X9532568Y-17237112D01*
X9532568Y-17237112D02*
X9532568Y-17065684D01*
X9713520Y-17256160D02*
X9694473Y-17265684D01*
X9694473Y-17265684D02*
X9656377Y-17265684D01*
X9656377Y-17265684D02*
X9637330Y-17256160D01*
X9637330Y-17256160D02*
X9627806Y-17237112D01*
X9627806Y-17237112D02*
X9627806Y-17160922D01*
X9627806Y-17160922D02*
X9637330Y-17141874D01*
X9637330Y-17141874D02*
X9656377Y-17132350D01*
X9656377Y-17132350D02*
X9694473Y-17132350D01*
X9694473Y-17132350D02*
X9713520Y-17141874D01*
X9713520Y-17141874D02*
X9723044Y-17160922D01*
X9723044Y-17160922D02*
X9723044Y-17179970D01*
X9723044Y-17179970D02*
X9627806Y-17199017D01*
X9799234Y-17256160D02*
X9818282Y-17265684D01*
X9818282Y-17265684D02*
X9856377Y-17265684D01*
X9856377Y-17265684D02*
X9875425Y-17256160D01*
X9875425Y-17256160D02*
X9884949Y-17237112D01*
X9884949Y-17237112D02*
X9884949Y-17227589D01*
X9884949Y-17227589D02*
X9875425Y-17208541D01*
X9875425Y-17208541D02*
X9856377Y-17199017D01*
X9856377Y-17199017D02*
X9827806Y-17199017D01*
X9827806Y-17199017D02*
X9808758Y-17189493D01*
X9808758Y-17189493D02*
X9799234Y-17170446D01*
X9799234Y-17170446D02*
X9799234Y-17160922D01*
X9799234Y-17160922D02*
X9808758Y-17141874D01*
X9808758Y-17141874D02*
X9827806Y-17132350D01*
X9827806Y-17132350D02*
X9856377Y-17132350D01*
X9856377Y-17132350D02*
X9875425Y-17141874D01*
X9951615Y-17341874D02*
X9961139Y-17332350D01*
X9961139Y-17332350D02*
X9980187Y-17303779D01*
X9980187Y-17303779D02*
X9989711Y-17284731D01*
X9989711Y-17284731D02*
X9999234Y-17256160D01*
X9999234Y-17256160D02*
X10008758Y-17208541D01*
X10008758Y-17208541D02*
X10008758Y-17170446D01*
X10008758Y-17170446D02*
X9999234Y-17122827D01*
X9999234Y-17122827D02*
X9989711Y-17094255D01*
X9989711Y-17094255D02*
X9980187Y-17075208D01*
X9980187Y-17075208D02*
X9961139Y-17046636D01*
X9961139Y-17046636D02*
X9951615Y-17037112D01*
D10*
X4795600Y-17438200D02*
G75*
G02*
X4750600Y-17438200I-22500J0D01*
G01*
X4750600Y-17438200D02*
G75*
G02*
X4795600Y-17438200I22500J0D01*
G01*
D11*
X5094472Y-17329684D02*
X5113520Y-17329684D01*
X5113520Y-17329684D02*
X5132567Y-17339208D01*
X5132567Y-17339208D02*
X5142091Y-17348731D01*
X5142091Y-17348731D02*
X5151615Y-17367779D01*
X5151615Y-17367779D02*
X5161139Y-17405874D01*
X5161139Y-17405874D02*
X5161139Y-17453493D01*
X5161139Y-17453493D02*
X5151615Y-17491589D01*
X5151615Y-17491589D02*
X5142091Y-17510636D01*
X5142091Y-17510636D02*
X5132567Y-17520160D01*
X5132567Y-17520160D02*
X5113520Y-17529684D01*
X5113520Y-17529684D02*
X5094472Y-17529684D01*
X5094472Y-17529684D02*
X5075424Y-17520160D01*
X5075424Y-17520160D02*
X5065901Y-17510636D01*
X5065901Y-17510636D02*
X5056377Y-17491589D01*
X5056377Y-17491589D02*
X5046853Y-17453493D01*
X5046853Y-17453493D02*
X5046853Y-17405874D01*
X5046853Y-17405874D02*
X5056377Y-17367779D01*
X5056377Y-17367779D02*
X5065901Y-17348731D01*
X5065901Y-17348731D02*
X5075424Y-17339208D01*
X5075424Y-17339208D02*
X5094472Y-17329684D01*
X5246853Y-17510636D02*
X5256377Y-17520160D01*
X5256377Y-17520160D02*
X5246853Y-17529684D01*
X5246853Y-17529684D02*
X5237329Y-17520160D01*
X5237329Y-17520160D02*
X5246853Y-17510636D01*
X5246853Y-17510636D02*
X5246853Y-17529684D01*
X5427805Y-17396350D02*
X5427805Y-17529684D01*
X5380186Y-17320160D02*
X5332567Y-17463017D01*
X5332567Y-17463017D02*
X5456377Y-17463017D01*
X5627805Y-17329684D02*
X5532567Y-17329684D01*
X5532567Y-17329684D02*
X5523044Y-17424922D01*
X5523044Y-17424922D02*
X5532567Y-17415398D01*
X5532567Y-17415398D02*
X5551615Y-17405874D01*
X5551615Y-17405874D02*
X5599234Y-17405874D01*
X5599234Y-17405874D02*
X5618282Y-17415398D01*
X5618282Y-17415398D02*
X5627805Y-17424922D01*
X5627805Y-17424922D02*
X5637329Y-17443970D01*
X5637329Y-17443970D02*
X5637329Y-17491589D01*
X5637329Y-17491589D02*
X5627805Y-17510636D01*
X5627805Y-17510636D02*
X5618282Y-17520160D01*
X5618282Y-17520160D02*
X5599234Y-17529684D01*
X5599234Y-17529684D02*
X5551615Y-17529684D01*
X5551615Y-17529684D02*
X5532567Y-17520160D01*
X5532567Y-17520160D02*
X5523044Y-17510636D01*
X5761139Y-17329684D02*
X5780186Y-17329684D01*
X5780186Y-17329684D02*
X5799234Y-17339208D01*
X5799234Y-17339208D02*
X5808758Y-17348731D01*
X5808758Y-17348731D02*
X5818282Y-17367779D01*
X5818282Y-17367779D02*
X5827805Y-17405874D01*
X5827805Y-17405874D02*
X5827805Y-17453493D01*
X5827805Y-17453493D02*
X5818282Y-17491589D01*
X5818282Y-17491589D02*
X5808758Y-17510636D01*
X5808758Y-17510636D02*
X5799234Y-17520160D01*
X5799234Y-17520160D02*
X5780186Y-17529684D01*
X5780186Y-17529684D02*
X5761139Y-17529684D01*
X5761139Y-17529684D02*
X5742091Y-17520160D01*
X5742091Y-17520160D02*
X5732567Y-17510636D01*
X5732567Y-17510636D02*
X5723043Y-17491589D01*
X5723043Y-17491589D02*
X5713520Y-17453493D01*
X5713520Y-17453493D02*
X5713520Y-17405874D01*
X5713520Y-17405874D02*
X5723043Y-17367779D01*
X5723043Y-17367779D02*
X5732567Y-17348731D01*
X5732567Y-17348731D02*
X5742091Y-17339208D01*
X5742091Y-17339208D02*
X5761139Y-17329684D01*
X5913520Y-17529684D02*
X5913520Y-17396350D01*
X5913520Y-17415398D02*
X5923043Y-17405874D01*
X5923043Y-17405874D02*
X5942091Y-17396350D01*
X5942091Y-17396350D02*
X5970663Y-17396350D01*
X5970663Y-17396350D02*
X5989710Y-17405874D01*
X5989710Y-17405874D02*
X5999234Y-17424922D01*
X5999234Y-17424922D02*
X5999234Y-17529684D01*
X5999234Y-17424922D02*
X6008758Y-17405874D01*
X6008758Y-17405874D02*
X6027805Y-17396350D01*
X6027805Y-17396350D02*
X6056377Y-17396350D01*
X6056377Y-17396350D02*
X6075424Y-17405874D01*
X6075424Y-17405874D02*
X6084948Y-17424922D01*
X6084948Y-17424922D02*
X6084948Y-17529684D01*
X6180186Y-17529684D02*
X6180186Y-17396350D01*
X6180186Y-17415398D02*
X6189710Y-17405874D01*
X6189710Y-17405874D02*
X6208758Y-17396350D01*
X6208758Y-17396350D02*
X6237329Y-17396350D01*
X6237329Y-17396350D02*
X6256377Y-17405874D01*
X6256377Y-17405874D02*
X6265901Y-17424922D01*
X6265901Y-17424922D02*
X6265901Y-17529684D01*
X6265901Y-17424922D02*
X6275424Y-17405874D01*
X6275424Y-17405874D02*
X6294472Y-17396350D01*
X6294472Y-17396350D02*
X6323043Y-17396350D01*
X6323043Y-17396350D02*
X6342091Y-17405874D01*
X6342091Y-17405874D02*
X6351615Y-17424922D01*
X6351615Y-17424922D02*
X6351615Y-17529684D01*
X6742091Y-17320160D02*
X6570663Y-17577303D01*
X6999234Y-17329684D02*
X7018282Y-17329684D01*
X7018282Y-17329684D02*
X7037329Y-17339208D01*
X7037329Y-17339208D02*
X7046853Y-17348731D01*
X7046853Y-17348731D02*
X7056377Y-17367779D01*
X7056377Y-17367779D02*
X7065901Y-17405874D01*
X7065901Y-17405874D02*
X7065901Y-17453493D01*
X7065901Y-17453493D02*
X7056377Y-17491589D01*
X7056377Y-17491589D02*
X7046853Y-17510636D01*
X7046853Y-17510636D02*
X7037329Y-17520160D01*
X7037329Y-17520160D02*
X7018282Y-17529684D01*
X7018282Y-17529684D02*
X6999234Y-17529684D01*
X6999234Y-17529684D02*
X6980186Y-17520160D01*
X6980186Y-17520160D02*
X6970663Y-17510636D01*
X6970663Y-17510636D02*
X6961139Y-17491589D01*
X6961139Y-17491589D02*
X6951615Y-17453493D01*
X6951615Y-17453493D02*
X6951615Y-17405874D01*
X6951615Y-17405874D02*
X6961139Y-17367779D01*
X6961139Y-17367779D02*
X6970663Y-17348731D01*
X6970663Y-17348731D02*
X6980186Y-17339208D01*
X6980186Y-17339208D02*
X6999234Y-17329684D01*
X7151615Y-17510636D02*
X7161139Y-17520160D01*
X7161139Y-17520160D02*
X7151615Y-17529684D01*
X7151615Y-17529684D02*
X7142091Y-17520160D01*
X7142091Y-17520160D02*
X7151615Y-17510636D01*
X7151615Y-17510636D02*
X7151615Y-17529684D01*
X7284948Y-17329684D02*
X7303996Y-17329684D01*
X7303996Y-17329684D02*
X7323044Y-17339208D01*
X7323044Y-17339208D02*
X7332567Y-17348731D01*
X7332567Y-17348731D02*
X7342091Y-17367779D01*
X7342091Y-17367779D02*
X7351615Y-17405874D01*
X7351615Y-17405874D02*
X7351615Y-17453493D01*
X7351615Y-17453493D02*
X7342091Y-17491589D01*
X7342091Y-17491589D02*
X7332567Y-17510636D01*
X7332567Y-17510636D02*
X7323044Y-17520160D01*
X7323044Y-17520160D02*
X7303996Y-17529684D01*
X7303996Y-17529684D02*
X7284948Y-17529684D01*
X7284948Y-17529684D02*
X7265901Y-17520160D01*
X7265901Y-17520160D02*
X7256377Y-17510636D01*
X7256377Y-17510636D02*
X7246853Y-17491589D01*
X7246853Y-17491589D02*
X7237329Y-17453493D01*
X7237329Y-17453493D02*
X7237329Y-17405874D01*
X7237329Y-17405874D02*
X7246853Y-17367779D01*
X7246853Y-17367779D02*
X7256377Y-17348731D01*
X7256377Y-17348731D02*
X7265901Y-17339208D01*
X7265901Y-17339208D02*
X7284948Y-17329684D01*
X7542091Y-17529684D02*
X7427806Y-17529684D01*
X7484948Y-17529684D02*
X7484948Y-17329684D01*
X7484948Y-17329684D02*
X7465901Y-17358255D01*
X7465901Y-17358255D02*
X7446853Y-17377303D01*
X7446853Y-17377303D02*
X7427806Y-17386827D01*
X7608758Y-17329684D02*
X7742091Y-17329684D01*
X7742091Y-17329684D02*
X7656377Y-17529684D01*
X7799234Y-17329684D02*
X7932567Y-17329684D01*
X7932567Y-17329684D02*
X7846853Y-17529684D01*
X7999234Y-17329684D02*
X7999234Y-17367779D01*
X8075425Y-17329684D02*
X8075425Y-17367779D01*
X8370663Y-17605874D02*
X8361139Y-17596350D01*
X8361139Y-17596350D02*
X8342091Y-17567779D01*
X8342091Y-17567779D02*
X8332568Y-17548731D01*
X8332568Y-17548731D02*
X8323044Y-17520160D01*
X8323044Y-17520160D02*
X8313520Y-17472541D01*
X8313520Y-17472541D02*
X8313520Y-17434446D01*
X8313520Y-17434446D02*
X8323044Y-17386827D01*
X8323044Y-17386827D02*
X8332568Y-17358255D01*
X8332568Y-17358255D02*
X8342091Y-17339208D01*
X8342091Y-17339208D02*
X8361139Y-17310636D01*
X8361139Y-17310636D02*
X8370663Y-17301112D01*
X8484949Y-17329684D02*
X8503996Y-17329684D01*
X8503996Y-17329684D02*
X8523044Y-17339208D01*
X8523044Y-17339208D02*
X8532568Y-17348731D01*
X8532568Y-17348731D02*
X8542091Y-17367779D01*
X8542091Y-17367779D02*
X8551615Y-17405874D01*
X8551615Y-17405874D02*
X8551615Y-17453493D01*
X8551615Y-17453493D02*
X8542091Y-17491589D01*
X8542091Y-17491589D02*
X8532568Y-17510636D01*
X8532568Y-17510636D02*
X8523044Y-17520160D01*
X8523044Y-17520160D02*
X8503996Y-17529684D01*
X8503996Y-17529684D02*
X8484949Y-17529684D01*
X8484949Y-17529684D02*
X8465901Y-17520160D01*
X8465901Y-17520160D02*
X8456377Y-17510636D01*
X8456377Y-17510636D02*
X8446853Y-17491589D01*
X8446853Y-17491589D02*
X8437330Y-17453493D01*
X8437330Y-17453493D02*
X8437330Y-17405874D01*
X8437330Y-17405874D02*
X8446853Y-17367779D01*
X8446853Y-17367779D02*
X8456377Y-17348731D01*
X8456377Y-17348731D02*
X8465901Y-17339208D01*
X8465901Y-17339208D02*
X8484949Y-17329684D01*
X8789711Y-17529684D02*
X8789711Y-17329684D01*
X8875425Y-17529684D02*
X8875425Y-17424922D01*
X8875425Y-17424922D02*
X8865901Y-17405874D01*
X8865901Y-17405874D02*
X8846853Y-17396350D01*
X8846853Y-17396350D02*
X8818282Y-17396350D01*
X8818282Y-17396350D02*
X8799234Y-17405874D01*
X8799234Y-17405874D02*
X8789711Y-17415398D01*
X8999234Y-17529684D02*
X8980187Y-17520160D01*
X8980187Y-17520160D02*
X8970663Y-17510636D01*
X8970663Y-17510636D02*
X8961139Y-17491589D01*
X8961139Y-17491589D02*
X8961139Y-17434446D01*
X8961139Y-17434446D02*
X8970663Y-17415398D01*
X8970663Y-17415398D02*
X8980187Y-17405874D01*
X8980187Y-17405874D02*
X8999234Y-17396350D01*
X8999234Y-17396350D02*
X9027806Y-17396350D01*
X9027806Y-17396350D02*
X9046853Y-17405874D01*
X9046853Y-17405874D02*
X9056377Y-17415398D01*
X9056377Y-17415398D02*
X9065901Y-17434446D01*
X9065901Y-17434446D02*
X9065901Y-17491589D01*
X9065901Y-17491589D02*
X9056377Y-17510636D01*
X9056377Y-17510636D02*
X9046853Y-17520160D01*
X9046853Y-17520160D02*
X9027806Y-17529684D01*
X9027806Y-17529684D02*
X8999234Y-17529684D01*
X9180187Y-17529684D02*
X9161139Y-17520160D01*
X9161139Y-17520160D02*
X9151615Y-17501112D01*
X9151615Y-17501112D02*
X9151615Y-17329684D01*
X9332568Y-17520160D02*
X9313520Y-17529684D01*
X9313520Y-17529684D02*
X9275425Y-17529684D01*
X9275425Y-17529684D02*
X9256377Y-17520160D01*
X9256377Y-17520160D02*
X9246853Y-17501112D01*
X9246853Y-17501112D02*
X9246853Y-17424922D01*
X9246853Y-17424922D02*
X9256377Y-17405874D01*
X9256377Y-17405874D02*
X9275425Y-17396350D01*
X9275425Y-17396350D02*
X9313520Y-17396350D01*
X9313520Y-17396350D02*
X9332568Y-17405874D01*
X9332568Y-17405874D02*
X9342092Y-17424922D01*
X9342092Y-17424922D02*
X9342092Y-17443970D01*
X9342092Y-17443970D02*
X9246853Y-17463017D01*
X9418282Y-17520160D02*
X9437330Y-17529684D01*
X9437330Y-17529684D02*
X9475425Y-17529684D01*
X9475425Y-17529684D02*
X9494473Y-17520160D01*
X9494473Y-17520160D02*
X9503996Y-17501112D01*
X9503996Y-17501112D02*
X9503996Y-17491589D01*
X9503996Y-17491589D02*
X9494473Y-17472541D01*
X9494473Y-17472541D02*
X9475425Y-17463017D01*
X9475425Y-17463017D02*
X9446853Y-17463017D01*
X9446853Y-17463017D02*
X9427806Y-17453493D01*
X9427806Y-17453493D02*
X9418282Y-17434446D01*
X9418282Y-17434446D02*
X9418282Y-17424922D01*
X9418282Y-17424922D02*
X9427806Y-17405874D01*
X9427806Y-17405874D02*
X9446853Y-17396350D01*
X9446853Y-17396350D02*
X9475425Y-17396350D01*
X9475425Y-17396350D02*
X9494473Y-17405874D01*
X9742092Y-17453493D02*
X9894473Y-17453493D01*
X9818282Y-17529684D02*
X9818282Y-17377303D01*
X10132568Y-17348731D02*
X10142092Y-17339208D01*
X10142092Y-17339208D02*
X10161139Y-17329684D01*
X10161139Y-17329684D02*
X10208758Y-17329684D01*
X10208758Y-17329684D02*
X10227806Y-17339208D01*
X10227806Y-17339208D02*
X10237330Y-17348731D01*
X10237330Y-17348731D02*
X10246854Y-17367779D01*
X10246854Y-17367779D02*
X10246854Y-17386827D01*
X10246854Y-17386827D02*
X10237330Y-17415398D01*
X10237330Y-17415398D02*
X10123044Y-17529684D01*
X10123044Y-17529684D02*
X10246854Y-17529684D01*
X10475425Y-17520160D02*
X10494473Y-17529684D01*
X10494473Y-17529684D02*
X10532568Y-17529684D01*
X10532568Y-17529684D02*
X10551616Y-17520160D01*
X10551616Y-17520160D02*
X10561139Y-17501112D01*
X10561139Y-17501112D02*
X10561139Y-17491589D01*
X10561139Y-17491589D02*
X10551616Y-17472541D01*
X10551616Y-17472541D02*
X10532568Y-17463017D01*
X10532568Y-17463017D02*
X10503996Y-17463017D01*
X10503996Y-17463017D02*
X10484949Y-17453493D01*
X10484949Y-17453493D02*
X10475425Y-17434446D01*
X10475425Y-17434446D02*
X10475425Y-17424922D01*
X10475425Y-17424922D02*
X10484949Y-17405874D01*
X10484949Y-17405874D02*
X10503996Y-17396350D01*
X10503996Y-17396350D02*
X10532568Y-17396350D01*
X10532568Y-17396350D02*
X10551616Y-17405874D01*
X10675425Y-17529684D02*
X10656377Y-17520160D01*
X10656377Y-17520160D02*
X10646854Y-17501112D01*
X10646854Y-17501112D02*
X10646854Y-17329684D01*
X10780187Y-17529684D02*
X10761139Y-17520160D01*
X10761139Y-17520160D02*
X10751616Y-17510636D01*
X10751616Y-17510636D02*
X10742092Y-17491589D01*
X10742092Y-17491589D02*
X10742092Y-17434446D01*
X10742092Y-17434446D02*
X10751616Y-17415398D01*
X10751616Y-17415398D02*
X10761139Y-17405874D01*
X10761139Y-17405874D02*
X10780187Y-17396350D01*
X10780187Y-17396350D02*
X10808758Y-17396350D01*
X10808758Y-17396350D02*
X10827806Y-17405874D01*
X10827806Y-17405874D02*
X10837330Y-17415398D01*
X10837330Y-17415398D02*
X10846854Y-17434446D01*
X10846854Y-17434446D02*
X10846854Y-17491589D01*
X10846854Y-17491589D02*
X10837330Y-17510636D01*
X10837330Y-17510636D02*
X10827806Y-17520160D01*
X10827806Y-17520160D02*
X10808758Y-17529684D01*
X10808758Y-17529684D02*
X10780187Y-17529684D01*
X10903997Y-17396350D02*
X10980187Y-17396350D01*
X10932568Y-17329684D02*
X10932568Y-17501112D01*
X10932568Y-17501112D02*
X10942092Y-17520160D01*
X10942092Y-17520160D02*
X10961139Y-17529684D01*
X10961139Y-17529684D02*
X10980187Y-17529684D01*
X11037330Y-17520160D02*
X11056377Y-17529684D01*
X11056377Y-17529684D02*
X11094473Y-17529684D01*
X11094473Y-17529684D02*
X11113520Y-17520160D01*
X11113520Y-17520160D02*
X11123044Y-17501112D01*
X11123044Y-17501112D02*
X11123044Y-17491589D01*
X11123044Y-17491589D02*
X11113520Y-17472541D01*
X11113520Y-17472541D02*
X11094473Y-17463017D01*
X11094473Y-17463017D02*
X11065901Y-17463017D01*
X11065901Y-17463017D02*
X11046854Y-17453493D01*
X11046854Y-17453493D02*
X11037330Y-17434446D01*
X11037330Y-17434446D02*
X11037330Y-17424922D01*
X11037330Y-17424922D02*
X11046854Y-17405874D01*
X11046854Y-17405874D02*
X11065901Y-17396350D01*
X11065901Y-17396350D02*
X11094473Y-17396350D01*
X11094473Y-17396350D02*
X11113520Y-17405874D01*
X11189711Y-17605874D02*
X11199235Y-17596350D01*
X11199235Y-17596350D02*
X11218282Y-17567779D01*
X11218282Y-17567779D02*
X11227806Y-17548731D01*
X11227806Y-17548731D02*
X11237330Y-17520160D01*
X11237330Y-17520160D02*
X11246854Y-17472541D01*
X11246854Y-17472541D02*
X11246854Y-17434446D01*
X11246854Y-17434446D02*
X11237330Y-17386827D01*
X11237330Y-17386827D02*
X11227806Y-17358255D01*
X11227806Y-17358255D02*
X11218282Y-17339208D01*
X11218282Y-17339208D02*
X11199235Y-17310636D01*
X11199235Y-17310636D02*
X11189711Y-17301112D01*
D10*
X4760040Y-17666640D02*
X4760040Y-17737760D01*
X4724480Y-17702200D02*
X4795600Y-17702200D01*
D11*
X5094472Y-17593684D02*
X5113520Y-17593684D01*
X5113520Y-17593684D02*
X5132567Y-17603208D01*
X5132567Y-17603208D02*
X5142091Y-17612731D01*
X5142091Y-17612731D02*
X5151615Y-17631779D01*
X5151615Y-17631779D02*
X5161139Y-17669874D01*
X5161139Y-17669874D02*
X5161139Y-17717493D01*
X5161139Y-17717493D02*
X5151615Y-17755589D01*
X5151615Y-17755589D02*
X5142091Y-17774636D01*
X5142091Y-17774636D02*
X5132567Y-17784160D01*
X5132567Y-17784160D02*
X5113520Y-17793684D01*
X5113520Y-17793684D02*
X5094472Y-17793684D01*
X5094472Y-17793684D02*
X5075424Y-17784160D01*
X5075424Y-17784160D02*
X5065901Y-17774636D01*
X5065901Y-17774636D02*
X5056377Y-17755589D01*
X5056377Y-17755589D02*
X5046853Y-17717493D01*
X5046853Y-17717493D02*
X5046853Y-17669874D01*
X5046853Y-17669874D02*
X5056377Y-17631779D01*
X5056377Y-17631779D02*
X5065901Y-17612731D01*
X5065901Y-17612731D02*
X5075424Y-17603208D01*
X5075424Y-17603208D02*
X5094472Y-17593684D01*
X5246853Y-17774636D02*
X5256377Y-17784160D01*
X5256377Y-17784160D02*
X5246853Y-17793684D01*
X5246853Y-17793684D02*
X5237329Y-17784160D01*
X5237329Y-17784160D02*
X5246853Y-17774636D01*
X5246853Y-17774636D02*
X5246853Y-17793684D01*
X5323044Y-17593684D02*
X5456377Y-17593684D01*
X5456377Y-17593684D02*
X5370663Y-17793684D01*
X5637329Y-17793684D02*
X5523044Y-17793684D01*
X5580186Y-17793684D02*
X5580186Y-17593684D01*
X5580186Y-17593684D02*
X5561139Y-17622255D01*
X5561139Y-17622255D02*
X5542091Y-17641303D01*
X5542091Y-17641303D02*
X5523044Y-17650827D01*
X5827805Y-17793684D02*
X5713520Y-17793684D01*
X5770662Y-17793684D02*
X5770662Y-17593684D01*
X5770662Y-17593684D02*
X5751615Y-17622255D01*
X5751615Y-17622255D02*
X5732567Y-17641303D01*
X5732567Y-17641303D02*
X5713520Y-17650827D01*
X5913520Y-17793684D02*
X5913520Y-17660350D01*
X5913520Y-17679398D02*
X5923043Y-17669874D01*
X5923043Y-17669874D02*
X5942091Y-17660350D01*
X5942091Y-17660350D02*
X5970663Y-17660350D01*
X5970663Y-17660350D02*
X5989710Y-17669874D01*
X5989710Y-17669874D02*
X5999234Y-17688922D01*
X5999234Y-17688922D02*
X5999234Y-17793684D01*
X5999234Y-17688922D02*
X6008758Y-17669874D01*
X6008758Y-17669874D02*
X6027805Y-17660350D01*
X6027805Y-17660350D02*
X6056377Y-17660350D01*
X6056377Y-17660350D02*
X6075424Y-17669874D01*
X6075424Y-17669874D02*
X6084948Y-17688922D01*
X6084948Y-17688922D02*
X6084948Y-17793684D01*
X6180186Y-17793684D02*
X6180186Y-17660350D01*
X6180186Y-17679398D02*
X6189710Y-17669874D01*
X6189710Y-17669874D02*
X6208758Y-17660350D01*
X6208758Y-17660350D02*
X6237329Y-17660350D01*
X6237329Y-17660350D02*
X6256377Y-17669874D01*
X6256377Y-17669874D02*
X6265901Y-17688922D01*
X6265901Y-17688922D02*
X6265901Y-17793684D01*
X6265901Y-17688922D02*
X6275424Y-17669874D01*
X6275424Y-17669874D02*
X6294472Y-17660350D01*
X6294472Y-17660350D02*
X6323043Y-17660350D01*
X6323043Y-17660350D02*
X6342091Y-17669874D01*
X6342091Y-17669874D02*
X6351615Y-17688922D01*
X6351615Y-17688922D02*
X6351615Y-17793684D01*
X6742091Y-17584160D02*
X6570663Y-17841303D01*
X6999234Y-17593684D02*
X7018282Y-17593684D01*
X7018282Y-17593684D02*
X7037329Y-17603208D01*
X7037329Y-17603208D02*
X7046853Y-17612731D01*
X7046853Y-17612731D02*
X7056377Y-17631779D01*
X7056377Y-17631779D02*
X7065901Y-17669874D01*
X7065901Y-17669874D02*
X7065901Y-17717493D01*
X7065901Y-17717493D02*
X7056377Y-17755589D01*
X7056377Y-17755589D02*
X7046853Y-17774636D01*
X7046853Y-17774636D02*
X7037329Y-17784160D01*
X7037329Y-17784160D02*
X7018282Y-17793684D01*
X7018282Y-17793684D02*
X6999234Y-17793684D01*
X6999234Y-17793684D02*
X6980186Y-17784160D01*
X6980186Y-17784160D02*
X6970663Y-17774636D01*
X6970663Y-17774636D02*
X6961139Y-17755589D01*
X6961139Y-17755589D02*
X6951615Y-17717493D01*
X6951615Y-17717493D02*
X6951615Y-17669874D01*
X6951615Y-17669874D02*
X6961139Y-17631779D01*
X6961139Y-17631779D02*
X6970663Y-17612731D01*
X6970663Y-17612731D02*
X6980186Y-17603208D01*
X6980186Y-17603208D02*
X6999234Y-17593684D01*
X7151615Y-17774636D02*
X7161139Y-17784160D01*
X7161139Y-17784160D02*
X7151615Y-17793684D01*
X7151615Y-17793684D02*
X7142091Y-17784160D01*
X7142091Y-17784160D02*
X7151615Y-17774636D01*
X7151615Y-17774636D02*
X7151615Y-17793684D01*
X7284948Y-17593684D02*
X7303996Y-17593684D01*
X7303996Y-17593684D02*
X7323044Y-17603208D01*
X7323044Y-17603208D02*
X7332567Y-17612731D01*
X7332567Y-17612731D02*
X7342091Y-17631779D01*
X7342091Y-17631779D02*
X7351615Y-17669874D01*
X7351615Y-17669874D02*
X7351615Y-17717493D01*
X7351615Y-17717493D02*
X7342091Y-17755589D01*
X7342091Y-17755589D02*
X7332567Y-17774636D01*
X7332567Y-17774636D02*
X7323044Y-17784160D01*
X7323044Y-17784160D02*
X7303996Y-17793684D01*
X7303996Y-17793684D02*
X7284948Y-17793684D01*
X7284948Y-17793684D02*
X7265901Y-17784160D01*
X7265901Y-17784160D02*
X7256377Y-17774636D01*
X7256377Y-17774636D02*
X7246853Y-17755589D01*
X7246853Y-17755589D02*
X7237329Y-17717493D01*
X7237329Y-17717493D02*
X7237329Y-17669874D01*
X7237329Y-17669874D02*
X7246853Y-17631779D01*
X7246853Y-17631779D02*
X7256377Y-17612731D01*
X7256377Y-17612731D02*
X7265901Y-17603208D01*
X7265901Y-17603208D02*
X7284948Y-17593684D01*
X7427806Y-17612731D02*
X7437329Y-17603208D01*
X7437329Y-17603208D02*
X7456377Y-17593684D01*
X7456377Y-17593684D02*
X7503996Y-17593684D01*
X7503996Y-17593684D02*
X7523044Y-17603208D01*
X7523044Y-17603208D02*
X7532567Y-17612731D01*
X7532567Y-17612731D02*
X7542091Y-17631779D01*
X7542091Y-17631779D02*
X7542091Y-17650827D01*
X7542091Y-17650827D02*
X7532567Y-17679398D01*
X7532567Y-17679398D02*
X7418282Y-17793684D01*
X7418282Y-17793684D02*
X7542091Y-17793684D01*
X7656377Y-17679398D02*
X7637329Y-17669874D01*
X7637329Y-17669874D02*
X7627806Y-17660350D01*
X7627806Y-17660350D02*
X7618282Y-17641303D01*
X7618282Y-17641303D02*
X7618282Y-17631779D01*
X7618282Y-17631779D02*
X7627806Y-17612731D01*
X7627806Y-17612731D02*
X7637329Y-17603208D01*
X7637329Y-17603208D02*
X7656377Y-17593684D01*
X7656377Y-17593684D02*
X7694472Y-17593684D01*
X7694472Y-17593684D02*
X7713520Y-17603208D01*
X7713520Y-17603208D02*
X7723044Y-17612731D01*
X7723044Y-17612731D02*
X7732567Y-17631779D01*
X7732567Y-17631779D02*
X7732567Y-17641303D01*
X7732567Y-17641303D02*
X7723044Y-17660350D01*
X7723044Y-17660350D02*
X7713520Y-17669874D01*
X7713520Y-17669874D02*
X7694472Y-17679398D01*
X7694472Y-17679398D02*
X7656377Y-17679398D01*
X7656377Y-17679398D02*
X7637329Y-17688922D01*
X7637329Y-17688922D02*
X7627806Y-17698446D01*
X7627806Y-17698446D02*
X7618282Y-17717493D01*
X7618282Y-17717493D02*
X7618282Y-17755589D01*
X7618282Y-17755589D02*
X7627806Y-17774636D01*
X7627806Y-17774636D02*
X7637329Y-17784160D01*
X7637329Y-17784160D02*
X7656377Y-17793684D01*
X7656377Y-17793684D02*
X7694472Y-17793684D01*
X7694472Y-17793684D02*
X7713520Y-17784160D01*
X7713520Y-17784160D02*
X7723044Y-17774636D01*
X7723044Y-17774636D02*
X7732567Y-17755589D01*
X7732567Y-17755589D02*
X7732567Y-17717493D01*
X7732567Y-17717493D02*
X7723044Y-17698446D01*
X7723044Y-17698446D02*
X7713520Y-17688922D01*
X7713520Y-17688922D02*
X7694472Y-17679398D01*
X7856377Y-17593684D02*
X7875425Y-17593684D01*
X7875425Y-17593684D02*
X7894472Y-17603208D01*
X7894472Y-17603208D02*
X7903996Y-17612731D01*
X7903996Y-17612731D02*
X7913520Y-17631779D01*
X7913520Y-17631779D02*
X7923044Y-17669874D01*
X7923044Y-17669874D02*
X7923044Y-17717493D01*
X7923044Y-17717493D02*
X7913520Y-17755589D01*
X7913520Y-17755589D02*
X7903996Y-17774636D01*
X7903996Y-17774636D02*
X7894472Y-17784160D01*
X7894472Y-17784160D02*
X7875425Y-17793684D01*
X7875425Y-17793684D02*
X7856377Y-17793684D01*
X7856377Y-17793684D02*
X7837329Y-17784160D01*
X7837329Y-17784160D02*
X7827806Y-17774636D01*
X7827806Y-17774636D02*
X7818282Y-17755589D01*
X7818282Y-17755589D02*
X7808758Y-17717493D01*
X7808758Y-17717493D02*
X7808758Y-17669874D01*
X7808758Y-17669874D02*
X7818282Y-17631779D01*
X7818282Y-17631779D02*
X7827806Y-17612731D01*
X7827806Y-17612731D02*
X7837329Y-17603208D01*
X7837329Y-17603208D02*
X7856377Y-17593684D01*
X7999234Y-17593684D02*
X7999234Y-17631779D01*
X8075425Y-17593684D02*
X8075425Y-17631779D01*
X8370663Y-17869874D02*
X8361139Y-17860350D01*
X8361139Y-17860350D02*
X8342091Y-17831779D01*
X8342091Y-17831779D02*
X8332568Y-17812731D01*
X8332568Y-17812731D02*
X8323044Y-17784160D01*
X8323044Y-17784160D02*
X8313520Y-17736541D01*
X8313520Y-17736541D02*
X8313520Y-17698446D01*
X8313520Y-17698446D02*
X8323044Y-17650827D01*
X8323044Y-17650827D02*
X8332568Y-17622255D01*
X8332568Y-17622255D02*
X8342091Y-17603208D01*
X8342091Y-17603208D02*
X8361139Y-17574636D01*
X8361139Y-17574636D02*
X8370663Y-17565112D01*
X8551615Y-17793684D02*
X8437330Y-17793684D01*
X8494472Y-17793684D02*
X8494472Y-17593684D01*
X8494472Y-17593684D02*
X8475425Y-17622255D01*
X8475425Y-17622255D02*
X8456377Y-17641303D01*
X8456377Y-17641303D02*
X8437330Y-17650827D01*
X8742091Y-17793684D02*
X8627806Y-17793684D01*
X8684949Y-17793684D02*
X8684949Y-17593684D01*
X8684949Y-17593684D02*
X8665901Y-17622255D01*
X8665901Y-17622255D02*
X8646853Y-17641303D01*
X8646853Y-17641303D02*
X8627806Y-17650827D01*
X8980187Y-17793684D02*
X8980187Y-17593684D01*
X9065901Y-17793684D02*
X9065901Y-17688922D01*
X9065901Y-17688922D02*
X9056377Y-17669874D01*
X9056377Y-17669874D02*
X9037330Y-17660350D01*
X9037330Y-17660350D02*
X9008758Y-17660350D01*
X9008758Y-17660350D02*
X8989711Y-17669874D01*
X8989711Y-17669874D02*
X8980187Y-17679398D01*
X9189711Y-17793684D02*
X9170663Y-17784160D01*
X9170663Y-17784160D02*
X9161139Y-17774636D01*
X9161139Y-17774636D02*
X9151615Y-17755589D01*
X9151615Y-17755589D02*
X9151615Y-17698446D01*
X9151615Y-17698446D02*
X9161139Y-17679398D01*
X9161139Y-17679398D02*
X9170663Y-17669874D01*
X9170663Y-17669874D02*
X9189711Y-17660350D01*
X9189711Y-17660350D02*
X9218282Y-17660350D01*
X9218282Y-17660350D02*
X9237330Y-17669874D01*
X9237330Y-17669874D02*
X9246853Y-17679398D01*
X9246853Y-17679398D02*
X9256377Y-17698446D01*
X9256377Y-17698446D02*
X9256377Y-17755589D01*
X9256377Y-17755589D02*
X9246853Y-17774636D01*
X9246853Y-17774636D02*
X9237330Y-17784160D01*
X9237330Y-17784160D02*
X9218282Y-17793684D01*
X9218282Y-17793684D02*
X9189711Y-17793684D01*
X9370663Y-17793684D02*
X9351615Y-17784160D01*
X9351615Y-17784160D02*
X9342092Y-17765112D01*
X9342092Y-17765112D02*
X9342092Y-17593684D01*
X9523044Y-17784160D02*
X9503996Y-17793684D01*
X9503996Y-17793684D02*
X9465901Y-17793684D01*
X9465901Y-17793684D02*
X9446853Y-17784160D01*
X9446853Y-17784160D02*
X9437330Y-17765112D01*
X9437330Y-17765112D02*
X9437330Y-17688922D01*
X9437330Y-17688922D02*
X9446853Y-17669874D01*
X9446853Y-17669874D02*
X9465901Y-17660350D01*
X9465901Y-17660350D02*
X9503996Y-17660350D01*
X9503996Y-17660350D02*
X9523044Y-17669874D01*
X9523044Y-17669874D02*
X9532568Y-17688922D01*
X9532568Y-17688922D02*
X9532568Y-17707970D01*
X9532568Y-17707970D02*
X9437330Y-17727017D01*
X9608758Y-17784160D02*
X9627806Y-17793684D01*
X9627806Y-17793684D02*
X9665901Y-17793684D01*
X9665901Y-17793684D02*
X9684949Y-17784160D01*
X9684949Y-17784160D02*
X9694473Y-17765112D01*
X9694473Y-17765112D02*
X9694473Y-17755589D01*
X9694473Y-17755589D02*
X9684949Y-17736541D01*
X9684949Y-17736541D02*
X9665901Y-17727017D01*
X9665901Y-17727017D02*
X9637330Y-17727017D01*
X9637330Y-17727017D02*
X9618282Y-17717493D01*
X9618282Y-17717493D02*
X9608758Y-17698446D01*
X9608758Y-17698446D02*
X9608758Y-17688922D01*
X9608758Y-17688922D02*
X9618282Y-17669874D01*
X9618282Y-17669874D02*
X9637330Y-17660350D01*
X9637330Y-17660350D02*
X9665901Y-17660350D01*
X9665901Y-17660350D02*
X9684949Y-17669874D01*
X9761139Y-17869874D02*
X9770663Y-17860350D01*
X9770663Y-17860350D02*
X9789711Y-17831779D01*
X9789711Y-17831779D02*
X9799234Y-17812731D01*
X9799234Y-17812731D02*
X9808758Y-17784160D01*
X9808758Y-17784160D02*
X9818282Y-17736541D01*
X9818282Y-17736541D02*
X9818282Y-17698446D01*
X9818282Y-17698446D02*
X9808758Y-17650827D01*
X9808758Y-17650827D02*
X9799234Y-17622255D01*
X9799234Y-17622255D02*
X9789711Y-17603208D01*
X9789711Y-17603208D02*
X9770663Y-17574636D01*
X9770663Y-17574636D02*
X9761139Y-17565112D01*
D10*
X4783885Y-17994485D02*
X4783885Y-17937916D01*
X4727316Y-17937916D01*
X4727316Y-17994485D01*
X4783885Y-17994485D01*
D11*
X5094472Y-17857684D02*
X5113520Y-17857684D01*
X5113520Y-17857684D02*
X5132567Y-17867208D01*
X5132567Y-17867208D02*
X5142091Y-17876731D01*
X5142091Y-17876731D02*
X5151615Y-17895779D01*
X5151615Y-17895779D02*
X5161139Y-17933874D01*
X5161139Y-17933874D02*
X5161139Y-17981493D01*
X5161139Y-17981493D02*
X5151615Y-18019589D01*
X5151615Y-18019589D02*
X5142091Y-18038636D01*
X5142091Y-18038636D02*
X5132567Y-18048160D01*
X5132567Y-18048160D02*
X5113520Y-18057684D01*
X5113520Y-18057684D02*
X5094472Y-18057684D01*
X5094472Y-18057684D02*
X5075424Y-18048160D01*
X5075424Y-18048160D02*
X5065901Y-18038636D01*
X5065901Y-18038636D02*
X5056377Y-18019589D01*
X5056377Y-18019589D02*
X5046853Y-17981493D01*
X5046853Y-17981493D02*
X5046853Y-17933874D01*
X5046853Y-17933874D02*
X5056377Y-17895779D01*
X5056377Y-17895779D02*
X5065901Y-17876731D01*
X5065901Y-17876731D02*
X5075424Y-17867208D01*
X5075424Y-17867208D02*
X5094472Y-17857684D01*
X5246853Y-18038636D02*
X5256377Y-18048160D01*
X5256377Y-18048160D02*
X5246853Y-18057684D01*
X5246853Y-18057684D02*
X5237329Y-18048160D01*
X5237329Y-18048160D02*
X5246853Y-18038636D01*
X5246853Y-18038636D02*
X5246853Y-18057684D01*
X5370663Y-17943398D02*
X5351615Y-17933874D01*
X5351615Y-17933874D02*
X5342091Y-17924350D01*
X5342091Y-17924350D02*
X5332567Y-17905303D01*
X5332567Y-17905303D02*
X5332567Y-17895779D01*
X5332567Y-17895779D02*
X5342091Y-17876731D01*
X5342091Y-17876731D02*
X5351615Y-17867208D01*
X5351615Y-17867208D02*
X5370663Y-17857684D01*
X5370663Y-17857684D02*
X5408758Y-17857684D01*
X5408758Y-17857684D02*
X5427805Y-17867208D01*
X5427805Y-17867208D02*
X5437329Y-17876731D01*
X5437329Y-17876731D02*
X5446853Y-17895779D01*
X5446853Y-17895779D02*
X5446853Y-17905303D01*
X5446853Y-17905303D02*
X5437329Y-17924350D01*
X5437329Y-17924350D02*
X5427805Y-17933874D01*
X5427805Y-17933874D02*
X5408758Y-17943398D01*
X5408758Y-17943398D02*
X5370663Y-17943398D01*
X5370663Y-17943398D02*
X5351615Y-17952922D01*
X5351615Y-17952922D02*
X5342091Y-17962446D01*
X5342091Y-17962446D02*
X5332567Y-17981493D01*
X5332567Y-17981493D02*
X5332567Y-18019589D01*
X5332567Y-18019589D02*
X5342091Y-18038636D01*
X5342091Y-18038636D02*
X5351615Y-18048160D01*
X5351615Y-18048160D02*
X5370663Y-18057684D01*
X5370663Y-18057684D02*
X5408758Y-18057684D01*
X5408758Y-18057684D02*
X5427805Y-18048160D01*
X5427805Y-18048160D02*
X5437329Y-18038636D01*
X5437329Y-18038636D02*
X5446853Y-18019589D01*
X5446853Y-18019589D02*
X5446853Y-17981493D01*
X5446853Y-17981493D02*
X5437329Y-17962446D01*
X5437329Y-17962446D02*
X5427805Y-17952922D01*
X5427805Y-17952922D02*
X5408758Y-17943398D01*
X5570663Y-17857684D02*
X5589710Y-17857684D01*
X5589710Y-17857684D02*
X5608758Y-17867208D01*
X5608758Y-17867208D02*
X5618282Y-17876731D01*
X5618282Y-17876731D02*
X5627805Y-17895779D01*
X5627805Y-17895779D02*
X5637329Y-17933874D01*
X5637329Y-17933874D02*
X5637329Y-17981493D01*
X5637329Y-17981493D02*
X5627805Y-18019589D01*
X5627805Y-18019589D02*
X5618282Y-18038636D01*
X5618282Y-18038636D02*
X5608758Y-18048160D01*
X5608758Y-18048160D02*
X5589710Y-18057684D01*
X5589710Y-18057684D02*
X5570663Y-18057684D01*
X5570663Y-18057684D02*
X5551615Y-18048160D01*
X5551615Y-18048160D02*
X5542091Y-18038636D01*
X5542091Y-18038636D02*
X5532567Y-18019589D01*
X5532567Y-18019589D02*
X5523044Y-17981493D01*
X5523044Y-17981493D02*
X5523044Y-17933874D01*
X5523044Y-17933874D02*
X5532567Y-17895779D01*
X5532567Y-17895779D02*
X5542091Y-17876731D01*
X5542091Y-17876731D02*
X5551615Y-17867208D01*
X5551615Y-17867208D02*
X5570663Y-17857684D01*
X5761139Y-17857684D02*
X5780186Y-17857684D01*
X5780186Y-17857684D02*
X5799234Y-17867208D01*
X5799234Y-17867208D02*
X5808758Y-17876731D01*
X5808758Y-17876731D02*
X5818282Y-17895779D01*
X5818282Y-17895779D02*
X5827805Y-17933874D01*
X5827805Y-17933874D02*
X5827805Y-17981493D01*
X5827805Y-17981493D02*
X5818282Y-18019589D01*
X5818282Y-18019589D02*
X5808758Y-18038636D01*
X5808758Y-18038636D02*
X5799234Y-18048160D01*
X5799234Y-18048160D02*
X5780186Y-18057684D01*
X5780186Y-18057684D02*
X5761139Y-18057684D01*
X5761139Y-18057684D02*
X5742091Y-18048160D01*
X5742091Y-18048160D02*
X5732567Y-18038636D01*
X5732567Y-18038636D02*
X5723043Y-18019589D01*
X5723043Y-18019589D02*
X5713520Y-17981493D01*
X5713520Y-17981493D02*
X5713520Y-17933874D01*
X5713520Y-17933874D02*
X5723043Y-17895779D01*
X5723043Y-17895779D02*
X5732567Y-17876731D01*
X5732567Y-17876731D02*
X5742091Y-17867208D01*
X5742091Y-17867208D02*
X5761139Y-17857684D01*
X5913520Y-18057684D02*
X5913520Y-17924350D01*
X5913520Y-17943398D02*
X5923043Y-17933874D01*
X5923043Y-17933874D02*
X5942091Y-17924350D01*
X5942091Y-17924350D02*
X5970663Y-17924350D01*
X5970663Y-17924350D02*
X5989710Y-17933874D01*
X5989710Y-17933874D02*
X5999234Y-17952922D01*
X5999234Y-17952922D02*
X5999234Y-18057684D01*
X5999234Y-17952922D02*
X6008758Y-17933874D01*
X6008758Y-17933874D02*
X6027805Y-17924350D01*
X6027805Y-17924350D02*
X6056377Y-17924350D01*
X6056377Y-17924350D02*
X6075424Y-17933874D01*
X6075424Y-17933874D02*
X6084948Y-17952922D01*
X6084948Y-17952922D02*
X6084948Y-18057684D01*
X6180186Y-18057684D02*
X6180186Y-17924350D01*
X6180186Y-17943398D02*
X6189710Y-17933874D01*
X6189710Y-17933874D02*
X6208758Y-17924350D01*
X6208758Y-17924350D02*
X6237329Y-17924350D01*
X6237329Y-17924350D02*
X6256377Y-17933874D01*
X6256377Y-17933874D02*
X6265901Y-17952922D01*
X6265901Y-17952922D02*
X6265901Y-18057684D01*
X6265901Y-17952922D02*
X6275424Y-17933874D01*
X6275424Y-17933874D02*
X6294472Y-17924350D01*
X6294472Y-17924350D02*
X6323043Y-17924350D01*
X6323043Y-17924350D02*
X6342091Y-17933874D01*
X6342091Y-17933874D02*
X6351615Y-17952922D01*
X6351615Y-17952922D02*
X6351615Y-18057684D01*
X6742091Y-17848160D02*
X6570663Y-18105303D01*
X6999234Y-17857684D02*
X7018282Y-17857684D01*
X7018282Y-17857684D02*
X7037329Y-17867208D01*
X7037329Y-17867208D02*
X7046853Y-17876731D01*
X7046853Y-17876731D02*
X7056377Y-17895779D01*
X7056377Y-17895779D02*
X7065901Y-17933874D01*
X7065901Y-17933874D02*
X7065901Y-17981493D01*
X7065901Y-17981493D02*
X7056377Y-18019589D01*
X7056377Y-18019589D02*
X7046853Y-18038636D01*
X7046853Y-18038636D02*
X7037329Y-18048160D01*
X7037329Y-18048160D02*
X7018282Y-18057684D01*
X7018282Y-18057684D02*
X6999234Y-18057684D01*
X6999234Y-18057684D02*
X6980186Y-18048160D01*
X6980186Y-18048160D02*
X6970663Y-18038636D01*
X6970663Y-18038636D02*
X6961139Y-18019589D01*
X6961139Y-18019589D02*
X6951615Y-17981493D01*
X6951615Y-17981493D02*
X6951615Y-17933874D01*
X6951615Y-17933874D02*
X6961139Y-17895779D01*
X6961139Y-17895779D02*
X6970663Y-17876731D01*
X6970663Y-17876731D02*
X6980186Y-17867208D01*
X6980186Y-17867208D02*
X6999234Y-17857684D01*
X7151615Y-18038636D02*
X7161139Y-18048160D01*
X7161139Y-18048160D02*
X7151615Y-18057684D01*
X7151615Y-18057684D02*
X7142091Y-18048160D01*
X7142091Y-18048160D02*
X7151615Y-18038636D01*
X7151615Y-18038636D02*
X7151615Y-18057684D01*
X7284948Y-17857684D02*
X7303996Y-17857684D01*
X7303996Y-17857684D02*
X7323044Y-17867208D01*
X7323044Y-17867208D02*
X7332567Y-17876731D01*
X7332567Y-17876731D02*
X7342091Y-17895779D01*
X7342091Y-17895779D02*
X7351615Y-17933874D01*
X7351615Y-17933874D02*
X7351615Y-17981493D01*
X7351615Y-17981493D02*
X7342091Y-18019589D01*
X7342091Y-18019589D02*
X7332567Y-18038636D01*
X7332567Y-18038636D02*
X7323044Y-18048160D01*
X7323044Y-18048160D02*
X7303996Y-18057684D01*
X7303996Y-18057684D02*
X7284948Y-18057684D01*
X7284948Y-18057684D02*
X7265901Y-18048160D01*
X7265901Y-18048160D02*
X7256377Y-18038636D01*
X7256377Y-18038636D02*
X7246853Y-18019589D01*
X7246853Y-18019589D02*
X7237329Y-17981493D01*
X7237329Y-17981493D02*
X7237329Y-17933874D01*
X7237329Y-17933874D02*
X7246853Y-17895779D01*
X7246853Y-17895779D02*
X7256377Y-17876731D01*
X7256377Y-17876731D02*
X7265901Y-17867208D01*
X7265901Y-17867208D02*
X7284948Y-17857684D01*
X7418282Y-17857684D02*
X7542091Y-17857684D01*
X7542091Y-17857684D02*
X7475425Y-17933874D01*
X7475425Y-17933874D02*
X7503996Y-17933874D01*
X7503996Y-17933874D02*
X7523044Y-17943398D01*
X7523044Y-17943398D02*
X7532567Y-17952922D01*
X7532567Y-17952922D02*
X7542091Y-17971970D01*
X7542091Y-17971970D02*
X7542091Y-18019589D01*
X7542091Y-18019589D02*
X7532567Y-18038636D01*
X7532567Y-18038636D02*
X7523044Y-18048160D01*
X7523044Y-18048160D02*
X7503996Y-18057684D01*
X7503996Y-18057684D02*
X7446853Y-18057684D01*
X7446853Y-18057684D02*
X7427806Y-18048160D01*
X7427806Y-18048160D02*
X7418282Y-18038636D01*
X7732567Y-18057684D02*
X7618282Y-18057684D01*
X7675425Y-18057684D02*
X7675425Y-17857684D01*
X7675425Y-17857684D02*
X7656377Y-17886255D01*
X7656377Y-17886255D02*
X7637329Y-17905303D01*
X7637329Y-17905303D02*
X7618282Y-17914827D01*
X7913520Y-17857684D02*
X7818282Y-17857684D01*
X7818282Y-17857684D02*
X7808758Y-17952922D01*
X7808758Y-17952922D02*
X7818282Y-17943398D01*
X7818282Y-17943398D02*
X7837329Y-17933874D01*
X7837329Y-17933874D02*
X7884948Y-17933874D01*
X7884948Y-17933874D02*
X7903996Y-17943398D01*
X7903996Y-17943398D02*
X7913520Y-17952922D01*
X7913520Y-17952922D02*
X7923044Y-17971970D01*
X7923044Y-17971970D02*
X7923044Y-18019589D01*
X7923044Y-18019589D02*
X7913520Y-18038636D01*
X7913520Y-18038636D02*
X7903996Y-18048160D01*
X7903996Y-18048160D02*
X7884948Y-18057684D01*
X7884948Y-18057684D02*
X7837329Y-18057684D01*
X7837329Y-18057684D02*
X7818282Y-18048160D01*
X7818282Y-18048160D02*
X7808758Y-18038636D01*
X7999234Y-17857684D02*
X7999234Y-17895779D01*
X8075425Y-17857684D02*
X8075425Y-17895779D01*
X8370663Y-18133874D02*
X8361139Y-18124350D01*
X8361139Y-18124350D02*
X8342091Y-18095779D01*
X8342091Y-18095779D02*
X8332568Y-18076731D01*
X8332568Y-18076731D02*
X8323044Y-18048160D01*
X8323044Y-18048160D02*
X8313520Y-18000541D01*
X8313520Y-18000541D02*
X8313520Y-17962446D01*
X8313520Y-17962446D02*
X8323044Y-17914827D01*
X8323044Y-17914827D02*
X8332568Y-17886255D01*
X8332568Y-17886255D02*
X8342091Y-17867208D01*
X8342091Y-17867208D02*
X8361139Y-17838636D01*
X8361139Y-17838636D02*
X8370663Y-17829112D01*
X8532568Y-17924350D02*
X8532568Y-18057684D01*
X8484949Y-17848160D02*
X8437330Y-17991017D01*
X8437330Y-17991017D02*
X8561139Y-17991017D01*
X8789711Y-18057684D02*
X8789711Y-17857684D01*
X8875425Y-18057684D02*
X8875425Y-17952922D01*
X8875425Y-17952922D02*
X8865901Y-17933874D01*
X8865901Y-17933874D02*
X8846853Y-17924350D01*
X8846853Y-17924350D02*
X8818282Y-17924350D01*
X8818282Y-17924350D02*
X8799234Y-17933874D01*
X8799234Y-17933874D02*
X8789711Y-17943398D01*
X8999234Y-18057684D02*
X8980187Y-18048160D01*
X8980187Y-18048160D02*
X8970663Y-18038636D01*
X8970663Y-18038636D02*
X8961139Y-18019589D01*
X8961139Y-18019589D02*
X8961139Y-17962446D01*
X8961139Y-17962446D02*
X8970663Y-17943398D01*
X8970663Y-17943398D02*
X8980187Y-17933874D01*
X8980187Y-17933874D02*
X8999234Y-17924350D01*
X8999234Y-17924350D02*
X9027806Y-17924350D01*
X9027806Y-17924350D02*
X9046853Y-17933874D01*
X9046853Y-17933874D02*
X9056377Y-17943398D01*
X9056377Y-17943398D02*
X9065901Y-17962446D01*
X9065901Y-17962446D02*
X9065901Y-18019589D01*
X9065901Y-18019589D02*
X9056377Y-18038636D01*
X9056377Y-18038636D02*
X9046853Y-18048160D01*
X9046853Y-18048160D02*
X9027806Y-18057684D01*
X9027806Y-18057684D02*
X8999234Y-18057684D01*
X9180187Y-18057684D02*
X9161139Y-18048160D01*
X9161139Y-18048160D02*
X9151615Y-18029112D01*
X9151615Y-18029112D02*
X9151615Y-17857684D01*
X9332568Y-18048160D02*
X9313520Y-18057684D01*
X9313520Y-18057684D02*
X9275425Y-18057684D01*
X9275425Y-18057684D02*
X9256377Y-18048160D01*
X9256377Y-18048160D02*
X9246853Y-18029112D01*
X9246853Y-18029112D02*
X9246853Y-17952922D01*
X9246853Y-17952922D02*
X9256377Y-17933874D01*
X9256377Y-17933874D02*
X9275425Y-17924350D01*
X9275425Y-17924350D02*
X9313520Y-17924350D01*
X9313520Y-17924350D02*
X9332568Y-17933874D01*
X9332568Y-17933874D02*
X9342092Y-17952922D01*
X9342092Y-17952922D02*
X9342092Y-17971970D01*
X9342092Y-17971970D02*
X9246853Y-17991017D01*
X9418282Y-18048160D02*
X9437330Y-18057684D01*
X9437330Y-18057684D02*
X9475425Y-18057684D01*
X9475425Y-18057684D02*
X9494473Y-18048160D01*
X9494473Y-18048160D02*
X9503996Y-18029112D01*
X9503996Y-18029112D02*
X9503996Y-18019589D01*
X9503996Y-18019589D02*
X9494473Y-18000541D01*
X9494473Y-18000541D02*
X9475425Y-17991017D01*
X9475425Y-17991017D02*
X9446853Y-17991017D01*
X9446853Y-17991017D02*
X9427806Y-17981493D01*
X9427806Y-17981493D02*
X9418282Y-17962446D01*
X9418282Y-17962446D02*
X9418282Y-17952922D01*
X9418282Y-17952922D02*
X9427806Y-17933874D01*
X9427806Y-17933874D02*
X9446853Y-17924350D01*
X9446853Y-17924350D02*
X9475425Y-17924350D01*
X9475425Y-17924350D02*
X9494473Y-17933874D01*
X9570663Y-18133874D02*
X9580187Y-18124350D01*
X9580187Y-18124350D02*
X9599234Y-18095779D01*
X9599234Y-18095779D02*
X9608758Y-18076731D01*
X9608758Y-18076731D02*
X9618282Y-18048160D01*
X9618282Y-18048160D02*
X9627806Y-18000541D01*
X9627806Y-18000541D02*
X9627806Y-17962446D01*
X9627806Y-17962446D02*
X9618282Y-17914827D01*
X9618282Y-17914827D02*
X9608758Y-17886255D01*
X9608758Y-17886255D02*
X9599234Y-17867208D01*
X9599234Y-17867208D02*
X9580187Y-17838636D01*
X9580187Y-17838636D02*
X9570663Y-17829112D01*
D10*
X4745600Y-18280200D02*
X4795600Y-18230200D01*
X4745600Y-18180200D01*
X4695600Y-18230200D01*
X4745600Y-18280200D01*
D11*
X5161139Y-18321684D02*
X5046853Y-18321684D01*
X5103996Y-18321684D02*
X5103996Y-18121684D01*
X5103996Y-18121684D02*
X5084948Y-18150255D01*
X5084948Y-18150255D02*
X5065901Y-18169303D01*
X5065901Y-18169303D02*
X5046853Y-18178827D01*
X5246853Y-18302636D02*
X5256377Y-18312160D01*
X5256377Y-18312160D02*
X5246853Y-18321684D01*
X5246853Y-18321684D02*
X5237329Y-18312160D01*
X5237329Y-18312160D02*
X5246853Y-18302636D01*
X5246853Y-18302636D02*
X5246853Y-18321684D01*
X5380186Y-18121684D02*
X5399234Y-18121684D01*
X5399234Y-18121684D02*
X5418282Y-18131208D01*
X5418282Y-18131208D02*
X5427805Y-18140731D01*
X5427805Y-18140731D02*
X5437329Y-18159779D01*
X5437329Y-18159779D02*
X5446853Y-18197874D01*
X5446853Y-18197874D02*
X5446853Y-18245493D01*
X5446853Y-18245493D02*
X5437329Y-18283589D01*
X5437329Y-18283589D02*
X5427805Y-18302636D01*
X5427805Y-18302636D02*
X5418282Y-18312160D01*
X5418282Y-18312160D02*
X5399234Y-18321684D01*
X5399234Y-18321684D02*
X5380186Y-18321684D01*
X5380186Y-18321684D02*
X5361139Y-18312160D01*
X5361139Y-18312160D02*
X5351615Y-18302636D01*
X5351615Y-18302636D02*
X5342091Y-18283589D01*
X5342091Y-18283589D02*
X5332567Y-18245493D01*
X5332567Y-18245493D02*
X5332567Y-18197874D01*
X5332567Y-18197874D02*
X5342091Y-18159779D01*
X5342091Y-18159779D02*
X5351615Y-18140731D01*
X5351615Y-18140731D02*
X5361139Y-18131208D01*
X5361139Y-18131208D02*
X5380186Y-18121684D01*
X5570663Y-18121684D02*
X5589710Y-18121684D01*
X5589710Y-18121684D02*
X5608758Y-18131208D01*
X5608758Y-18131208D02*
X5618282Y-18140731D01*
X5618282Y-18140731D02*
X5627805Y-18159779D01*
X5627805Y-18159779D02*
X5637329Y-18197874D01*
X5637329Y-18197874D02*
X5637329Y-18245493D01*
X5637329Y-18245493D02*
X5627805Y-18283589D01*
X5627805Y-18283589D02*
X5618282Y-18302636D01*
X5618282Y-18302636D02*
X5608758Y-18312160D01*
X5608758Y-18312160D02*
X5589710Y-18321684D01*
X5589710Y-18321684D02*
X5570663Y-18321684D01*
X5570663Y-18321684D02*
X5551615Y-18312160D01*
X5551615Y-18312160D02*
X5542091Y-18302636D01*
X5542091Y-18302636D02*
X5532567Y-18283589D01*
X5532567Y-18283589D02*
X5523044Y-18245493D01*
X5523044Y-18245493D02*
X5523044Y-18197874D01*
X5523044Y-18197874D02*
X5532567Y-18159779D01*
X5532567Y-18159779D02*
X5542091Y-18140731D01*
X5542091Y-18140731D02*
X5551615Y-18131208D01*
X5551615Y-18131208D02*
X5570663Y-18121684D01*
X5761139Y-18121684D02*
X5780186Y-18121684D01*
X5780186Y-18121684D02*
X5799234Y-18131208D01*
X5799234Y-18131208D02*
X5808758Y-18140731D01*
X5808758Y-18140731D02*
X5818282Y-18159779D01*
X5818282Y-18159779D02*
X5827805Y-18197874D01*
X5827805Y-18197874D02*
X5827805Y-18245493D01*
X5827805Y-18245493D02*
X5818282Y-18283589D01*
X5818282Y-18283589D02*
X5808758Y-18302636D01*
X5808758Y-18302636D02*
X5799234Y-18312160D01*
X5799234Y-18312160D02*
X5780186Y-18321684D01*
X5780186Y-18321684D02*
X5761139Y-18321684D01*
X5761139Y-18321684D02*
X5742091Y-18312160D01*
X5742091Y-18312160D02*
X5732567Y-18302636D01*
X5732567Y-18302636D02*
X5723043Y-18283589D01*
X5723043Y-18283589D02*
X5713520Y-18245493D01*
X5713520Y-18245493D02*
X5713520Y-18197874D01*
X5713520Y-18197874D02*
X5723043Y-18159779D01*
X5723043Y-18159779D02*
X5732567Y-18140731D01*
X5732567Y-18140731D02*
X5742091Y-18131208D01*
X5742091Y-18131208D02*
X5761139Y-18121684D01*
X5913520Y-18321684D02*
X5913520Y-18188350D01*
X5913520Y-18207398D02*
X5923043Y-18197874D01*
X5923043Y-18197874D02*
X5942091Y-18188350D01*
X5942091Y-18188350D02*
X5970663Y-18188350D01*
X5970663Y-18188350D02*
X5989710Y-18197874D01*
X5989710Y-18197874D02*
X5999234Y-18216922D01*
X5999234Y-18216922D02*
X5999234Y-18321684D01*
X5999234Y-18216922D02*
X6008758Y-18197874D01*
X6008758Y-18197874D02*
X6027805Y-18188350D01*
X6027805Y-18188350D02*
X6056377Y-18188350D01*
X6056377Y-18188350D02*
X6075424Y-18197874D01*
X6075424Y-18197874D02*
X6084948Y-18216922D01*
X6084948Y-18216922D02*
X6084948Y-18321684D01*
X6180186Y-18321684D02*
X6180186Y-18188350D01*
X6180186Y-18207398D02*
X6189710Y-18197874D01*
X6189710Y-18197874D02*
X6208758Y-18188350D01*
X6208758Y-18188350D02*
X6237329Y-18188350D01*
X6237329Y-18188350D02*
X6256377Y-18197874D01*
X6256377Y-18197874D02*
X6265901Y-18216922D01*
X6265901Y-18216922D02*
X6265901Y-18321684D01*
X6265901Y-18216922D02*
X6275424Y-18197874D01*
X6275424Y-18197874D02*
X6294472Y-18188350D01*
X6294472Y-18188350D02*
X6323043Y-18188350D01*
X6323043Y-18188350D02*
X6342091Y-18197874D01*
X6342091Y-18197874D02*
X6351615Y-18216922D01*
X6351615Y-18216922D02*
X6351615Y-18321684D01*
X6742091Y-18112160D02*
X6570663Y-18369303D01*
X6999234Y-18121684D02*
X7018282Y-18121684D01*
X7018282Y-18121684D02*
X7037329Y-18131208D01*
X7037329Y-18131208D02*
X7046853Y-18140731D01*
X7046853Y-18140731D02*
X7056377Y-18159779D01*
X7056377Y-18159779D02*
X7065901Y-18197874D01*
X7065901Y-18197874D02*
X7065901Y-18245493D01*
X7065901Y-18245493D02*
X7056377Y-18283589D01*
X7056377Y-18283589D02*
X7046853Y-18302636D01*
X7046853Y-18302636D02*
X7037329Y-18312160D01*
X7037329Y-18312160D02*
X7018282Y-18321684D01*
X7018282Y-18321684D02*
X6999234Y-18321684D01*
X6999234Y-18321684D02*
X6980186Y-18312160D01*
X6980186Y-18312160D02*
X6970663Y-18302636D01*
X6970663Y-18302636D02*
X6961139Y-18283589D01*
X6961139Y-18283589D02*
X6951615Y-18245493D01*
X6951615Y-18245493D02*
X6951615Y-18197874D01*
X6951615Y-18197874D02*
X6961139Y-18159779D01*
X6961139Y-18159779D02*
X6970663Y-18140731D01*
X6970663Y-18140731D02*
X6980186Y-18131208D01*
X6980186Y-18131208D02*
X6999234Y-18121684D01*
X7151615Y-18302636D02*
X7161139Y-18312160D01*
X7161139Y-18312160D02*
X7151615Y-18321684D01*
X7151615Y-18321684D02*
X7142091Y-18312160D01*
X7142091Y-18312160D02*
X7151615Y-18302636D01*
X7151615Y-18302636D02*
X7151615Y-18321684D01*
X7284948Y-18121684D02*
X7303996Y-18121684D01*
X7303996Y-18121684D02*
X7323044Y-18131208D01*
X7323044Y-18131208D02*
X7332567Y-18140731D01*
X7332567Y-18140731D02*
X7342091Y-18159779D01*
X7342091Y-18159779D02*
X7351615Y-18197874D01*
X7351615Y-18197874D02*
X7351615Y-18245493D01*
X7351615Y-18245493D02*
X7342091Y-18283589D01*
X7342091Y-18283589D02*
X7332567Y-18302636D01*
X7332567Y-18302636D02*
X7323044Y-18312160D01*
X7323044Y-18312160D02*
X7303996Y-18321684D01*
X7303996Y-18321684D02*
X7284948Y-18321684D01*
X7284948Y-18321684D02*
X7265901Y-18312160D01*
X7265901Y-18312160D02*
X7256377Y-18302636D01*
X7256377Y-18302636D02*
X7246853Y-18283589D01*
X7246853Y-18283589D02*
X7237329Y-18245493D01*
X7237329Y-18245493D02*
X7237329Y-18197874D01*
X7237329Y-18197874D02*
X7246853Y-18159779D01*
X7246853Y-18159779D02*
X7256377Y-18140731D01*
X7256377Y-18140731D02*
X7265901Y-18131208D01*
X7265901Y-18131208D02*
X7284948Y-18121684D01*
X7418282Y-18121684D02*
X7542091Y-18121684D01*
X7542091Y-18121684D02*
X7475425Y-18197874D01*
X7475425Y-18197874D02*
X7503996Y-18197874D01*
X7503996Y-18197874D02*
X7523044Y-18207398D01*
X7523044Y-18207398D02*
X7532567Y-18216922D01*
X7532567Y-18216922D02*
X7542091Y-18235970D01*
X7542091Y-18235970D02*
X7542091Y-18283589D01*
X7542091Y-18283589D02*
X7532567Y-18302636D01*
X7532567Y-18302636D02*
X7523044Y-18312160D01*
X7523044Y-18312160D02*
X7503996Y-18321684D01*
X7503996Y-18321684D02*
X7446853Y-18321684D01*
X7446853Y-18321684D02*
X7427806Y-18312160D01*
X7427806Y-18312160D02*
X7418282Y-18302636D01*
X7637329Y-18321684D02*
X7675425Y-18321684D01*
X7675425Y-18321684D02*
X7694472Y-18312160D01*
X7694472Y-18312160D02*
X7703996Y-18302636D01*
X7703996Y-18302636D02*
X7723044Y-18274065D01*
X7723044Y-18274065D02*
X7732567Y-18235970D01*
X7732567Y-18235970D02*
X7732567Y-18159779D01*
X7732567Y-18159779D02*
X7723044Y-18140731D01*
X7723044Y-18140731D02*
X7713520Y-18131208D01*
X7713520Y-18131208D02*
X7694472Y-18121684D01*
X7694472Y-18121684D02*
X7656377Y-18121684D01*
X7656377Y-18121684D02*
X7637329Y-18131208D01*
X7637329Y-18131208D02*
X7627806Y-18140731D01*
X7627806Y-18140731D02*
X7618282Y-18159779D01*
X7618282Y-18159779D02*
X7618282Y-18207398D01*
X7618282Y-18207398D02*
X7627806Y-18226446D01*
X7627806Y-18226446D02*
X7637329Y-18235970D01*
X7637329Y-18235970D02*
X7656377Y-18245493D01*
X7656377Y-18245493D02*
X7694472Y-18245493D01*
X7694472Y-18245493D02*
X7713520Y-18235970D01*
X7713520Y-18235970D02*
X7723044Y-18226446D01*
X7723044Y-18226446D02*
X7732567Y-18207398D01*
X7903996Y-18188350D02*
X7903996Y-18321684D01*
X7856377Y-18112160D02*
X7808758Y-18255017D01*
X7808758Y-18255017D02*
X7932567Y-18255017D01*
X7999234Y-18121684D02*
X7999234Y-18159779D01*
X8075425Y-18121684D02*
X8075425Y-18159779D01*
X8370663Y-18397874D02*
X8361139Y-18388350D01*
X8361139Y-18388350D02*
X8342091Y-18359779D01*
X8342091Y-18359779D02*
X8332568Y-18340731D01*
X8332568Y-18340731D02*
X8323044Y-18312160D01*
X8323044Y-18312160D02*
X8313520Y-18264541D01*
X8313520Y-18264541D02*
X8313520Y-18226446D01*
X8313520Y-18226446D02*
X8323044Y-18178827D01*
X8323044Y-18178827D02*
X8332568Y-18150255D01*
X8332568Y-18150255D02*
X8342091Y-18131208D01*
X8342091Y-18131208D02*
X8361139Y-18102636D01*
X8361139Y-18102636D02*
X8370663Y-18093112D01*
X8551615Y-18321684D02*
X8437330Y-18321684D01*
X8494472Y-18321684D02*
X8494472Y-18121684D01*
X8494472Y-18121684D02*
X8475425Y-18150255D01*
X8475425Y-18150255D02*
X8456377Y-18169303D01*
X8456377Y-18169303D02*
X8437330Y-18178827D01*
X8723044Y-18121684D02*
X8684949Y-18121684D01*
X8684949Y-18121684D02*
X8665901Y-18131208D01*
X8665901Y-18131208D02*
X8656377Y-18140731D01*
X8656377Y-18140731D02*
X8637330Y-18169303D01*
X8637330Y-18169303D02*
X8627806Y-18207398D01*
X8627806Y-18207398D02*
X8627806Y-18283589D01*
X8627806Y-18283589D02*
X8637330Y-18302636D01*
X8637330Y-18302636D02*
X8646853Y-18312160D01*
X8646853Y-18312160D02*
X8665901Y-18321684D01*
X8665901Y-18321684D02*
X8703996Y-18321684D01*
X8703996Y-18321684D02*
X8723044Y-18312160D01*
X8723044Y-18312160D02*
X8732568Y-18302636D01*
X8732568Y-18302636D02*
X8742091Y-18283589D01*
X8742091Y-18283589D02*
X8742091Y-18235970D01*
X8742091Y-18235970D02*
X8732568Y-18216922D01*
X8732568Y-18216922D02*
X8723044Y-18207398D01*
X8723044Y-18207398D02*
X8703996Y-18197874D01*
X8703996Y-18197874D02*
X8665901Y-18197874D01*
X8665901Y-18197874D02*
X8646853Y-18207398D01*
X8646853Y-18207398D02*
X8637330Y-18216922D01*
X8637330Y-18216922D02*
X8627806Y-18235970D01*
X8980187Y-18321684D02*
X8980187Y-18121684D01*
X9065901Y-18321684D02*
X9065901Y-18216922D01*
X9065901Y-18216922D02*
X9056377Y-18197874D01*
X9056377Y-18197874D02*
X9037330Y-18188350D01*
X9037330Y-18188350D02*
X9008758Y-18188350D01*
X9008758Y-18188350D02*
X8989711Y-18197874D01*
X8989711Y-18197874D02*
X8980187Y-18207398D01*
X9189711Y-18321684D02*
X9170663Y-18312160D01*
X9170663Y-18312160D02*
X9161139Y-18302636D01*
X9161139Y-18302636D02*
X9151615Y-18283589D01*
X9151615Y-18283589D02*
X9151615Y-18226446D01*
X9151615Y-18226446D02*
X9161139Y-18207398D01*
X9161139Y-18207398D02*
X9170663Y-18197874D01*
X9170663Y-18197874D02*
X9189711Y-18188350D01*
X9189711Y-18188350D02*
X9218282Y-18188350D01*
X9218282Y-18188350D02*
X9237330Y-18197874D01*
X9237330Y-18197874D02*
X9246853Y-18207398D01*
X9246853Y-18207398D02*
X9256377Y-18226446D01*
X9256377Y-18226446D02*
X9256377Y-18283589D01*
X9256377Y-18283589D02*
X9246853Y-18302636D01*
X9246853Y-18302636D02*
X9237330Y-18312160D01*
X9237330Y-18312160D02*
X9218282Y-18321684D01*
X9218282Y-18321684D02*
X9189711Y-18321684D01*
X9370663Y-18321684D02*
X9351615Y-18312160D01*
X9351615Y-18312160D02*
X9342092Y-18293112D01*
X9342092Y-18293112D02*
X9342092Y-18121684D01*
X9523044Y-18312160D02*
X9503996Y-18321684D01*
X9503996Y-18321684D02*
X9465901Y-18321684D01*
X9465901Y-18321684D02*
X9446853Y-18312160D01*
X9446853Y-18312160D02*
X9437330Y-18293112D01*
X9437330Y-18293112D02*
X9437330Y-18216922D01*
X9437330Y-18216922D02*
X9446853Y-18197874D01*
X9446853Y-18197874D02*
X9465901Y-18188350D01*
X9465901Y-18188350D02*
X9503996Y-18188350D01*
X9503996Y-18188350D02*
X9523044Y-18197874D01*
X9523044Y-18197874D02*
X9532568Y-18216922D01*
X9532568Y-18216922D02*
X9532568Y-18235970D01*
X9532568Y-18235970D02*
X9437330Y-18255017D01*
X9608758Y-18312160D02*
X9627806Y-18321684D01*
X9627806Y-18321684D02*
X9665901Y-18321684D01*
X9665901Y-18321684D02*
X9684949Y-18312160D01*
X9684949Y-18312160D02*
X9694473Y-18293112D01*
X9694473Y-18293112D02*
X9694473Y-18283589D01*
X9694473Y-18283589D02*
X9684949Y-18264541D01*
X9684949Y-18264541D02*
X9665901Y-18255017D01*
X9665901Y-18255017D02*
X9637330Y-18255017D01*
X9637330Y-18255017D02*
X9618282Y-18245493D01*
X9618282Y-18245493D02*
X9608758Y-18226446D01*
X9608758Y-18226446D02*
X9608758Y-18216922D01*
X9608758Y-18216922D02*
X9618282Y-18197874D01*
X9618282Y-18197874D02*
X9637330Y-18188350D01*
X9637330Y-18188350D02*
X9665901Y-18188350D01*
X9665901Y-18188350D02*
X9684949Y-18197874D01*
X9761139Y-18397874D02*
X9770663Y-18388350D01*
X9770663Y-18388350D02*
X9789711Y-18359779D01*
X9789711Y-18359779D02*
X9799234Y-18340731D01*
X9799234Y-18340731D02*
X9808758Y-18312160D01*
X9808758Y-18312160D02*
X9818282Y-18264541D01*
X9818282Y-18264541D02*
X9818282Y-18226446D01*
X9818282Y-18226446D02*
X9808758Y-18178827D01*
X9808758Y-18178827D02*
X9799234Y-18150255D01*
X9799234Y-18150255D02*
X9789711Y-18131208D01*
X9789711Y-18131208D02*
X9770663Y-18102636D01*
X9770663Y-18102636D02*
X9761139Y-18093112D01*
M02*
