%TF.GenerationSoftware,KiCad,Pcbnew,8.0.4*%
%TF.CreationDate,2025-07-07T11:58:56-07:00*%
%TF.ProjectId,board,626f6172-642e-46b6-9963-61645f706362,rev?*%
%TF.SameCoordinates,Original*%
%TF.FileFunction,Soldermask,Top*%
%TF.FilePolarity,Negative*%
%FSLAX46Y46*%
G04 Gerber Fmt 4.6, Leading zero omitted, Abs format (unit mm)*
G04 Created by KiCad (PCBNEW 8.0.4) date 2025-07-07 11:58:56*
%MOMM*%
%LPD*%
G01*
G04 APERTURE LIST*
G04 Aperture macros list*
%AMRoundRect*
0 Rectangle with rounded corners*
0 $1 Rounding radius*
0 $2 $3 $4 $5 $6 $7 $8 $9 X,Y pos of 4 corners*
0 Add a 4 corners polygon primitive as box body*
4,1,4,$2,$3,$4,$5,$6,$7,$8,$9,$2,$3,0*
0 Add four circle primitives for the rounded corners*
1,1,$1+$1,$2,$3*
1,1,$1+$1,$4,$5*
1,1,$1+$1,$6,$7*
1,1,$1+$1,$8,$9*
0 Add four rect primitives between the rounded corners*
20,1,$1+$1,$2,$3,$4,$5,0*
20,1,$1+$1,$4,$5,$6,$7,0*
20,1,$1+$1,$6,$7,$8,$9,0*
20,1,$1+$1,$8,$9,$2,$3,0*%
%AMOutline5P*
0 Free polygon, 5 corners , with rotation*
0 The origin of the aperture is its center*
0 number of corners: always 5*
0 $1 to $10 corner X, Y*
0 $11 Rotation angle, in degrees counterclockwise*
0 create outline with 5 corners*
4,1,5,$1,$2,$3,$4,$5,$6,$7,$8,$9,$10,$1,$2,$11*%
%AMOutline6P*
0 Free polygon, 6 corners , with rotation*
0 The origin of the aperture is its center*
0 number of corners: always 6*
0 $1 to $12 corner X, Y*
0 $13 Rotation angle, in degrees counterclockwise*
0 create outline with 6 corners*
4,1,6,$1,$2,$3,$4,$5,$6,$7,$8,$9,$10,$11,$12,$1,$2,$13*%
%AMOutline7P*
0 Free polygon, 7 corners , with rotation*
0 The origin of the aperture is its center*
0 number of corners: always 7*
0 $1 to $14 corner X, Y*
0 $15 Rotation angle, in degrees counterclockwise*
0 create outline with 7 corners*
4,1,7,$1,$2,$3,$4,$5,$6,$7,$8,$9,$10,$11,$12,$13,$14,$1,$2,$15*%
%AMOutline8P*
0 Free polygon, 8 corners , with rotation*
0 The origin of the aperture is its center*
0 number of corners: always 8*
0 $1 to $16 corner X, Y*
0 $17 Rotation angle, in degrees counterclockwise*
0 create outline with 8 corners*
4,1,8,$1,$2,$3,$4,$5,$6,$7,$8,$9,$10,$11,$12,$13,$14,$15,$16,$1,$2,$17*%
G04 Aperture macros list end*
%ADD10R,1.980000X3.960000*%
%ADD11O,1.980000X3.960000*%
%ADD12RoundRect,0.237500X0.300000X0.237500X-0.300000X0.237500X-0.300000X-0.237500X0.300000X-0.237500X0*%
%ADD13R,3.000000X3.000000*%
%ADD14C,3.000000*%
%ADD15R,3.960000X1.980000*%
%ADD16O,3.960000X1.980000*%
%ADD17RoundRect,0.250000X2.050000X0.300000X-2.050000X0.300000X-2.050000X-0.300000X2.050000X-0.300000X0*%
%ADD18RoundRect,0.250002X4.449998X5.149998X-4.449998X5.149998X-4.449998X-5.149998X4.449998X-5.149998X0*%
%ADD19C,1.600000*%
%ADD20RoundRect,0.160000X-0.197500X-0.160000X0.197500X-0.160000X0.197500X0.160000X-0.197500X0.160000X0*%
%ADD21R,1.750000X0.450000*%
%ADD22C,2.100000*%
%ADD23R,1.600000X1.600000*%
%ADD24O,1.600000X1.600000*%
%ADD25RoundRect,0.160000X0.160000X-0.197500X0.160000X0.197500X-0.160000X0.197500X-0.160000X-0.197500X0*%
%ADD26RoundRect,0.155000X0.212500X0.155000X-0.212500X0.155000X-0.212500X-0.155000X0.212500X-0.155000X0*%
%ADD27RoundRect,0.237500X0.237500X-0.300000X0.237500X0.300000X-0.237500X0.300000X-0.237500X-0.300000X0*%
%ADD28RoundRect,0.250000X-0.650000X0.412500X-0.650000X-0.412500X0.650000X-0.412500X0.650000X0.412500X0*%
%ADD29RoundRect,0.250000X0.412500X0.650000X-0.412500X0.650000X-0.412500X-0.650000X0.412500X-0.650000X0*%
%ADD30R,2.400000X1.500000*%
%ADD31RoundRect,0.160000X-0.160000X0.197500X-0.160000X-0.197500X0.160000X-0.197500X0.160000X0.197500X0*%
%ADD32RoundRect,0.237500X-0.237500X0.300000X-0.237500X-0.300000X0.237500X-0.300000X0.237500X0.300000X0*%
%ADD33O,3.204000X1.704000*%
%ADD34RoundRect,0.237500X-0.237500X0.250000X-0.237500X-0.250000X0.237500X-0.250000X0.237500X0.250000X0*%
%ADD35RoundRect,0.250000X-0.450000X0.325000X-0.450000X-0.325000X0.450000X-0.325000X0.450000X0.325000X0*%
%ADD36RoundRect,0.155000X0.155000X-0.212500X0.155000X0.212500X-0.155000X0.212500X-0.155000X-0.212500X0*%
%ADD37RoundRect,0.250000X-0.450000X0.350000X-0.450000X-0.350000X0.450000X-0.350000X0.450000X0.350000X0*%
%ADD38R,0.254000X0.457200*%
%ADD39R,0.330200X0.254000*%
%ADD40R,0.457200X0.254000*%
%ADD41Outline5P,-0.653500X1.291600X-0.392100X1.553000X0.653500X1.553000X0.653500X-1.553000X-0.653500X-1.553000X90.000000*%
%ADD42R,3.099000X0.950000*%
%ADD43R,3.200000X3.200000*%
%ADD44O,3.200000X3.200000*%
G04 APERTURE END LIST*
D10*
%TO.C,J1*%
X59685000Y-160500000D03*
D11*
X64685000Y-160500000D03*
%TD*%
D12*
%TO.C,C6*%
X96562500Y-141600000D03*
X94837500Y-141600000D03*
%TD*%
D13*
%TO.C,J7*%
X97200000Y-160550000D03*
D14*
X102280000Y-160550000D03*
X107360000Y-160550000D03*
X112440000Y-160550000D03*
X117520000Y-160550000D03*
X122600000Y-160550000D03*
X127680000Y-160550000D03*
X132760000Y-160550000D03*
%TD*%
D10*
%TO.C,J10*%
X76250000Y-160600000D03*
D11*
X81250000Y-160600000D03*
X86250000Y-160600000D03*
%TD*%
D15*
%TO.C,J5*%
X58750000Y-87550000D03*
D16*
X58750000Y-92550000D03*
X58750000Y-97550000D03*
%TD*%
D17*
%TO.C,U2*%
X89500000Y-139550000D03*
X89500000Y-137850000D03*
X89500000Y-136150000D03*
D18*
X80350000Y-136150000D03*
D17*
X89500000Y-134450000D03*
X89500000Y-132750000D03*
%TD*%
D19*
%TO.C,REF\u002A\u002A*%
X103300000Y-139300000D03*
%TD*%
D20*
%TO.C,R3*%
X120550000Y-146300000D03*
X121745000Y-146300000D03*
%TD*%
D21*
%TO.C,U1*%
X121400000Y-118100000D03*
X121400000Y-117450000D03*
X121400000Y-116800000D03*
X121400000Y-116150000D03*
X121400000Y-115500000D03*
X121400000Y-114850000D03*
X121400000Y-114200000D03*
X121400000Y-113550000D03*
X121400000Y-112900000D03*
X121400000Y-112250000D03*
X121400000Y-111600000D03*
X121400000Y-110950000D03*
X114200000Y-110950000D03*
X114200000Y-111600000D03*
X114200000Y-112250000D03*
X114200000Y-112900000D03*
X114200000Y-113550000D03*
X114200000Y-114200000D03*
X114200000Y-114850000D03*
X114200000Y-115500000D03*
X114200000Y-116150000D03*
X114200000Y-116800000D03*
X114200000Y-117450000D03*
X114200000Y-118100000D03*
%TD*%
D22*
%TO.C,REF\u002A\u002A*%
X132750000Y-54250000D03*
%TD*%
D23*
%TO.C,A1*%
X79035000Y-69750000D03*
D24*
X79035000Y-72290000D03*
X79035000Y-74830000D03*
X79035000Y-77370000D03*
X79035000Y-79910000D03*
X79035000Y-82450000D03*
X79035000Y-84990000D03*
X79035000Y-87530000D03*
X79035000Y-90070000D03*
X79035000Y-92610000D03*
X79035000Y-95150000D03*
X79035000Y-97690000D03*
X79035000Y-100230000D03*
X79035000Y-102770000D03*
X79035000Y-105310000D03*
X94275000Y-105310000D03*
X94275000Y-102770000D03*
X94275000Y-100230000D03*
X94275000Y-97690000D03*
X94275000Y-95150000D03*
X94275000Y-92610000D03*
X94275000Y-90070000D03*
X94275000Y-87530000D03*
X94275000Y-84990000D03*
X94275000Y-82450000D03*
X94275000Y-79910000D03*
X94275000Y-77370000D03*
X94275000Y-74830000D03*
X94275000Y-72290000D03*
X94275000Y-69750000D03*
%TD*%
D13*
%TO.C,J4*%
X132750000Y-99200000D03*
D14*
X132750000Y-94120000D03*
X132750000Y-89040000D03*
X132750000Y-83960000D03*
X132750000Y-78880000D03*
X132750000Y-73800000D03*
%TD*%
D13*
%TO.C,J2*%
X132750000Y-135150000D03*
D14*
X132750000Y-130070000D03*
X132750000Y-124990000D03*
X132750000Y-119910000D03*
X132750000Y-114830000D03*
X132750000Y-109750000D03*
%TD*%
D25*
%TO.C,R5*%
X117000000Y-143247500D03*
X117000000Y-142052500D03*
%TD*%
D13*
%TO.C,J8*%
X58800000Y-124230000D03*
D14*
X58800000Y-129310000D03*
X58800000Y-134390000D03*
X58800000Y-139470000D03*
X58800000Y-144550000D03*
%TD*%
D26*
%TO.C,C8*%
X109850000Y-131162500D03*
X108715000Y-131162500D03*
%TD*%
D22*
%TO.C,REF\u002A\u002A*%
X132750000Y-147250000D03*
%TD*%
D27*
%TO.C,C10*%
X120100000Y-137175000D03*
X120100000Y-135450000D03*
%TD*%
D28*
%TO.C,C9*%
X117750000Y-128587500D03*
X117750000Y-131712500D03*
%TD*%
D29*
%TO.C,C2*%
X106750000Y-115450000D03*
X103625000Y-115450000D03*
%TD*%
D15*
%TO.C,J3*%
X58800000Y-68750000D03*
D16*
X58800000Y-73750000D03*
%TD*%
D30*
%TO.C,L1*%
X97550000Y-136800000D03*
X97550000Y-131300000D03*
%TD*%
D31*
%TO.C,R7*%
X108500000Y-135205000D03*
X108500000Y-136400000D03*
%TD*%
D32*
%TO.C,C12*%
X106000000Y-142737500D03*
X106000000Y-144462500D03*
%TD*%
D10*
%TO.C,J12*%
X92750000Y-54450000D03*
D11*
X87750000Y-54450000D03*
X82750000Y-54450000D03*
%TD*%
D33*
%TO.C,ACC1*%
X103950000Y-95160000D03*
X103950000Y-82460000D03*
X103950000Y-97700000D03*
X103950000Y-85000000D03*
X103950000Y-87540000D03*
X103950000Y-79920000D03*
X103950000Y-92620000D03*
X103950000Y-90080000D03*
%TD*%
D29*
%TO.C,C4*%
X109975000Y-120000000D03*
X106850000Y-120000000D03*
%TD*%
D34*
%TO.C,R1*%
X109650000Y-142737500D03*
X109650000Y-144562500D03*
%TD*%
D35*
%TO.C,L2*%
X113550000Y-129362500D03*
X113550000Y-131412500D03*
%TD*%
D36*
%TO.C,C1*%
X110500000Y-115517500D03*
X110500000Y-114382500D03*
%TD*%
D37*
%TO.C,R4*%
X117000000Y-146600000D03*
X117000000Y-148600000D03*
%TD*%
D26*
%TO.C,C11*%
X109950000Y-139500000D03*
X108815000Y-139500000D03*
%TD*%
D22*
%TO.C,REF\u002A\u002A*%
X58800000Y-111000000D03*
%TD*%
D34*
%TO.C,R2*%
X113250000Y-142300000D03*
X113250000Y-144125000D03*
%TD*%
D10*
%TO.C,J6*%
X65120000Y-54350000D03*
D11*
X60120000Y-54350000D03*
%TD*%
D38*
%TO.C,U3*%
X113711550Y-138987500D03*
X114211930Y-138987500D03*
X114712310Y-138987500D03*
X115212690Y-138987500D03*
X115713070Y-138987500D03*
X116213450Y-138987500D03*
D39*
X116850990Y-138413450D03*
X116850990Y-137913070D03*
X116850990Y-137412690D03*
X116850990Y-136411930D03*
X116850990Y-135911550D03*
D38*
X116213450Y-135337500D03*
X115713070Y-135337500D03*
X115212690Y-135337500D03*
X114712310Y-135337500D03*
X114211930Y-135337500D03*
X113711550Y-135337500D03*
D40*
X113137510Y-135911550D03*
X113137510Y-136411930D03*
X113137510Y-136912310D03*
X113137510Y-137412690D03*
X113137510Y-137913070D03*
X113137510Y-138413450D03*
D41*
X115132500Y-137822500D03*
D42*
X115132500Y-136322500D03*
%TD*%
D23*
%TO.C,C5*%
X96550000Y-146600000D03*
D19*
X94050000Y-146600000D03*
%TD*%
D43*
%TO.C,D1*%
X85200000Y-146650000D03*
D44*
X69960000Y-146650000D03*
%TD*%
D20*
%TO.C,R6*%
X111500000Y-140500000D03*
X112695000Y-140500000D03*
%TD*%
D10*
%TO.C,J13*%
X119600000Y-54350000D03*
D11*
X114600000Y-54350000D03*
X109600000Y-54350000D03*
%TD*%
D23*
%TO.C,C7*%
X92350000Y-124550000D03*
D19*
X92350000Y-127050000D03*
%TD*%
D26*
%TO.C,C3*%
X109975000Y-123650000D03*
X108840000Y-123650000D03*
%TD*%
M02*
