M48
; DRILL file {KiCad 8.0.4} date 2025-07-07T12:01:14-0700
; FORMAT={-:-/ absolute / metric / decimal}
; #@! TF.CreationDate,2025-07-07T12:01:14-07:00
; #@! TF.GenerationSoftware,Kicad,Pcbnew,8.0.4
; #@! TF.FileFunction,Plated,1,2,PTH
FMAT,2
METRIC
; #@! TA.AperFunction,Plated,PTH,ViaDrill
T1C0.300
; #@! TA.AperFunction,Plated,PTH,ComponentDrill
T2C0.600
; #@! TA.AperFunction,Plated,PTH,ComponentDrill
T3C0.800
; #@! TA.AperFunction,Plated,PTH,ComponentDrill
T4C1.000
; #@! TA.AperFunction,Plated,PTH,ComponentDrill
T5C1.320
; #@! TA.AperFunction,Plated,PTH,ComponentDrill
T6C1.520
; #@! TA.AperFunction,Plated,PTH,ComponentDrill
T7C1.600
%
G90
G05
T1
X77.4Y-154.2
X85.05Y-88.8
X85.15Y-87.3
X85.15Y-105.26
X85.8Y-96.9
X85.825Y-112.075
X85.85Y-89.5
X85.85Y-105.85
X85.85Y-106.95
X86.85Y-84.763
X87.9Y-88.1
X88.95Y-88.8
X88.95Y-91.35
X88.95Y-98.95
X88.95Y-115.2
X88.975Y-110.075
X88.975Y-111.175
X89.0Y-112.25
X90.55Y-81.067
X91.175Y-88.8
X91.175Y-91.35
X91.8Y-81.3
X91.8Y-78.35
X92.6Y-77.45
X92.6Y-81.5
X93.225Y-88.8
X94.0Y-143.4
X94.8Y-112.257
X94.8Y-113.2
X94.8Y-117.05
X96.55Y-118.65
X96.55Y-123.9
X96.6Y-96.9
X96.75Y-114.4
X96.8Y-88.8
X96.8Y-92.625
X96.8Y-100.05
X97.85Y-143.4
X98.3Y-88.8
X98.3Y-91.35
X98.3Y-98.45
X98.3Y-101.525
X98.35Y-94.15
X98.55Y-117.05
X98.607Y-124.957
X98.75Y-118.65
X99.2Y-150.95
X99.975Y-114.425
X100.0Y-85.0
X101.2Y-113.2
X101.88Y-116.32
X102.007Y-112.257
X102.05Y-118.65
X102.65Y-104.55
X103.3Y-151.2
X103.3Y-156.55
X103.6Y-117.05
X103.65Y-115.45
X104.675Y-134.525
X105.032Y-118.657
X105.268Y-106.168
X105.607Y-117.957
X106.0Y-144.45
X106.05Y-151.45
X106.193Y-105.243
X106.65Y-117.05
X106.682Y-107.582
X106.85Y-120.0
X107.45Y-139.0
X107.607Y-106.657
X108.332Y-105.932
X108.5Y-135.2
X108.8Y-139.5
X108.85Y-123.65
X109.1Y-140.5
X110.0Y-123.675
X110.0Y-127.1
X110.5Y-114.4
X110.7Y-111.5
X111.1Y-156.5
X111.4Y-110.45
X112.175Y-112.975
X112.6Y-123.9
X113.25Y-144.15
X115.4Y-133.0
X115.5Y-112.9
X115.5Y-114.2
X116.2Y-143.8
X116.9Y-88.8
X116.9Y-91.35
X116.9Y-109.5
X117.0Y-146.6
X117.0Y-148.6
X118.0Y-101.3
X118.0Y-104.85
X119.1Y-88.8
X119.1Y-91.35
X123.55Y-110.2
X125.475Y-115.425
X125.9Y-108.95
X126.95Y-124.0
X126.95Y-127.15
X127.15Y-112.4
X128.65Y-108.95
T2
X103.3Y-139.3
T3
X92.35Y-124.55
X92.35Y-127.05
X94.05Y-146.6
X96.55Y-146.6
T4
X79.035Y-69.75
X79.035Y-72.29
X79.035Y-74.83
X79.035Y-77.37
X79.035Y-79.91
X79.035Y-82.45
X79.035Y-84.99
X79.035Y-87.53
X79.035Y-90.07
X79.035Y-92.61
X79.035Y-95.15
X79.035Y-97.69
X79.035Y-100.23
X79.035Y-102.77
X79.035Y-105.31
X94.275Y-69.75
X94.275Y-72.29
X94.275Y-74.83
X94.275Y-77.37
X94.275Y-79.91
X94.275Y-82.45
X94.275Y-84.99
X94.275Y-87.53
X94.275Y-90.07
X94.275Y-92.61
X94.275Y-95.15
X94.275Y-97.69
X94.275Y-100.23
X94.275Y-102.77
X94.275Y-105.31
X103.95Y-79.92
X103.95Y-82.46
X103.95Y-85.0
X103.95Y-87.54
X103.95Y-90.08
X103.95Y-92.62
X103.95Y-95.16
X103.95Y-97.7
T5
X58.75Y-87.55
X58.75Y-92.55
X58.75Y-97.55
X58.8Y-68.75
X58.8Y-73.75
X59.685Y-160.5
X60.12Y-54.35
X64.685Y-160.5
X65.12Y-54.35
X76.25Y-160.6
X81.25Y-160.6
X82.75Y-54.45
X86.25Y-160.6
X87.75Y-54.45
X92.75Y-54.45
X109.6Y-54.35
X114.6Y-54.35
X119.6Y-54.35
T6
X58.8Y-124.23
X58.8Y-129.31
X58.8Y-134.39
X58.8Y-139.47
X58.8Y-144.55
X97.2Y-160.55
X102.28Y-160.55
X107.36Y-160.55
X112.44Y-160.55
X117.52Y-160.55
X122.6Y-160.55
X127.68Y-160.55
X132.75Y-73.8
X132.75Y-78.88
X132.75Y-83.96
X132.75Y-89.04
X132.75Y-94.12
X132.75Y-99.2
X132.75Y-109.75
X132.75Y-114.83
X132.75Y-119.91
X132.75Y-124.99
X132.75Y-130.07
X132.75Y-135.15
X132.76Y-160.55
T7
X69.96Y-146.65
X85.2Y-146.65
M30
