%TF.GenerationSoftware,KiCad,Pcbnew,8.0.4*%
%TF.CreationDate,2025-10-24T14:41:25-04:00*%
%TF.ProjectId,Board,426f6172-642e-46b6-9963-61645f706362,rev?*%
%TF.SameCoordinates,Original*%
%TF.FileFunction,Drillmap*%
%TF.FilePolarity,Positive*%
%FSLAX45Y45*%
G04 Gerber Fmt 4.5, Leading zero omitted, Abs format (unit mm)*
G04 Created by KiCad (PCBNEW 8.0.4) date 2025-10-24 14:41:25*
%MOMM*%
%LPD*%
G01*
G04 APERTURE LIST*
%ADD10C,0.200000*%
%ADD11C,0.100000*%
%ADD12C,0.132000*%
G04 APERTURE END LIST*
D10*
X7498500Y-4805000D02*
X17602500Y-4805000D01*
X17602500Y-13209000D01*
X7498500Y-13209000D01*
X7498500Y-4805000D01*
D11*
X8372000Y-7393500D02*
X8402000Y-7423500D01*
X8402000Y-7393500D02*
X8372000Y-7423500D01*
X9436000Y-10808000D02*
X9466000Y-10838000D01*
X9466000Y-10808000D02*
X9436000Y-10838000D01*
X9451000Y-8363000D02*
X9481000Y-8393000D01*
X9481000Y-8363000D02*
X9451000Y-8393000D01*
X10004000Y-10746000D02*
X10034000Y-10776000D01*
X10034000Y-10746000D02*
X10004000Y-10776000D01*
X10007000Y-10463000D02*
X10037000Y-10493000D01*
X10037000Y-10463000D02*
X10007000Y-10493000D01*
X10009000Y-7784000D02*
X10039000Y-7814000D01*
X10039000Y-7784000D02*
X10009000Y-7814000D01*
X10011000Y-8069000D02*
X10041000Y-8099000D01*
X10041000Y-8069000D02*
X10011000Y-8099000D01*
X10028000Y-5371000D02*
X10058000Y-5401000D01*
X10058000Y-5371000D02*
X10028000Y-5401000D01*
X10032000Y-5094000D02*
X10062000Y-5124000D01*
X10062000Y-5094000D02*
X10032000Y-5124000D01*
X10179000Y-7934000D02*
X10209000Y-7964000D01*
X10209000Y-7934000D02*
X10179000Y-7964000D01*
X10179000Y-10610000D02*
X10209000Y-10640000D01*
X10209000Y-10610000D02*
X10179000Y-10640000D01*
X10191000Y-5223000D02*
X10221000Y-5253000D01*
X10221000Y-5223000D02*
X10191000Y-5253000D01*
X10343000Y-5363000D02*
X10373000Y-5393000D01*
X10373000Y-5363000D02*
X10343000Y-5393000D01*
X10343000Y-10747000D02*
X10373000Y-10777000D01*
X10373000Y-10747000D02*
X10343000Y-10777000D01*
X10345000Y-5099000D02*
X10375000Y-5129000D01*
X10375000Y-5099000D02*
X10345000Y-5129000D01*
X10346000Y-7782000D02*
X10376000Y-7812000D01*
X10376000Y-7782000D02*
X10346000Y-7812000D01*
X10347000Y-8074000D02*
X10377000Y-8104000D01*
X10377000Y-8074000D02*
X10347000Y-8104000D01*
X10353000Y-10459000D02*
X10383000Y-10489000D01*
X10383000Y-10459000D02*
X10353000Y-10489000D01*
X10509000Y-5220000D02*
X10539000Y-5250000D01*
X10539000Y-5220000D02*
X10509000Y-5250000D01*
X10510000Y-10604000D02*
X10540000Y-10634000D01*
X10540000Y-10604000D02*
X10510000Y-10634000D01*
X10511000Y-7931000D02*
X10541000Y-7961000D01*
X10541000Y-7931000D02*
X10511000Y-7961000D01*
X10648000Y-8067000D02*
X10678000Y-8097000D01*
X10678000Y-8067000D02*
X10648000Y-8097000D01*
X10653000Y-5357000D02*
X10683000Y-5387000D01*
X10683000Y-5357000D02*
X10653000Y-5387000D01*
X10653000Y-10747000D02*
X10683000Y-10777000D01*
X10683000Y-10747000D02*
X10653000Y-10777000D01*
X10655000Y-7785000D02*
X10685000Y-7815000D01*
X10685000Y-7785000D02*
X10655000Y-7815000D01*
X10661000Y-10461000D02*
X10691000Y-10491000D01*
X10691000Y-10461000D02*
X10661000Y-10491000D01*
X10664000Y-5091000D02*
X10694000Y-5121000D01*
X10694000Y-5091000D02*
X10664000Y-5121000D01*
X10943000Y-9221000D02*
X10973000Y-9251000D01*
X10973000Y-9221000D02*
X10943000Y-9251000D01*
X10947000Y-6524000D02*
X10977000Y-6554000D01*
X10977000Y-6524000D02*
X10947000Y-6554000D01*
X10963500Y-11909500D02*
X10993500Y-11939500D01*
X10993500Y-11909500D02*
X10963500Y-11939500D01*
X11385000Y-9217000D02*
X11415000Y-9247000D01*
X11415000Y-9217000D02*
X11385000Y-9247000D01*
X11392000Y-11894000D02*
X11422000Y-11924000D01*
X11422000Y-11894000D02*
X11392000Y-11924000D01*
X11424000Y-6519000D02*
X11454000Y-6549000D01*
X11454000Y-6519000D02*
X11424000Y-6549000D01*
X11493000Y-9216000D02*
X11523000Y-9246000D01*
X11523000Y-9216000D02*
X11493000Y-9246000D01*
X11494000Y-11900000D02*
X11524000Y-11930000D01*
X11524000Y-11900000D02*
X11494000Y-11930000D01*
X11525000Y-6518000D02*
X11555000Y-6548000D01*
X11555000Y-6518000D02*
X11525000Y-6548000D01*
X11594000Y-9010000D02*
X11624000Y-9040000D01*
X11624000Y-9010000D02*
X11594000Y-9040000D01*
X11594500Y-12079500D02*
X11624500Y-12109500D01*
X11624500Y-12079500D02*
X11594500Y-12109500D01*
X11595000Y-9117000D02*
X11625000Y-9147000D01*
X11625000Y-9117000D02*
X11595000Y-9147000D01*
X11595000Y-9217000D02*
X11625000Y-9247000D01*
X11625000Y-9217000D02*
X11595000Y-9247000D01*
X11595000Y-11699000D02*
X11625000Y-11729000D01*
X11625000Y-11699000D02*
X11595000Y-11729000D01*
X11596000Y-11800000D02*
X11626000Y-11830000D01*
X11626000Y-11800000D02*
X11596000Y-11830000D01*
X11596000Y-11902000D02*
X11626000Y-11932000D01*
X11626000Y-11902000D02*
X11596000Y-11932000D01*
X11612000Y-9393000D02*
X11642000Y-9423000D01*
X11642000Y-9393000D02*
X11612000Y-9423000D01*
X11613000Y-6657000D02*
X11643000Y-6687000D01*
X11643000Y-6657000D02*
X11613000Y-6687000D01*
X11623000Y-6315000D02*
X11653000Y-6345000D01*
X11653000Y-6315000D02*
X11623000Y-6345000D01*
X11625000Y-6420000D02*
X11655000Y-6450000D01*
X11655000Y-6420000D02*
X11625000Y-6450000D01*
X11625000Y-6521000D02*
X11655000Y-6551000D01*
X11655000Y-6521000D02*
X11625000Y-6551000D01*
X11694000Y-9011000D02*
X11724000Y-9041000D01*
X11724000Y-9011000D02*
X11694000Y-9041000D01*
X11695000Y-9113000D02*
X11725000Y-9143000D01*
X11725000Y-9113000D02*
X11695000Y-9143000D01*
X11695000Y-9218000D02*
X11725000Y-9248000D01*
X11725000Y-9218000D02*
X11695000Y-9248000D01*
X11696000Y-11801000D02*
X11726000Y-11831000D01*
X11726000Y-11801000D02*
X11696000Y-11831000D01*
X11696000Y-11904000D02*
X11726000Y-11934000D01*
X11726000Y-11904000D02*
X11696000Y-11934000D01*
X11698000Y-11699000D02*
X11728000Y-11729000D01*
X11728000Y-11699000D02*
X11698000Y-11729000D01*
X11724000Y-6312000D02*
X11754000Y-6342000D01*
X11754000Y-6312000D02*
X11724000Y-6342000D01*
X11725000Y-6420000D02*
X11755000Y-6450000D01*
X11755000Y-6420000D02*
X11725000Y-6450000D01*
X11726000Y-6521000D02*
X11756000Y-6551000D01*
X11756000Y-6521000D02*
X11726000Y-6551000D01*
X11817000Y-9673000D02*
X11847000Y-9703000D01*
X11847000Y-9673000D02*
X11817000Y-9703000D01*
X11826000Y-6972000D02*
X11856000Y-7002000D01*
X11856000Y-6972000D02*
X11826000Y-7002000D01*
X12049000Y-11910000D02*
X12079000Y-11940000D01*
X12079000Y-11910000D02*
X12049000Y-11940000D01*
X12552000Y-11897000D02*
X12582000Y-11927000D01*
X12582000Y-11897000D02*
X12552000Y-11927000D01*
X13140000Y-6696000D02*
X13170000Y-6726000D01*
X13170000Y-6696000D02*
X13140000Y-6726000D01*
X13146000Y-6373000D02*
X13176000Y-6403000D01*
X13176000Y-6373000D02*
X13146000Y-6403000D01*
X13244000Y-8617000D02*
X13274000Y-8647000D01*
X13274000Y-8617000D02*
X13244000Y-8647000D01*
X13259000Y-8238000D02*
X13289000Y-8268000D01*
X13289000Y-8238000D02*
X13259000Y-8268000D01*
X13367000Y-10049000D02*
X13397000Y-10079000D01*
X13397000Y-10049000D02*
X13367000Y-10079000D01*
X13368000Y-9914000D02*
X13398000Y-9944000D01*
X13398000Y-9914000D02*
X13368000Y-9944000D01*
X13426061Y-10330061D02*
X13456061Y-10360061D01*
X13456061Y-10330061D02*
X13426061Y-10360061D01*
X13485000Y-10518606D02*
X13515000Y-10548606D01*
X13515000Y-10518606D02*
X13485000Y-10548606D01*
X13488000Y-8974000D02*
X13518000Y-9004000D01*
X13518000Y-8974000D02*
X13488000Y-9004000D01*
X13602000Y-9997000D02*
X13632000Y-10027000D01*
X13632000Y-9997000D02*
X13602000Y-10027000D01*
X13603500Y-9129500D02*
X13633500Y-9159500D01*
X13633500Y-9129500D02*
X13603500Y-9159500D01*
X13681000Y-7014000D02*
X13711000Y-7044000D01*
X13711000Y-7014000D02*
X13681000Y-7044000D01*
X13684000Y-6661000D02*
X13714000Y-6691000D01*
X13714000Y-6661000D02*
X13684000Y-6691000D01*
X13714000Y-10398000D02*
X13744000Y-10428000D01*
X13744000Y-10398000D02*
X13714000Y-10428000D01*
X13741000Y-7977000D02*
X13771000Y-8007000D01*
X13771000Y-7977000D02*
X13741000Y-8007000D01*
X13758000Y-7655000D02*
X13788000Y-7685000D01*
X13788000Y-7655000D02*
X13758000Y-7685000D01*
X13958000Y-7656000D02*
X13988000Y-7686000D01*
X13988000Y-7656000D02*
X13958000Y-7686000D01*
X13962000Y-10398000D02*
X13992000Y-10428000D01*
X13992000Y-10398000D02*
X13962000Y-10428000D01*
X14025000Y-8159000D02*
X14055000Y-8189000D01*
X14055000Y-8159000D02*
X14025000Y-8189000D01*
X14142000Y-7653000D02*
X14172000Y-7683000D01*
X14172000Y-7653000D02*
X14142000Y-7683000D01*
X14190000Y-8174000D02*
X14220000Y-8204000D01*
X14220000Y-8174000D02*
X14190000Y-8204000D01*
X14215517Y-8487095D02*
X14245517Y-8517095D01*
X14245517Y-8487095D02*
X14215517Y-8517095D01*
X14278500Y-8952000D02*
X14308500Y-8982000D01*
X14308500Y-8952000D02*
X14278500Y-8982000D01*
X14278806Y-8423806D02*
X14308806Y-8453806D01*
X14308806Y-8423806D02*
X14278806Y-8453806D01*
X14333000Y-8633000D02*
X14363000Y-8663000D01*
X14363000Y-8633000D02*
X14333000Y-8663000D01*
X14341000Y-9691000D02*
X14371000Y-9721000D01*
X14371000Y-9691000D02*
X14341000Y-9721000D01*
X14348000Y-7784000D02*
X14378000Y-7814000D01*
X14378000Y-7784000D02*
X14348000Y-7814000D01*
X14485000Y-9306000D02*
X14515000Y-9336000D01*
X14515000Y-9306000D02*
X14485000Y-9336000D01*
X14492000Y-8136000D02*
X14522000Y-8166000D01*
X14522000Y-8136000D02*
X14492000Y-8166000D01*
X14530000Y-7640500D02*
X14560000Y-7670500D01*
X14560000Y-7640500D02*
X14530000Y-7670500D01*
X14593750Y-10273750D02*
X14623750Y-10303750D01*
X14623750Y-10273750D02*
X14593750Y-10303750D01*
X14610000Y-7640500D02*
X14640000Y-7670500D01*
X14640000Y-7640500D02*
X14610000Y-7670500D01*
X14610000Y-7765500D02*
X14640000Y-7795500D01*
X14640000Y-7765500D02*
X14610000Y-7795500D01*
X14621806Y-7541806D02*
X14651806Y-7571806D01*
X14651806Y-7541806D02*
X14621806Y-7571806D01*
X14624000Y-8278000D02*
X14654000Y-8308000D01*
X14654000Y-8278000D02*
X14624000Y-8308000D01*
X14693000Y-11590000D02*
X14723000Y-11620000D01*
X14723000Y-11590000D02*
X14693000Y-11620000D01*
X14708000Y-8909000D02*
X14738000Y-8939000D01*
X14738000Y-8909000D02*
X14708000Y-8939000D01*
X14771000Y-8686500D02*
X14801000Y-8716500D01*
X14801000Y-8686500D02*
X14771000Y-8716500D01*
X14790000Y-9298500D02*
X14820000Y-9328500D01*
X14820000Y-9298500D02*
X14790000Y-9328500D01*
X14799000Y-9411000D02*
X14829000Y-9441000D01*
X14829000Y-9411000D02*
X14799000Y-9441000D01*
X14833000Y-8269999D02*
X14863000Y-8299999D01*
X14863000Y-8269999D02*
X14833000Y-8299999D01*
X14833000Y-8350000D02*
X14863000Y-8380000D01*
X14863000Y-8350000D02*
X14833000Y-8380000D01*
X14833000Y-8430000D02*
X14863000Y-8460000D01*
X14863000Y-8430000D02*
X14833000Y-8460000D01*
X14847500Y-7767500D02*
X14877500Y-7797500D01*
X14877500Y-7767500D02*
X14847500Y-7797500D01*
X14859500Y-10295000D02*
X14889500Y-10325000D01*
X14889500Y-10295000D02*
X14859500Y-10325000D01*
X14896000Y-11759000D02*
X14926000Y-11789000D01*
X14926000Y-11759000D02*
X14896000Y-11789000D01*
X14900000Y-7981000D02*
X14930000Y-8011000D01*
X14930000Y-7981000D02*
X14900000Y-8011000D01*
X14910056Y-9254944D02*
X14940056Y-9284944D01*
X14940056Y-9254944D02*
X14910056Y-9284944D01*
X14922500Y-10445000D02*
X14952500Y-10475000D01*
X14952500Y-10445000D02*
X14922500Y-10475000D01*
X15064000Y-11619000D02*
X15094000Y-11649000D01*
X15094000Y-11619000D02*
X15064000Y-11649000D01*
X15084000Y-10076000D02*
X15114000Y-10106000D01*
X15114000Y-10076000D02*
X15084000Y-10106000D01*
X15107000Y-7855000D02*
X15137000Y-7885000D01*
X15137000Y-7855000D02*
X15107000Y-7885000D01*
X15113000Y-9043000D02*
X15143000Y-9073000D01*
X15143000Y-9043000D02*
X15113000Y-9073000D01*
X15321000Y-9735000D02*
X15351000Y-9765000D01*
X15351000Y-9735000D02*
X15321000Y-9765000D01*
X15336000Y-9049000D02*
X15366000Y-9079000D01*
X15366000Y-9049000D02*
X15336000Y-9079000D01*
X15435000Y-8985000D02*
X15465000Y-9015000D01*
X15465000Y-8985000D02*
X15435000Y-9015000D01*
X15451416Y-9408000D02*
X15481416Y-9438000D01*
X15481416Y-9408000D02*
X15451416Y-9438000D01*
X15520000Y-6733000D02*
X15550000Y-6763000D01*
X15550000Y-6733000D02*
X15520000Y-6763000D01*
X15521000Y-6396000D02*
X15551000Y-6426000D01*
X15551000Y-6396000D02*
X15521000Y-6426000D01*
X15644000Y-6461000D02*
X15674000Y-6491000D01*
X15674000Y-6461000D02*
X15644000Y-6491000D01*
X15644000Y-6667000D02*
X15674000Y-6697000D01*
X15674000Y-6667000D02*
X15644000Y-6697000D01*
X15715000Y-10969000D02*
X15745000Y-10999000D01*
X15745000Y-10969000D02*
X15715000Y-10999000D01*
X15758000Y-6728000D02*
X15788000Y-6758000D01*
X15788000Y-6728000D02*
X15758000Y-6758000D01*
X15766000Y-6401000D02*
X15796000Y-6431000D01*
X15796000Y-6401000D02*
X15766000Y-6431000D01*
X16246000Y-6561000D02*
X16276000Y-6591000D01*
X16276000Y-6561000D02*
X16246000Y-6591000D01*
X16248000Y-10967000D02*
X16278000Y-10997000D01*
X16278000Y-10967000D02*
X16248000Y-10997000D01*
X16463000Y-7481000D02*
X16493000Y-7511000D01*
X16493000Y-7481000D02*
X16463000Y-7511000D01*
X16467000Y-6390000D02*
X16497000Y-6420000D01*
X16497000Y-6390000D02*
X16467000Y-6420000D01*
X16471000Y-6933000D02*
X16501000Y-6963000D01*
X16501000Y-6933000D02*
X16471000Y-6963000D01*
X16472000Y-8025000D02*
X16502000Y-8055000D01*
X16502000Y-8025000D02*
X16472000Y-8055000D01*
X16474000Y-8572000D02*
X16504000Y-8602000D01*
X16504000Y-8572000D02*
X16474000Y-8602000D01*
X16478000Y-5823000D02*
X16508000Y-5853000D01*
X16508000Y-5823000D02*
X16478000Y-5853000D01*
X16481000Y-9122000D02*
X16511000Y-9152000D01*
X16511000Y-9122000D02*
X16481000Y-9152000D01*
X16483000Y-5273000D02*
X16513000Y-5303000D01*
X16513000Y-5273000D02*
X16483000Y-5303000D01*
X16486000Y-10223000D02*
X16516000Y-10253000D01*
X16516000Y-10223000D02*
X16486000Y-10253000D01*
X16488000Y-9670000D02*
X16518000Y-9700000D01*
X16518000Y-9670000D02*
X16488000Y-9700000D01*
X16490000Y-10783000D02*
X16520000Y-10813000D01*
X16520000Y-10783000D02*
X16490000Y-10813000D01*
X16491000Y-11319000D02*
X16521000Y-11349000D01*
X16521000Y-11319000D02*
X16491000Y-11349000D01*
X16820000Y-6389000D02*
X16850000Y-6419000D01*
X16850000Y-6389000D02*
X16820000Y-6419000D01*
X16821000Y-5823000D02*
X16851000Y-5853000D01*
X16851000Y-5823000D02*
X16821000Y-5853000D01*
X16822000Y-6936000D02*
X16852000Y-6966000D01*
X16852000Y-6936000D02*
X16822000Y-6966000D01*
X16825000Y-7485000D02*
X16855000Y-7515000D01*
X16855000Y-7485000D02*
X16825000Y-7515000D01*
X16826000Y-8024000D02*
X16856000Y-8054000D01*
X16856000Y-8024000D02*
X16826000Y-8054000D01*
X16830000Y-9121000D02*
X16860000Y-9151000D01*
X16860000Y-9121000D02*
X16830000Y-9151000D01*
X16831000Y-8569000D02*
X16861000Y-8599000D01*
X16861000Y-8569000D02*
X16831000Y-8599000D01*
X16834000Y-5265000D02*
X16864000Y-5295000D01*
X16864000Y-5265000D02*
X16834000Y-5295000D01*
X16834000Y-9670000D02*
X16864000Y-9700000D01*
X16864000Y-9670000D02*
X16834000Y-9700000D01*
X16840000Y-11318000D02*
X16870000Y-11348000D01*
X16870000Y-11318000D02*
X16840000Y-11348000D01*
X16841000Y-10225000D02*
X16871000Y-10255000D01*
X16871000Y-10225000D02*
X16841000Y-10255000D01*
X16846000Y-10770000D02*
X16876000Y-10800000D01*
X16876000Y-10770000D02*
X16846000Y-10800000D01*
X17196000Y-10686000D02*
X17226000Y-10716000D01*
X17226000Y-10686000D02*
X17196000Y-10716000D01*
X17196000Y-10983000D02*
X17226000Y-11013000D01*
X17226000Y-10983000D02*
X17196000Y-11013000D01*
X11109000Y-6713500D02*
G75*
G02*
X11079000Y-6713500I-15000J0D01*
G01*
X11079000Y-6713500D02*
G75*
G02*
X11109000Y-6713500I15000J0D01*
G01*
X11109000Y-6848500D02*
G75*
G02*
X11079000Y-6848500I-15000J0D01*
G01*
X11079000Y-6848500D02*
G75*
G02*
X11109000Y-6848500I15000J0D01*
G01*
X11109000Y-6983500D02*
G75*
G02*
X11079000Y-6983500I-15000J0D01*
G01*
X11079000Y-6983500D02*
G75*
G02*
X11109000Y-6983500I15000J0D01*
G01*
X11109000Y-9415000D02*
G75*
G02*
X11079000Y-9415000I-15000J0D01*
G01*
X11079000Y-9415000D02*
G75*
G02*
X11109000Y-9415000I15000J0D01*
G01*
X11109000Y-9550000D02*
G75*
G02*
X11079000Y-9550000I-15000J0D01*
G01*
X11079000Y-9550000D02*
G75*
G02*
X11109000Y-9550000I15000J0D01*
G01*
X11109000Y-9685000D02*
G75*
G02*
X11079000Y-9685000I-15000J0D01*
G01*
X11079000Y-9685000D02*
G75*
G02*
X11109000Y-9685000I15000J0D01*
G01*
X11123000Y-12100500D02*
G75*
G02*
X11093000Y-12100500I-15000J0D01*
G01*
X11093000Y-12100500D02*
G75*
G02*
X11123000Y-12100500I15000J0D01*
G01*
X11123000Y-12235500D02*
G75*
G02*
X11093000Y-12235500I-15000J0D01*
G01*
X11093000Y-12235500D02*
G75*
G02*
X11123000Y-12235500I15000J0D01*
G01*
X11123000Y-12370500D02*
G75*
G02*
X11093000Y-12370500I-15000J0D01*
G01*
X11093000Y-12370500D02*
G75*
G02*
X11123000Y-12370500I15000J0D01*
G01*
X11299000Y-6713500D02*
G75*
G02*
X11269000Y-6713500I-15000J0D01*
G01*
X11269000Y-6713500D02*
G75*
G02*
X11299000Y-6713500I15000J0D01*
G01*
X11299000Y-6848500D02*
G75*
G02*
X11269000Y-6848500I-15000J0D01*
G01*
X11269000Y-6848500D02*
G75*
G02*
X11299000Y-6848500I15000J0D01*
G01*
X11299000Y-6983500D02*
G75*
G02*
X11269000Y-6983500I-15000J0D01*
G01*
X11269000Y-6983500D02*
G75*
G02*
X11299000Y-6983500I15000J0D01*
G01*
X11299000Y-9415000D02*
G75*
G02*
X11269000Y-9415000I-15000J0D01*
G01*
X11269000Y-9415000D02*
G75*
G02*
X11299000Y-9415000I15000J0D01*
G01*
X11299000Y-9550000D02*
G75*
G02*
X11269000Y-9550000I-15000J0D01*
G01*
X11269000Y-9550000D02*
G75*
G02*
X11299000Y-9550000I15000J0D01*
G01*
X11299000Y-9685000D02*
G75*
G02*
X11269000Y-9685000I-15000J0D01*
G01*
X11269000Y-9685000D02*
G75*
G02*
X11299000Y-9685000I15000J0D01*
G01*
X11313000Y-12100500D02*
G75*
G02*
X11283000Y-12100500I-15000J0D01*
G01*
X11283000Y-12100500D02*
G75*
G02*
X11313000Y-12100500I15000J0D01*
G01*
X11313000Y-12235500D02*
G75*
G02*
X11283000Y-12235500I-15000J0D01*
G01*
X11283000Y-12235500D02*
G75*
G02*
X11313000Y-12235500I15000J0D01*
G01*
X11313000Y-12370500D02*
G75*
G02*
X11283000Y-12370500I-15000J0D01*
G01*
X11283000Y-12370500D02*
G75*
G02*
X11313000Y-12370500I15000J0D01*
G01*
X12403500Y-12760500D02*
X12403500Y-12805500D01*
X12381000Y-12783000D02*
X12426000Y-12783000D01*
X12426000Y-12823000D02*
X12426000Y-12743000D01*
X12381000Y-12743000D02*
G75*
G02*
X12426000Y-12743000I22500J0D01*
G01*
X12381000Y-12743000D02*
X12381000Y-12823000D01*
X12381000Y-12823000D02*
G75*
G03*
X12426000Y-12823000I22500J0D01*
G01*
X13118500Y-12760500D02*
X13118500Y-12805500D01*
X13096000Y-12783000D02*
X13141000Y-12783000D01*
X13096000Y-12743000D02*
X13096000Y-12823000D01*
X13141000Y-12823000D02*
G75*
G02*
X13096000Y-12823000I-22500J0D01*
G01*
X13141000Y-12823000D02*
X13141000Y-12743000D01*
X13141000Y-12743000D02*
G75*
G03*
X13096000Y-12743000I-22500J0D01*
G01*
X13720213Y-6100213D02*
X13720213Y-6057787D01*
X13677787Y-6057787D01*
X13677787Y-6100213D01*
X13720213Y-6100213D01*
X13022000Y-7392000D02*
X13072000Y-7342000D01*
X13022000Y-7292000D01*
X12972000Y-7342000D01*
X13022000Y-7392000D01*
X13022000Y-7646000D02*
X13072000Y-7596000D01*
X13022000Y-7546000D01*
X12972000Y-7596000D01*
X13022000Y-7646000D01*
X13022000Y-7900000D02*
X13072000Y-7850000D01*
X13022000Y-7800000D01*
X12972000Y-7850000D01*
X13022000Y-7900000D01*
X13022000Y-8154000D02*
X13072000Y-8104000D01*
X13022000Y-8054000D01*
X12972000Y-8104000D01*
X13022000Y-8154000D01*
X13022000Y-8408000D02*
X13072000Y-8358000D01*
X13022000Y-8308000D01*
X12972000Y-8358000D01*
X13022000Y-8408000D01*
X13022000Y-8662000D02*
X13072000Y-8612000D01*
X13022000Y-8562000D01*
X12972000Y-8612000D01*
X13022000Y-8662000D01*
X13299000Y-11538000D02*
X13349000Y-11488000D01*
X13299000Y-11438000D01*
X13249000Y-11488000D01*
X13299000Y-11538000D01*
X13299000Y-11792000D02*
X13349000Y-11742000D01*
X13299000Y-11692000D01*
X13249000Y-11742000D01*
X13299000Y-11792000D01*
X13877000Y-7445000D02*
X13927000Y-7395000D01*
X13877000Y-7345000D01*
X13827000Y-7395000D01*
X13877000Y-7445000D01*
X14034840Y-10855260D02*
X14084840Y-10805260D01*
X14034840Y-10755260D01*
X13984840Y-10805260D01*
X14034840Y-10855260D01*
X14034840Y-11109260D02*
X14084840Y-11059260D01*
X14034840Y-11009260D01*
X13984840Y-11059260D01*
X14034840Y-11109260D01*
X14034840Y-11363260D02*
X14084840Y-11313260D01*
X14034840Y-11263260D01*
X13984840Y-11313260D01*
X14034840Y-11363260D01*
X14034840Y-11617260D02*
X14084840Y-11567260D01*
X14034840Y-11517260D01*
X13984840Y-11567260D01*
X14034840Y-11617260D01*
X14034840Y-11871260D02*
X14084840Y-11821260D01*
X14034840Y-11771260D01*
X13984840Y-11821260D01*
X14034840Y-11871260D01*
X14034840Y-12125260D02*
X14084840Y-12075260D01*
X14034840Y-12025260D01*
X13984840Y-12075260D01*
X14034840Y-12125260D01*
X14034840Y-12379260D02*
X14084840Y-12329260D01*
X14034840Y-12279260D01*
X13984840Y-12329260D01*
X14034840Y-12379260D01*
X14034840Y-12633260D02*
X14084840Y-12583260D01*
X14034840Y-12533260D01*
X13984840Y-12583260D01*
X14034840Y-12633260D01*
X14131000Y-7445000D02*
X14181000Y-7395000D01*
X14131000Y-7345000D01*
X14081000Y-7395000D01*
X14131000Y-7445000D01*
X14385000Y-7445000D02*
X14435000Y-7395000D01*
X14385000Y-7345000D01*
X14335000Y-7395000D01*
X14385000Y-7445000D01*
X14639000Y-7445000D02*
X14689000Y-7395000D01*
X14639000Y-7345000D01*
X14589000Y-7395000D01*
X14639000Y-7445000D01*
X14893000Y-7445000D02*
X14943000Y-7395000D01*
X14893000Y-7345000D01*
X14843000Y-7395000D01*
X14893000Y-7445000D01*
X15338000Y-9293000D02*
X15388000Y-9243000D01*
X15338000Y-9193000D01*
X15288000Y-9243000D01*
X15338000Y-9293000D01*
X15338000Y-9547000D02*
X15388000Y-9497000D01*
X15338000Y-9447000D01*
X15288000Y-9497000D01*
X15338000Y-9547000D01*
X15592000Y-9293000D02*
X15642000Y-9243000D01*
X15592000Y-9193000D01*
X15542000Y-9243000D01*
X15592000Y-9293000D01*
X15592000Y-9547000D02*
X15642000Y-9497000D01*
X15592000Y-9447000D01*
X15542000Y-9497000D01*
X15592000Y-9547000D01*
X15846000Y-9293000D02*
X15896000Y-9243000D01*
X15846000Y-9193000D01*
X15796000Y-9243000D01*
X15846000Y-9293000D01*
X15846000Y-9547000D02*
X15896000Y-9497000D01*
X15846000Y-9447000D01*
X15796000Y-9497000D01*
X15846000Y-9547000D01*
X15985000Y-12964000D02*
X16035000Y-12914000D01*
X15985000Y-12864000D01*
X15935000Y-12914000D01*
X15985000Y-12964000D01*
X16239000Y-12964000D02*
X16289000Y-12914000D01*
X16239000Y-12864000D01*
X16189000Y-12914000D01*
X16239000Y-12964000D01*
X16493000Y-12964000D02*
X16543000Y-12914000D01*
X16493000Y-12864000D01*
X16443000Y-12914000D01*
X16493000Y-12964000D01*
X16747000Y-12964000D02*
X16797000Y-12914000D01*
X16747000Y-12864000D01*
X16697000Y-12914000D01*
X16747000Y-12964000D01*
D12*
X8182000Y-7629000D02*
X8314000Y-7761000D01*
X8314000Y-7629000D02*
X8182000Y-7761000D01*
X8314000Y-7695000D02*
G75*
G02*
X8182000Y-7695000I-66000J0D01*
G01*
X8182000Y-7695000D02*
G75*
G02*
X8314000Y-7695000I66000J0D01*
G01*
X8182000Y-8129000D02*
X8314000Y-8261000D01*
X8314000Y-8129000D02*
X8182000Y-8261000D01*
X8314000Y-8195000D02*
G75*
G02*
X8182000Y-8195000I-66000J0D01*
G01*
X8182000Y-8195000D02*
G75*
G02*
X8314000Y-8195000I66000J0D01*
G01*
X8182000Y-8629000D02*
X8314000Y-8761000D01*
X8314000Y-8629000D02*
X8182000Y-8761000D01*
X8314000Y-8695000D02*
G75*
G02*
X8182000Y-8695000I-66000J0D01*
G01*
X8182000Y-8695000D02*
G75*
G02*
X8314000Y-8695000I66000J0D01*
G01*
X8182000Y-9129000D02*
X8314000Y-9261000D01*
X8314000Y-9129000D02*
X8182000Y-9261000D01*
X8314000Y-9195000D02*
G75*
G02*
X8182000Y-9195000I-66000J0D01*
G01*
X8182000Y-9195000D02*
G75*
G02*
X8314000Y-9195000I66000J0D01*
G01*
X12354000Y-5562000D02*
X12486000Y-5694000D01*
X12486000Y-5562000D02*
X12354000Y-5694000D01*
X12486000Y-5628000D02*
G75*
G02*
X12354000Y-5628000I-66000J0D01*
G01*
X12354000Y-5628000D02*
G75*
G02*
X12486000Y-5628000I66000J0D01*
G01*
X12854000Y-5562000D02*
X12986000Y-5694000D01*
X12986000Y-5562000D02*
X12854000Y-5694000D01*
X12986000Y-5628000D02*
G75*
G02*
X12854000Y-5628000I-66000J0D01*
G01*
X12854000Y-5628000D02*
G75*
G02*
X12986000Y-5628000I66000J0D01*
G01*
X13797000Y-5566000D02*
X13929000Y-5698000D01*
X13929000Y-5566000D02*
X13797000Y-5698000D01*
X13929000Y-5632000D02*
G75*
G02*
X13797000Y-5632000I-66000J0D01*
G01*
X13797000Y-5632000D02*
G75*
G02*
X13929000Y-5632000I66000J0D01*
G01*
X14297000Y-5566000D02*
X14429000Y-5698000D01*
X14429000Y-5566000D02*
X14297000Y-5698000D01*
X14429000Y-5632000D02*
G75*
G02*
X14297000Y-5632000I-66000J0D01*
G01*
X14297000Y-5632000D02*
G75*
G02*
X14429000Y-5632000I66000J0D01*
G01*
D10*
X7749277Y-13530484D02*
X7749277Y-13330484D01*
X7749277Y-13330484D02*
X7796896Y-13330484D01*
X7796896Y-13330484D02*
X7825467Y-13340008D01*
X7825467Y-13340008D02*
X7844515Y-13359055D01*
X7844515Y-13359055D02*
X7854039Y-13378103D01*
X7854039Y-13378103D02*
X7863562Y-13416198D01*
X7863562Y-13416198D02*
X7863562Y-13444769D01*
X7863562Y-13444769D02*
X7854039Y-13482865D01*
X7854039Y-13482865D02*
X7844515Y-13501912D01*
X7844515Y-13501912D02*
X7825467Y-13520960D01*
X7825467Y-13520960D02*
X7796896Y-13530484D01*
X7796896Y-13530484D02*
X7749277Y-13530484D01*
X7949277Y-13530484D02*
X7949277Y-13397150D01*
X7949277Y-13435246D02*
X7958801Y-13416198D01*
X7958801Y-13416198D02*
X7968324Y-13406674D01*
X7968324Y-13406674D02*
X7987372Y-13397150D01*
X7987372Y-13397150D02*
X8006420Y-13397150D01*
X8073086Y-13530484D02*
X8073086Y-13397150D01*
X8073086Y-13330484D02*
X8063562Y-13340008D01*
X8063562Y-13340008D02*
X8073086Y-13349531D01*
X8073086Y-13349531D02*
X8082610Y-13340008D01*
X8082610Y-13340008D02*
X8073086Y-13330484D01*
X8073086Y-13330484D02*
X8073086Y-13349531D01*
X8196896Y-13530484D02*
X8177848Y-13520960D01*
X8177848Y-13520960D02*
X8168324Y-13501912D01*
X8168324Y-13501912D02*
X8168324Y-13330484D01*
X8301658Y-13530484D02*
X8282610Y-13520960D01*
X8282610Y-13520960D02*
X8273086Y-13501912D01*
X8273086Y-13501912D02*
X8273086Y-13330484D01*
X8530229Y-13530484D02*
X8530229Y-13330484D01*
X8530229Y-13330484D02*
X8596896Y-13473341D01*
X8596896Y-13473341D02*
X8663563Y-13330484D01*
X8663563Y-13330484D02*
X8663563Y-13530484D01*
X8844515Y-13530484D02*
X8844515Y-13425722D01*
X8844515Y-13425722D02*
X8834991Y-13406674D01*
X8834991Y-13406674D02*
X8815944Y-13397150D01*
X8815944Y-13397150D02*
X8777848Y-13397150D01*
X8777848Y-13397150D02*
X8758801Y-13406674D01*
X8844515Y-13520960D02*
X8825467Y-13530484D01*
X8825467Y-13530484D02*
X8777848Y-13530484D01*
X8777848Y-13530484D02*
X8758801Y-13520960D01*
X8758801Y-13520960D02*
X8749277Y-13501912D01*
X8749277Y-13501912D02*
X8749277Y-13482865D01*
X8749277Y-13482865D02*
X8758801Y-13463817D01*
X8758801Y-13463817D02*
X8777848Y-13454293D01*
X8777848Y-13454293D02*
X8825467Y-13454293D01*
X8825467Y-13454293D02*
X8844515Y-13444769D01*
X8939753Y-13397150D02*
X8939753Y-13597150D01*
X8939753Y-13406674D02*
X8958801Y-13397150D01*
X8958801Y-13397150D02*
X8996896Y-13397150D01*
X8996896Y-13397150D02*
X9015944Y-13406674D01*
X9015944Y-13406674D02*
X9025467Y-13416198D01*
X9025467Y-13416198D02*
X9034991Y-13435246D01*
X9034991Y-13435246D02*
X9034991Y-13492388D01*
X9034991Y-13492388D02*
X9025467Y-13511436D01*
X9025467Y-13511436D02*
X9015944Y-13520960D01*
X9015944Y-13520960D02*
X8996896Y-13530484D01*
X8996896Y-13530484D02*
X8958801Y-13530484D01*
X8958801Y-13530484D02*
X8939753Y-13520960D01*
X9120705Y-13511436D02*
X9130229Y-13520960D01*
X9130229Y-13520960D02*
X9120705Y-13530484D01*
X9120705Y-13530484D02*
X9111182Y-13520960D01*
X9111182Y-13520960D02*
X9120705Y-13511436D01*
X9120705Y-13511436D02*
X9120705Y-13530484D01*
X9120705Y-13406674D02*
X9130229Y-13416198D01*
X9130229Y-13416198D02*
X9120705Y-13425722D01*
X9120705Y-13425722D02*
X9111182Y-13416198D01*
X9111182Y-13416198D02*
X9120705Y-13406674D01*
X9120705Y-13406674D02*
X9120705Y-13425722D01*
D11*
X7458500Y-13844000D02*
X7488500Y-13874000D01*
X7488500Y-13844000D02*
X7458500Y-13874000D01*
D10*
X7787372Y-13750484D02*
X7806420Y-13750484D01*
X7806420Y-13750484D02*
X7825467Y-13760008D01*
X7825467Y-13760008D02*
X7834991Y-13769531D01*
X7834991Y-13769531D02*
X7844515Y-13788579D01*
X7844515Y-13788579D02*
X7854039Y-13826674D01*
X7854039Y-13826674D02*
X7854039Y-13874293D01*
X7854039Y-13874293D02*
X7844515Y-13912388D01*
X7844515Y-13912388D02*
X7834991Y-13931436D01*
X7834991Y-13931436D02*
X7825467Y-13940960D01*
X7825467Y-13940960D02*
X7806420Y-13950484D01*
X7806420Y-13950484D02*
X7787372Y-13950484D01*
X7787372Y-13950484D02*
X7768324Y-13940960D01*
X7768324Y-13940960D02*
X7758801Y-13931436D01*
X7758801Y-13931436D02*
X7749277Y-13912388D01*
X7749277Y-13912388D02*
X7739753Y-13874293D01*
X7739753Y-13874293D02*
X7739753Y-13826674D01*
X7739753Y-13826674D02*
X7749277Y-13788579D01*
X7749277Y-13788579D02*
X7758801Y-13769531D01*
X7758801Y-13769531D02*
X7768324Y-13760008D01*
X7768324Y-13760008D02*
X7787372Y-13750484D01*
X7939753Y-13931436D02*
X7949277Y-13940960D01*
X7949277Y-13940960D02*
X7939753Y-13950484D01*
X7939753Y-13950484D02*
X7930229Y-13940960D01*
X7930229Y-13940960D02*
X7939753Y-13931436D01*
X7939753Y-13931436D02*
X7939753Y-13950484D01*
X8015943Y-13750484D02*
X8139753Y-13750484D01*
X8139753Y-13750484D02*
X8073086Y-13826674D01*
X8073086Y-13826674D02*
X8101658Y-13826674D01*
X8101658Y-13826674D02*
X8120705Y-13836198D01*
X8120705Y-13836198D02*
X8130229Y-13845722D01*
X8130229Y-13845722D02*
X8139753Y-13864769D01*
X8139753Y-13864769D02*
X8139753Y-13912388D01*
X8139753Y-13912388D02*
X8130229Y-13931436D01*
X8130229Y-13931436D02*
X8120705Y-13940960D01*
X8120705Y-13940960D02*
X8101658Y-13950484D01*
X8101658Y-13950484D02*
X8044515Y-13950484D01*
X8044515Y-13950484D02*
X8025467Y-13940960D01*
X8025467Y-13940960D02*
X8015943Y-13931436D01*
X8263562Y-13750484D02*
X8282610Y-13750484D01*
X8282610Y-13750484D02*
X8301658Y-13760008D01*
X8301658Y-13760008D02*
X8311182Y-13769531D01*
X8311182Y-13769531D02*
X8320705Y-13788579D01*
X8320705Y-13788579D02*
X8330229Y-13826674D01*
X8330229Y-13826674D02*
X8330229Y-13874293D01*
X8330229Y-13874293D02*
X8320705Y-13912388D01*
X8320705Y-13912388D02*
X8311182Y-13931436D01*
X8311182Y-13931436D02*
X8301658Y-13940960D01*
X8301658Y-13940960D02*
X8282610Y-13950484D01*
X8282610Y-13950484D02*
X8263562Y-13950484D01*
X8263562Y-13950484D02*
X8244515Y-13940960D01*
X8244515Y-13940960D02*
X8234991Y-13931436D01*
X8234991Y-13931436D02*
X8225467Y-13912388D01*
X8225467Y-13912388D02*
X8215943Y-13874293D01*
X8215943Y-13874293D02*
X8215943Y-13826674D01*
X8215943Y-13826674D02*
X8225467Y-13788579D01*
X8225467Y-13788579D02*
X8234991Y-13769531D01*
X8234991Y-13769531D02*
X8244515Y-13760008D01*
X8244515Y-13760008D02*
X8263562Y-13750484D01*
X8454039Y-13750484D02*
X8473086Y-13750484D01*
X8473086Y-13750484D02*
X8492134Y-13760008D01*
X8492134Y-13760008D02*
X8501658Y-13769531D01*
X8501658Y-13769531D02*
X8511182Y-13788579D01*
X8511182Y-13788579D02*
X8520705Y-13826674D01*
X8520705Y-13826674D02*
X8520705Y-13874293D01*
X8520705Y-13874293D02*
X8511182Y-13912388D01*
X8511182Y-13912388D02*
X8501658Y-13931436D01*
X8501658Y-13931436D02*
X8492134Y-13940960D01*
X8492134Y-13940960D02*
X8473086Y-13950484D01*
X8473086Y-13950484D02*
X8454039Y-13950484D01*
X8454039Y-13950484D02*
X8434991Y-13940960D01*
X8434991Y-13940960D02*
X8425467Y-13931436D01*
X8425467Y-13931436D02*
X8415944Y-13912388D01*
X8415944Y-13912388D02*
X8406420Y-13874293D01*
X8406420Y-13874293D02*
X8406420Y-13826674D01*
X8406420Y-13826674D02*
X8415944Y-13788579D01*
X8415944Y-13788579D02*
X8425467Y-13769531D01*
X8425467Y-13769531D02*
X8434991Y-13760008D01*
X8434991Y-13760008D02*
X8454039Y-13750484D01*
X8606420Y-13950484D02*
X8606420Y-13817150D01*
X8606420Y-13836198D02*
X8615944Y-13826674D01*
X8615944Y-13826674D02*
X8634991Y-13817150D01*
X8634991Y-13817150D02*
X8663563Y-13817150D01*
X8663563Y-13817150D02*
X8682610Y-13826674D01*
X8682610Y-13826674D02*
X8692134Y-13845722D01*
X8692134Y-13845722D02*
X8692134Y-13950484D01*
X8692134Y-13845722D02*
X8701658Y-13826674D01*
X8701658Y-13826674D02*
X8720705Y-13817150D01*
X8720705Y-13817150D02*
X8749277Y-13817150D01*
X8749277Y-13817150D02*
X8768325Y-13826674D01*
X8768325Y-13826674D02*
X8777848Y-13845722D01*
X8777848Y-13845722D02*
X8777848Y-13950484D01*
X8873086Y-13950484D02*
X8873086Y-13817150D01*
X8873086Y-13836198D02*
X8882610Y-13826674D01*
X8882610Y-13826674D02*
X8901658Y-13817150D01*
X8901658Y-13817150D02*
X8930229Y-13817150D01*
X8930229Y-13817150D02*
X8949277Y-13826674D01*
X8949277Y-13826674D02*
X8958801Y-13845722D01*
X8958801Y-13845722D02*
X8958801Y-13950484D01*
X8958801Y-13845722D02*
X8968325Y-13826674D01*
X8968325Y-13826674D02*
X8987372Y-13817150D01*
X8987372Y-13817150D02*
X9015944Y-13817150D01*
X9015944Y-13817150D02*
X9034991Y-13826674D01*
X9034991Y-13826674D02*
X9044515Y-13845722D01*
X9044515Y-13845722D02*
X9044515Y-13950484D01*
X9434991Y-13740960D02*
X9263563Y-13998103D01*
X9692134Y-13750484D02*
X9711182Y-13750484D01*
X9711182Y-13750484D02*
X9730229Y-13760008D01*
X9730229Y-13760008D02*
X9739753Y-13769531D01*
X9739753Y-13769531D02*
X9749277Y-13788579D01*
X9749277Y-13788579D02*
X9758801Y-13826674D01*
X9758801Y-13826674D02*
X9758801Y-13874293D01*
X9758801Y-13874293D02*
X9749277Y-13912388D01*
X9749277Y-13912388D02*
X9739753Y-13931436D01*
X9739753Y-13931436D02*
X9730229Y-13940960D01*
X9730229Y-13940960D02*
X9711182Y-13950484D01*
X9711182Y-13950484D02*
X9692134Y-13950484D01*
X9692134Y-13950484D02*
X9673087Y-13940960D01*
X9673087Y-13940960D02*
X9663563Y-13931436D01*
X9663563Y-13931436D02*
X9654039Y-13912388D01*
X9654039Y-13912388D02*
X9644515Y-13874293D01*
X9644515Y-13874293D02*
X9644515Y-13826674D01*
X9644515Y-13826674D02*
X9654039Y-13788579D01*
X9654039Y-13788579D02*
X9663563Y-13769531D01*
X9663563Y-13769531D02*
X9673087Y-13760008D01*
X9673087Y-13760008D02*
X9692134Y-13750484D01*
X9844515Y-13931436D02*
X9854039Y-13940960D01*
X9854039Y-13940960D02*
X9844515Y-13950484D01*
X9844515Y-13950484D02*
X9834991Y-13940960D01*
X9834991Y-13940960D02*
X9844515Y-13931436D01*
X9844515Y-13931436D02*
X9844515Y-13950484D01*
X9977848Y-13750484D02*
X9996896Y-13750484D01*
X9996896Y-13750484D02*
X10015944Y-13760008D01*
X10015944Y-13760008D02*
X10025468Y-13769531D01*
X10025468Y-13769531D02*
X10034991Y-13788579D01*
X10034991Y-13788579D02*
X10044515Y-13826674D01*
X10044515Y-13826674D02*
X10044515Y-13874293D01*
X10044515Y-13874293D02*
X10034991Y-13912388D01*
X10034991Y-13912388D02*
X10025468Y-13931436D01*
X10025468Y-13931436D02*
X10015944Y-13940960D01*
X10015944Y-13940960D02*
X9996896Y-13950484D01*
X9996896Y-13950484D02*
X9977848Y-13950484D01*
X9977848Y-13950484D02*
X9958801Y-13940960D01*
X9958801Y-13940960D02*
X9949277Y-13931436D01*
X9949277Y-13931436D02*
X9939753Y-13912388D01*
X9939753Y-13912388D02*
X9930229Y-13874293D01*
X9930229Y-13874293D02*
X9930229Y-13826674D01*
X9930229Y-13826674D02*
X9939753Y-13788579D01*
X9939753Y-13788579D02*
X9949277Y-13769531D01*
X9949277Y-13769531D02*
X9958801Y-13760008D01*
X9958801Y-13760008D02*
X9977848Y-13750484D01*
X10234991Y-13950484D02*
X10120706Y-13950484D01*
X10177848Y-13950484D02*
X10177848Y-13750484D01*
X10177848Y-13750484D02*
X10158801Y-13779055D01*
X10158801Y-13779055D02*
X10139753Y-13798103D01*
X10139753Y-13798103D02*
X10120706Y-13807627D01*
X10425468Y-13950484D02*
X10311182Y-13950484D01*
X10368325Y-13950484D02*
X10368325Y-13750484D01*
X10368325Y-13750484D02*
X10349277Y-13779055D01*
X10349277Y-13779055D02*
X10330229Y-13798103D01*
X10330229Y-13798103D02*
X10311182Y-13807627D01*
X10539753Y-13836198D02*
X10520706Y-13826674D01*
X10520706Y-13826674D02*
X10511182Y-13817150D01*
X10511182Y-13817150D02*
X10501658Y-13798103D01*
X10501658Y-13798103D02*
X10501658Y-13788579D01*
X10501658Y-13788579D02*
X10511182Y-13769531D01*
X10511182Y-13769531D02*
X10520706Y-13760008D01*
X10520706Y-13760008D02*
X10539753Y-13750484D01*
X10539753Y-13750484D02*
X10577849Y-13750484D01*
X10577849Y-13750484D02*
X10596896Y-13760008D01*
X10596896Y-13760008D02*
X10606420Y-13769531D01*
X10606420Y-13769531D02*
X10615944Y-13788579D01*
X10615944Y-13788579D02*
X10615944Y-13798103D01*
X10615944Y-13798103D02*
X10606420Y-13817150D01*
X10606420Y-13817150D02*
X10596896Y-13826674D01*
X10596896Y-13826674D02*
X10577849Y-13836198D01*
X10577849Y-13836198D02*
X10539753Y-13836198D01*
X10539753Y-13836198D02*
X10520706Y-13845722D01*
X10520706Y-13845722D02*
X10511182Y-13855246D01*
X10511182Y-13855246D02*
X10501658Y-13874293D01*
X10501658Y-13874293D02*
X10501658Y-13912388D01*
X10501658Y-13912388D02*
X10511182Y-13931436D01*
X10511182Y-13931436D02*
X10520706Y-13940960D01*
X10520706Y-13940960D02*
X10539753Y-13950484D01*
X10539753Y-13950484D02*
X10577849Y-13950484D01*
X10577849Y-13950484D02*
X10596896Y-13940960D01*
X10596896Y-13940960D02*
X10606420Y-13931436D01*
X10606420Y-13931436D02*
X10615944Y-13912388D01*
X10615944Y-13912388D02*
X10615944Y-13874293D01*
X10615944Y-13874293D02*
X10606420Y-13855246D01*
X10606420Y-13855246D02*
X10596896Y-13845722D01*
X10596896Y-13845722D02*
X10577849Y-13836198D01*
X10692134Y-13750484D02*
X10692134Y-13788579D01*
X10768325Y-13750484D02*
X10768325Y-13788579D01*
X11063563Y-14026674D02*
X11054039Y-14017150D01*
X11054039Y-14017150D02*
X11034991Y-13988579D01*
X11034991Y-13988579D02*
X11025468Y-13969531D01*
X11025468Y-13969531D02*
X11015944Y-13940960D01*
X11015944Y-13940960D02*
X11006420Y-13893341D01*
X11006420Y-13893341D02*
X11006420Y-13855246D01*
X11006420Y-13855246D02*
X11015944Y-13807627D01*
X11015944Y-13807627D02*
X11025468Y-13779055D01*
X11025468Y-13779055D02*
X11034991Y-13760008D01*
X11034991Y-13760008D02*
X11054039Y-13731436D01*
X11054039Y-13731436D02*
X11063563Y-13721912D01*
X11244515Y-13950484D02*
X11130230Y-13950484D01*
X11187372Y-13950484D02*
X11187372Y-13750484D01*
X11187372Y-13750484D02*
X11168325Y-13779055D01*
X11168325Y-13779055D02*
X11149277Y-13798103D01*
X11149277Y-13798103D02*
X11130230Y-13807627D01*
X11425468Y-13750484D02*
X11330229Y-13750484D01*
X11330229Y-13750484D02*
X11320706Y-13845722D01*
X11320706Y-13845722D02*
X11330229Y-13836198D01*
X11330229Y-13836198D02*
X11349277Y-13826674D01*
X11349277Y-13826674D02*
X11396896Y-13826674D01*
X11396896Y-13826674D02*
X11415944Y-13836198D01*
X11415944Y-13836198D02*
X11425468Y-13845722D01*
X11425468Y-13845722D02*
X11434991Y-13864769D01*
X11434991Y-13864769D02*
X11434991Y-13912388D01*
X11434991Y-13912388D02*
X11425468Y-13931436D01*
X11425468Y-13931436D02*
X11415944Y-13940960D01*
X11415944Y-13940960D02*
X11396896Y-13950484D01*
X11396896Y-13950484D02*
X11349277Y-13950484D01*
X11349277Y-13950484D02*
X11330229Y-13940960D01*
X11330229Y-13940960D02*
X11320706Y-13931436D01*
X11501658Y-13750484D02*
X11625468Y-13750484D01*
X11625468Y-13750484D02*
X11558801Y-13826674D01*
X11558801Y-13826674D02*
X11587372Y-13826674D01*
X11587372Y-13826674D02*
X11606420Y-13836198D01*
X11606420Y-13836198D02*
X11615944Y-13845722D01*
X11615944Y-13845722D02*
X11625468Y-13864769D01*
X11625468Y-13864769D02*
X11625468Y-13912388D01*
X11625468Y-13912388D02*
X11615944Y-13931436D01*
X11615944Y-13931436D02*
X11606420Y-13940960D01*
X11606420Y-13940960D02*
X11587372Y-13950484D01*
X11587372Y-13950484D02*
X11530229Y-13950484D01*
X11530229Y-13950484D02*
X11511182Y-13940960D01*
X11511182Y-13940960D02*
X11501658Y-13931436D01*
X11863563Y-13950484D02*
X11863563Y-13750484D01*
X11949277Y-13950484D02*
X11949277Y-13845722D01*
X11949277Y-13845722D02*
X11939753Y-13826674D01*
X11939753Y-13826674D02*
X11920706Y-13817150D01*
X11920706Y-13817150D02*
X11892134Y-13817150D01*
X11892134Y-13817150D02*
X11873087Y-13826674D01*
X11873087Y-13826674D02*
X11863563Y-13836198D01*
X12073087Y-13950484D02*
X12054039Y-13940960D01*
X12054039Y-13940960D02*
X12044515Y-13931436D01*
X12044515Y-13931436D02*
X12034991Y-13912388D01*
X12034991Y-13912388D02*
X12034991Y-13855246D01*
X12034991Y-13855246D02*
X12044515Y-13836198D01*
X12044515Y-13836198D02*
X12054039Y-13826674D01*
X12054039Y-13826674D02*
X12073087Y-13817150D01*
X12073087Y-13817150D02*
X12101658Y-13817150D01*
X12101658Y-13817150D02*
X12120706Y-13826674D01*
X12120706Y-13826674D02*
X12130230Y-13836198D01*
X12130230Y-13836198D02*
X12139753Y-13855246D01*
X12139753Y-13855246D02*
X12139753Y-13912388D01*
X12139753Y-13912388D02*
X12130230Y-13931436D01*
X12130230Y-13931436D02*
X12120706Y-13940960D01*
X12120706Y-13940960D02*
X12101658Y-13950484D01*
X12101658Y-13950484D02*
X12073087Y-13950484D01*
X12254039Y-13950484D02*
X12234991Y-13940960D01*
X12234991Y-13940960D02*
X12225468Y-13921912D01*
X12225468Y-13921912D02*
X12225468Y-13750484D01*
X12406420Y-13940960D02*
X12387372Y-13950484D01*
X12387372Y-13950484D02*
X12349277Y-13950484D01*
X12349277Y-13950484D02*
X12330230Y-13940960D01*
X12330230Y-13940960D02*
X12320706Y-13921912D01*
X12320706Y-13921912D02*
X12320706Y-13845722D01*
X12320706Y-13845722D02*
X12330230Y-13826674D01*
X12330230Y-13826674D02*
X12349277Y-13817150D01*
X12349277Y-13817150D02*
X12387372Y-13817150D01*
X12387372Y-13817150D02*
X12406420Y-13826674D01*
X12406420Y-13826674D02*
X12415944Y-13845722D01*
X12415944Y-13845722D02*
X12415944Y-13864769D01*
X12415944Y-13864769D02*
X12320706Y-13883817D01*
X12492134Y-13940960D02*
X12511182Y-13950484D01*
X12511182Y-13950484D02*
X12549277Y-13950484D01*
X12549277Y-13950484D02*
X12568325Y-13940960D01*
X12568325Y-13940960D02*
X12577849Y-13921912D01*
X12577849Y-13921912D02*
X12577849Y-13912388D01*
X12577849Y-13912388D02*
X12568325Y-13893341D01*
X12568325Y-13893341D02*
X12549277Y-13883817D01*
X12549277Y-13883817D02*
X12520706Y-13883817D01*
X12520706Y-13883817D02*
X12501658Y-13874293D01*
X12501658Y-13874293D02*
X12492134Y-13855246D01*
X12492134Y-13855246D02*
X12492134Y-13845722D01*
X12492134Y-13845722D02*
X12501658Y-13826674D01*
X12501658Y-13826674D02*
X12520706Y-13817150D01*
X12520706Y-13817150D02*
X12549277Y-13817150D01*
X12549277Y-13817150D02*
X12568325Y-13826674D01*
X12644515Y-14026674D02*
X12654039Y-14017150D01*
X12654039Y-14017150D02*
X12673087Y-13988579D01*
X12673087Y-13988579D02*
X12682611Y-13969531D01*
X12682611Y-13969531D02*
X12692134Y-13940960D01*
X12692134Y-13940960D02*
X12701658Y-13893341D01*
X12701658Y-13893341D02*
X12701658Y-13855246D01*
X12701658Y-13855246D02*
X12692134Y-13807627D01*
X12692134Y-13807627D02*
X12682611Y-13779055D01*
X12682611Y-13779055D02*
X12673087Y-13760008D01*
X12673087Y-13760008D02*
X12654039Y-13731436D01*
X12654039Y-13731436D02*
X12644515Y-13721912D01*
D11*
X7488500Y-14123000D02*
G75*
G02*
X7458500Y-14123000I-15000J0D01*
G01*
X7458500Y-14123000D02*
G75*
G02*
X7488500Y-14123000I15000J0D01*
G01*
D10*
X7787372Y-14014484D02*
X7806420Y-14014484D01*
X7806420Y-14014484D02*
X7825467Y-14024008D01*
X7825467Y-14024008D02*
X7834991Y-14033531D01*
X7834991Y-14033531D02*
X7844515Y-14052579D01*
X7844515Y-14052579D02*
X7854039Y-14090674D01*
X7854039Y-14090674D02*
X7854039Y-14138293D01*
X7854039Y-14138293D02*
X7844515Y-14176388D01*
X7844515Y-14176388D02*
X7834991Y-14195436D01*
X7834991Y-14195436D02*
X7825467Y-14204960D01*
X7825467Y-14204960D02*
X7806420Y-14214484D01*
X7806420Y-14214484D02*
X7787372Y-14214484D01*
X7787372Y-14214484D02*
X7768324Y-14204960D01*
X7768324Y-14204960D02*
X7758801Y-14195436D01*
X7758801Y-14195436D02*
X7749277Y-14176388D01*
X7749277Y-14176388D02*
X7739753Y-14138293D01*
X7739753Y-14138293D02*
X7739753Y-14090674D01*
X7739753Y-14090674D02*
X7749277Y-14052579D01*
X7749277Y-14052579D02*
X7758801Y-14033531D01*
X7758801Y-14033531D02*
X7768324Y-14024008D01*
X7768324Y-14024008D02*
X7787372Y-14014484D01*
X7939753Y-14195436D02*
X7949277Y-14204960D01*
X7949277Y-14204960D02*
X7939753Y-14214484D01*
X7939753Y-14214484D02*
X7930229Y-14204960D01*
X7930229Y-14204960D02*
X7939753Y-14195436D01*
X7939753Y-14195436D02*
X7939753Y-14214484D01*
X8015943Y-14014484D02*
X8139753Y-14014484D01*
X8139753Y-14014484D02*
X8073086Y-14090674D01*
X8073086Y-14090674D02*
X8101658Y-14090674D01*
X8101658Y-14090674D02*
X8120705Y-14100198D01*
X8120705Y-14100198D02*
X8130229Y-14109722D01*
X8130229Y-14109722D02*
X8139753Y-14128769D01*
X8139753Y-14128769D02*
X8139753Y-14176388D01*
X8139753Y-14176388D02*
X8130229Y-14195436D01*
X8130229Y-14195436D02*
X8120705Y-14204960D01*
X8120705Y-14204960D02*
X8101658Y-14214484D01*
X8101658Y-14214484D02*
X8044515Y-14214484D01*
X8044515Y-14214484D02*
X8025467Y-14204960D01*
X8025467Y-14204960D02*
X8015943Y-14195436D01*
X8263562Y-14014484D02*
X8282610Y-14014484D01*
X8282610Y-14014484D02*
X8301658Y-14024008D01*
X8301658Y-14024008D02*
X8311182Y-14033531D01*
X8311182Y-14033531D02*
X8320705Y-14052579D01*
X8320705Y-14052579D02*
X8330229Y-14090674D01*
X8330229Y-14090674D02*
X8330229Y-14138293D01*
X8330229Y-14138293D02*
X8320705Y-14176388D01*
X8320705Y-14176388D02*
X8311182Y-14195436D01*
X8311182Y-14195436D02*
X8301658Y-14204960D01*
X8301658Y-14204960D02*
X8282610Y-14214484D01*
X8282610Y-14214484D02*
X8263562Y-14214484D01*
X8263562Y-14214484D02*
X8244515Y-14204960D01*
X8244515Y-14204960D02*
X8234991Y-14195436D01*
X8234991Y-14195436D02*
X8225467Y-14176388D01*
X8225467Y-14176388D02*
X8215943Y-14138293D01*
X8215943Y-14138293D02*
X8215943Y-14090674D01*
X8215943Y-14090674D02*
X8225467Y-14052579D01*
X8225467Y-14052579D02*
X8234991Y-14033531D01*
X8234991Y-14033531D02*
X8244515Y-14024008D01*
X8244515Y-14024008D02*
X8263562Y-14014484D01*
X8454039Y-14014484D02*
X8473086Y-14014484D01*
X8473086Y-14014484D02*
X8492134Y-14024008D01*
X8492134Y-14024008D02*
X8501658Y-14033531D01*
X8501658Y-14033531D02*
X8511182Y-14052579D01*
X8511182Y-14052579D02*
X8520705Y-14090674D01*
X8520705Y-14090674D02*
X8520705Y-14138293D01*
X8520705Y-14138293D02*
X8511182Y-14176388D01*
X8511182Y-14176388D02*
X8501658Y-14195436D01*
X8501658Y-14195436D02*
X8492134Y-14204960D01*
X8492134Y-14204960D02*
X8473086Y-14214484D01*
X8473086Y-14214484D02*
X8454039Y-14214484D01*
X8454039Y-14214484D02*
X8434991Y-14204960D01*
X8434991Y-14204960D02*
X8425467Y-14195436D01*
X8425467Y-14195436D02*
X8415944Y-14176388D01*
X8415944Y-14176388D02*
X8406420Y-14138293D01*
X8406420Y-14138293D02*
X8406420Y-14090674D01*
X8406420Y-14090674D02*
X8415944Y-14052579D01*
X8415944Y-14052579D02*
X8425467Y-14033531D01*
X8425467Y-14033531D02*
X8434991Y-14024008D01*
X8434991Y-14024008D02*
X8454039Y-14014484D01*
X8606420Y-14214484D02*
X8606420Y-14081150D01*
X8606420Y-14100198D02*
X8615944Y-14090674D01*
X8615944Y-14090674D02*
X8634991Y-14081150D01*
X8634991Y-14081150D02*
X8663563Y-14081150D01*
X8663563Y-14081150D02*
X8682610Y-14090674D01*
X8682610Y-14090674D02*
X8692134Y-14109722D01*
X8692134Y-14109722D02*
X8692134Y-14214484D01*
X8692134Y-14109722D02*
X8701658Y-14090674D01*
X8701658Y-14090674D02*
X8720705Y-14081150D01*
X8720705Y-14081150D02*
X8749277Y-14081150D01*
X8749277Y-14081150D02*
X8768325Y-14090674D01*
X8768325Y-14090674D02*
X8777848Y-14109722D01*
X8777848Y-14109722D02*
X8777848Y-14214484D01*
X8873086Y-14214484D02*
X8873086Y-14081150D01*
X8873086Y-14100198D02*
X8882610Y-14090674D01*
X8882610Y-14090674D02*
X8901658Y-14081150D01*
X8901658Y-14081150D02*
X8930229Y-14081150D01*
X8930229Y-14081150D02*
X8949277Y-14090674D01*
X8949277Y-14090674D02*
X8958801Y-14109722D01*
X8958801Y-14109722D02*
X8958801Y-14214484D01*
X8958801Y-14109722D02*
X8968325Y-14090674D01*
X8968325Y-14090674D02*
X8987372Y-14081150D01*
X8987372Y-14081150D02*
X9015944Y-14081150D01*
X9015944Y-14081150D02*
X9034991Y-14090674D01*
X9034991Y-14090674D02*
X9044515Y-14109722D01*
X9044515Y-14109722D02*
X9044515Y-14214484D01*
X9434991Y-14004960D02*
X9263563Y-14262103D01*
X9692134Y-14014484D02*
X9711182Y-14014484D01*
X9711182Y-14014484D02*
X9730229Y-14024008D01*
X9730229Y-14024008D02*
X9739753Y-14033531D01*
X9739753Y-14033531D02*
X9749277Y-14052579D01*
X9749277Y-14052579D02*
X9758801Y-14090674D01*
X9758801Y-14090674D02*
X9758801Y-14138293D01*
X9758801Y-14138293D02*
X9749277Y-14176388D01*
X9749277Y-14176388D02*
X9739753Y-14195436D01*
X9739753Y-14195436D02*
X9730229Y-14204960D01*
X9730229Y-14204960D02*
X9711182Y-14214484D01*
X9711182Y-14214484D02*
X9692134Y-14214484D01*
X9692134Y-14214484D02*
X9673087Y-14204960D01*
X9673087Y-14204960D02*
X9663563Y-14195436D01*
X9663563Y-14195436D02*
X9654039Y-14176388D01*
X9654039Y-14176388D02*
X9644515Y-14138293D01*
X9644515Y-14138293D02*
X9644515Y-14090674D01*
X9644515Y-14090674D02*
X9654039Y-14052579D01*
X9654039Y-14052579D02*
X9663563Y-14033531D01*
X9663563Y-14033531D02*
X9673087Y-14024008D01*
X9673087Y-14024008D02*
X9692134Y-14014484D01*
X9844515Y-14195436D02*
X9854039Y-14204960D01*
X9854039Y-14204960D02*
X9844515Y-14214484D01*
X9844515Y-14214484D02*
X9834991Y-14204960D01*
X9834991Y-14204960D02*
X9844515Y-14195436D01*
X9844515Y-14195436D02*
X9844515Y-14214484D01*
X9977848Y-14014484D02*
X9996896Y-14014484D01*
X9996896Y-14014484D02*
X10015944Y-14024008D01*
X10015944Y-14024008D02*
X10025468Y-14033531D01*
X10025468Y-14033531D02*
X10034991Y-14052579D01*
X10034991Y-14052579D02*
X10044515Y-14090674D01*
X10044515Y-14090674D02*
X10044515Y-14138293D01*
X10044515Y-14138293D02*
X10034991Y-14176388D01*
X10034991Y-14176388D02*
X10025468Y-14195436D01*
X10025468Y-14195436D02*
X10015944Y-14204960D01*
X10015944Y-14204960D02*
X9996896Y-14214484D01*
X9996896Y-14214484D02*
X9977848Y-14214484D01*
X9977848Y-14214484D02*
X9958801Y-14204960D01*
X9958801Y-14204960D02*
X9949277Y-14195436D01*
X9949277Y-14195436D02*
X9939753Y-14176388D01*
X9939753Y-14176388D02*
X9930229Y-14138293D01*
X9930229Y-14138293D02*
X9930229Y-14090674D01*
X9930229Y-14090674D02*
X9939753Y-14052579D01*
X9939753Y-14052579D02*
X9949277Y-14033531D01*
X9949277Y-14033531D02*
X9958801Y-14024008D01*
X9958801Y-14024008D02*
X9977848Y-14014484D01*
X10234991Y-14214484D02*
X10120706Y-14214484D01*
X10177848Y-14214484D02*
X10177848Y-14014484D01*
X10177848Y-14014484D02*
X10158801Y-14043055D01*
X10158801Y-14043055D02*
X10139753Y-14062103D01*
X10139753Y-14062103D02*
X10120706Y-14071627D01*
X10425468Y-14214484D02*
X10311182Y-14214484D01*
X10368325Y-14214484D02*
X10368325Y-14014484D01*
X10368325Y-14014484D02*
X10349277Y-14043055D01*
X10349277Y-14043055D02*
X10330229Y-14062103D01*
X10330229Y-14062103D02*
X10311182Y-14071627D01*
X10539753Y-14100198D02*
X10520706Y-14090674D01*
X10520706Y-14090674D02*
X10511182Y-14081150D01*
X10511182Y-14081150D02*
X10501658Y-14062103D01*
X10501658Y-14062103D02*
X10501658Y-14052579D01*
X10501658Y-14052579D02*
X10511182Y-14033531D01*
X10511182Y-14033531D02*
X10520706Y-14024008D01*
X10520706Y-14024008D02*
X10539753Y-14014484D01*
X10539753Y-14014484D02*
X10577849Y-14014484D01*
X10577849Y-14014484D02*
X10596896Y-14024008D01*
X10596896Y-14024008D02*
X10606420Y-14033531D01*
X10606420Y-14033531D02*
X10615944Y-14052579D01*
X10615944Y-14052579D02*
X10615944Y-14062103D01*
X10615944Y-14062103D02*
X10606420Y-14081150D01*
X10606420Y-14081150D02*
X10596896Y-14090674D01*
X10596896Y-14090674D02*
X10577849Y-14100198D01*
X10577849Y-14100198D02*
X10539753Y-14100198D01*
X10539753Y-14100198D02*
X10520706Y-14109722D01*
X10520706Y-14109722D02*
X10511182Y-14119246D01*
X10511182Y-14119246D02*
X10501658Y-14138293D01*
X10501658Y-14138293D02*
X10501658Y-14176388D01*
X10501658Y-14176388D02*
X10511182Y-14195436D01*
X10511182Y-14195436D02*
X10520706Y-14204960D01*
X10520706Y-14204960D02*
X10539753Y-14214484D01*
X10539753Y-14214484D02*
X10577849Y-14214484D01*
X10577849Y-14214484D02*
X10596896Y-14204960D01*
X10596896Y-14204960D02*
X10606420Y-14195436D01*
X10606420Y-14195436D02*
X10615944Y-14176388D01*
X10615944Y-14176388D02*
X10615944Y-14138293D01*
X10615944Y-14138293D02*
X10606420Y-14119246D01*
X10606420Y-14119246D02*
X10596896Y-14109722D01*
X10596896Y-14109722D02*
X10577849Y-14100198D01*
X10692134Y-14014484D02*
X10692134Y-14052579D01*
X10768325Y-14014484D02*
X10768325Y-14052579D01*
X11063563Y-14290674D02*
X11054039Y-14281150D01*
X11054039Y-14281150D02*
X11034991Y-14252579D01*
X11034991Y-14252579D02*
X11025468Y-14233531D01*
X11025468Y-14233531D02*
X11015944Y-14204960D01*
X11015944Y-14204960D02*
X11006420Y-14157341D01*
X11006420Y-14157341D02*
X11006420Y-14119246D01*
X11006420Y-14119246D02*
X11015944Y-14071627D01*
X11015944Y-14071627D02*
X11025468Y-14043055D01*
X11025468Y-14043055D02*
X11034991Y-14024008D01*
X11034991Y-14024008D02*
X11054039Y-13995436D01*
X11054039Y-13995436D02*
X11063563Y-13985912D01*
X11244515Y-14214484D02*
X11130230Y-14214484D01*
X11187372Y-14214484D02*
X11187372Y-14014484D01*
X11187372Y-14014484D02*
X11168325Y-14043055D01*
X11168325Y-14043055D02*
X11149277Y-14062103D01*
X11149277Y-14062103D02*
X11130230Y-14071627D01*
X11358801Y-14100198D02*
X11339753Y-14090674D01*
X11339753Y-14090674D02*
X11330229Y-14081150D01*
X11330229Y-14081150D02*
X11320706Y-14062103D01*
X11320706Y-14062103D02*
X11320706Y-14052579D01*
X11320706Y-14052579D02*
X11330229Y-14033531D01*
X11330229Y-14033531D02*
X11339753Y-14024008D01*
X11339753Y-14024008D02*
X11358801Y-14014484D01*
X11358801Y-14014484D02*
X11396896Y-14014484D01*
X11396896Y-14014484D02*
X11415944Y-14024008D01*
X11415944Y-14024008D02*
X11425468Y-14033531D01*
X11425468Y-14033531D02*
X11434991Y-14052579D01*
X11434991Y-14052579D02*
X11434991Y-14062103D01*
X11434991Y-14062103D02*
X11425468Y-14081150D01*
X11425468Y-14081150D02*
X11415944Y-14090674D01*
X11415944Y-14090674D02*
X11396896Y-14100198D01*
X11396896Y-14100198D02*
X11358801Y-14100198D01*
X11358801Y-14100198D02*
X11339753Y-14109722D01*
X11339753Y-14109722D02*
X11330229Y-14119246D01*
X11330229Y-14119246D02*
X11320706Y-14138293D01*
X11320706Y-14138293D02*
X11320706Y-14176388D01*
X11320706Y-14176388D02*
X11330229Y-14195436D01*
X11330229Y-14195436D02*
X11339753Y-14204960D01*
X11339753Y-14204960D02*
X11358801Y-14214484D01*
X11358801Y-14214484D02*
X11396896Y-14214484D01*
X11396896Y-14214484D02*
X11415944Y-14204960D01*
X11415944Y-14204960D02*
X11425468Y-14195436D01*
X11425468Y-14195436D02*
X11434991Y-14176388D01*
X11434991Y-14176388D02*
X11434991Y-14138293D01*
X11434991Y-14138293D02*
X11425468Y-14119246D01*
X11425468Y-14119246D02*
X11415944Y-14109722D01*
X11415944Y-14109722D02*
X11396896Y-14100198D01*
X11673087Y-14214484D02*
X11673087Y-14014484D01*
X11758801Y-14214484D02*
X11758801Y-14109722D01*
X11758801Y-14109722D02*
X11749277Y-14090674D01*
X11749277Y-14090674D02*
X11730230Y-14081150D01*
X11730230Y-14081150D02*
X11701658Y-14081150D01*
X11701658Y-14081150D02*
X11682610Y-14090674D01*
X11682610Y-14090674D02*
X11673087Y-14100198D01*
X11882610Y-14214484D02*
X11863563Y-14204960D01*
X11863563Y-14204960D02*
X11854039Y-14195436D01*
X11854039Y-14195436D02*
X11844515Y-14176388D01*
X11844515Y-14176388D02*
X11844515Y-14119246D01*
X11844515Y-14119246D02*
X11854039Y-14100198D01*
X11854039Y-14100198D02*
X11863563Y-14090674D01*
X11863563Y-14090674D02*
X11882610Y-14081150D01*
X11882610Y-14081150D02*
X11911182Y-14081150D01*
X11911182Y-14081150D02*
X11930230Y-14090674D01*
X11930230Y-14090674D02*
X11939753Y-14100198D01*
X11939753Y-14100198D02*
X11949277Y-14119246D01*
X11949277Y-14119246D02*
X11949277Y-14176388D01*
X11949277Y-14176388D02*
X11939753Y-14195436D01*
X11939753Y-14195436D02*
X11930230Y-14204960D01*
X11930230Y-14204960D02*
X11911182Y-14214484D01*
X11911182Y-14214484D02*
X11882610Y-14214484D01*
X12063563Y-14214484D02*
X12044515Y-14204960D01*
X12044515Y-14204960D02*
X12034991Y-14185912D01*
X12034991Y-14185912D02*
X12034991Y-14014484D01*
X12215944Y-14204960D02*
X12196896Y-14214484D01*
X12196896Y-14214484D02*
X12158801Y-14214484D01*
X12158801Y-14214484D02*
X12139753Y-14204960D01*
X12139753Y-14204960D02*
X12130230Y-14185912D01*
X12130230Y-14185912D02*
X12130230Y-14109722D01*
X12130230Y-14109722D02*
X12139753Y-14090674D01*
X12139753Y-14090674D02*
X12158801Y-14081150D01*
X12158801Y-14081150D02*
X12196896Y-14081150D01*
X12196896Y-14081150D02*
X12215944Y-14090674D01*
X12215944Y-14090674D02*
X12225468Y-14109722D01*
X12225468Y-14109722D02*
X12225468Y-14128769D01*
X12225468Y-14128769D02*
X12130230Y-14147817D01*
X12301658Y-14204960D02*
X12320706Y-14214484D01*
X12320706Y-14214484D02*
X12358801Y-14214484D01*
X12358801Y-14214484D02*
X12377849Y-14204960D01*
X12377849Y-14204960D02*
X12387372Y-14185912D01*
X12387372Y-14185912D02*
X12387372Y-14176388D01*
X12387372Y-14176388D02*
X12377849Y-14157341D01*
X12377849Y-14157341D02*
X12358801Y-14147817D01*
X12358801Y-14147817D02*
X12330230Y-14147817D01*
X12330230Y-14147817D02*
X12311182Y-14138293D01*
X12311182Y-14138293D02*
X12301658Y-14119246D01*
X12301658Y-14119246D02*
X12301658Y-14109722D01*
X12301658Y-14109722D02*
X12311182Y-14090674D01*
X12311182Y-14090674D02*
X12330230Y-14081150D01*
X12330230Y-14081150D02*
X12358801Y-14081150D01*
X12358801Y-14081150D02*
X12377849Y-14090674D01*
X12454039Y-14290674D02*
X12463563Y-14281150D01*
X12463563Y-14281150D02*
X12482611Y-14252579D01*
X12482611Y-14252579D02*
X12492134Y-14233531D01*
X12492134Y-14233531D02*
X12501658Y-14204960D01*
X12501658Y-14204960D02*
X12511182Y-14157341D01*
X12511182Y-14157341D02*
X12511182Y-14119246D01*
X12511182Y-14119246D02*
X12501658Y-14071627D01*
X12501658Y-14071627D02*
X12492134Y-14043055D01*
X12492134Y-14043055D02*
X12482611Y-14024008D01*
X12482611Y-14024008D02*
X12463563Y-13995436D01*
X12463563Y-13995436D02*
X12454039Y-13985912D01*
D11*
X7466000Y-14364500D02*
X7466000Y-14409500D01*
X7443500Y-14387000D02*
X7488500Y-14387000D01*
D10*
X7787372Y-14278484D02*
X7806420Y-14278484D01*
X7806420Y-14278484D02*
X7825467Y-14288008D01*
X7825467Y-14288008D02*
X7834991Y-14297531D01*
X7834991Y-14297531D02*
X7844515Y-14316579D01*
X7844515Y-14316579D02*
X7854039Y-14354674D01*
X7854039Y-14354674D02*
X7854039Y-14402293D01*
X7854039Y-14402293D02*
X7844515Y-14440388D01*
X7844515Y-14440388D02*
X7834991Y-14459436D01*
X7834991Y-14459436D02*
X7825467Y-14468960D01*
X7825467Y-14468960D02*
X7806420Y-14478484D01*
X7806420Y-14478484D02*
X7787372Y-14478484D01*
X7787372Y-14478484D02*
X7768324Y-14468960D01*
X7768324Y-14468960D02*
X7758801Y-14459436D01*
X7758801Y-14459436D02*
X7749277Y-14440388D01*
X7749277Y-14440388D02*
X7739753Y-14402293D01*
X7739753Y-14402293D02*
X7739753Y-14354674D01*
X7739753Y-14354674D02*
X7749277Y-14316579D01*
X7749277Y-14316579D02*
X7758801Y-14297531D01*
X7758801Y-14297531D02*
X7768324Y-14288008D01*
X7768324Y-14288008D02*
X7787372Y-14278484D01*
X7939753Y-14459436D02*
X7949277Y-14468960D01*
X7949277Y-14468960D02*
X7939753Y-14478484D01*
X7939753Y-14478484D02*
X7930229Y-14468960D01*
X7930229Y-14468960D02*
X7939753Y-14459436D01*
X7939753Y-14459436D02*
X7939753Y-14478484D01*
X8120705Y-14345150D02*
X8120705Y-14478484D01*
X8073086Y-14268960D02*
X8025467Y-14411817D01*
X8025467Y-14411817D02*
X8149277Y-14411817D01*
X8320705Y-14278484D02*
X8225467Y-14278484D01*
X8225467Y-14278484D02*
X8215943Y-14373722D01*
X8215943Y-14373722D02*
X8225467Y-14364198D01*
X8225467Y-14364198D02*
X8244515Y-14354674D01*
X8244515Y-14354674D02*
X8292134Y-14354674D01*
X8292134Y-14354674D02*
X8311182Y-14364198D01*
X8311182Y-14364198D02*
X8320705Y-14373722D01*
X8320705Y-14373722D02*
X8330229Y-14392769D01*
X8330229Y-14392769D02*
X8330229Y-14440388D01*
X8330229Y-14440388D02*
X8320705Y-14459436D01*
X8320705Y-14459436D02*
X8311182Y-14468960D01*
X8311182Y-14468960D02*
X8292134Y-14478484D01*
X8292134Y-14478484D02*
X8244515Y-14478484D01*
X8244515Y-14478484D02*
X8225467Y-14468960D01*
X8225467Y-14468960D02*
X8215943Y-14459436D01*
X8454039Y-14278484D02*
X8473086Y-14278484D01*
X8473086Y-14278484D02*
X8492134Y-14288008D01*
X8492134Y-14288008D02*
X8501658Y-14297531D01*
X8501658Y-14297531D02*
X8511182Y-14316579D01*
X8511182Y-14316579D02*
X8520705Y-14354674D01*
X8520705Y-14354674D02*
X8520705Y-14402293D01*
X8520705Y-14402293D02*
X8511182Y-14440388D01*
X8511182Y-14440388D02*
X8501658Y-14459436D01*
X8501658Y-14459436D02*
X8492134Y-14468960D01*
X8492134Y-14468960D02*
X8473086Y-14478484D01*
X8473086Y-14478484D02*
X8454039Y-14478484D01*
X8454039Y-14478484D02*
X8434991Y-14468960D01*
X8434991Y-14468960D02*
X8425467Y-14459436D01*
X8425467Y-14459436D02*
X8415944Y-14440388D01*
X8415944Y-14440388D02*
X8406420Y-14402293D01*
X8406420Y-14402293D02*
X8406420Y-14354674D01*
X8406420Y-14354674D02*
X8415944Y-14316579D01*
X8415944Y-14316579D02*
X8425467Y-14297531D01*
X8425467Y-14297531D02*
X8434991Y-14288008D01*
X8434991Y-14288008D02*
X8454039Y-14278484D01*
X8606420Y-14478484D02*
X8606420Y-14345150D01*
X8606420Y-14364198D02*
X8615944Y-14354674D01*
X8615944Y-14354674D02*
X8634991Y-14345150D01*
X8634991Y-14345150D02*
X8663563Y-14345150D01*
X8663563Y-14345150D02*
X8682610Y-14354674D01*
X8682610Y-14354674D02*
X8692134Y-14373722D01*
X8692134Y-14373722D02*
X8692134Y-14478484D01*
X8692134Y-14373722D02*
X8701658Y-14354674D01*
X8701658Y-14354674D02*
X8720705Y-14345150D01*
X8720705Y-14345150D02*
X8749277Y-14345150D01*
X8749277Y-14345150D02*
X8768325Y-14354674D01*
X8768325Y-14354674D02*
X8777848Y-14373722D01*
X8777848Y-14373722D02*
X8777848Y-14478484D01*
X8873086Y-14478484D02*
X8873086Y-14345150D01*
X8873086Y-14364198D02*
X8882610Y-14354674D01*
X8882610Y-14354674D02*
X8901658Y-14345150D01*
X8901658Y-14345150D02*
X8930229Y-14345150D01*
X8930229Y-14345150D02*
X8949277Y-14354674D01*
X8949277Y-14354674D02*
X8958801Y-14373722D01*
X8958801Y-14373722D02*
X8958801Y-14478484D01*
X8958801Y-14373722D02*
X8968325Y-14354674D01*
X8968325Y-14354674D02*
X8987372Y-14345150D01*
X8987372Y-14345150D02*
X9015944Y-14345150D01*
X9015944Y-14345150D02*
X9034991Y-14354674D01*
X9034991Y-14354674D02*
X9044515Y-14373722D01*
X9044515Y-14373722D02*
X9044515Y-14478484D01*
X9434991Y-14268960D02*
X9263563Y-14526103D01*
X9692134Y-14278484D02*
X9711182Y-14278484D01*
X9711182Y-14278484D02*
X9730229Y-14288008D01*
X9730229Y-14288008D02*
X9739753Y-14297531D01*
X9739753Y-14297531D02*
X9749277Y-14316579D01*
X9749277Y-14316579D02*
X9758801Y-14354674D01*
X9758801Y-14354674D02*
X9758801Y-14402293D01*
X9758801Y-14402293D02*
X9749277Y-14440388D01*
X9749277Y-14440388D02*
X9739753Y-14459436D01*
X9739753Y-14459436D02*
X9730229Y-14468960D01*
X9730229Y-14468960D02*
X9711182Y-14478484D01*
X9711182Y-14478484D02*
X9692134Y-14478484D01*
X9692134Y-14478484D02*
X9673087Y-14468960D01*
X9673087Y-14468960D02*
X9663563Y-14459436D01*
X9663563Y-14459436D02*
X9654039Y-14440388D01*
X9654039Y-14440388D02*
X9644515Y-14402293D01*
X9644515Y-14402293D02*
X9644515Y-14354674D01*
X9644515Y-14354674D02*
X9654039Y-14316579D01*
X9654039Y-14316579D02*
X9663563Y-14297531D01*
X9663563Y-14297531D02*
X9673087Y-14288008D01*
X9673087Y-14288008D02*
X9692134Y-14278484D01*
X9844515Y-14459436D02*
X9854039Y-14468960D01*
X9854039Y-14468960D02*
X9844515Y-14478484D01*
X9844515Y-14478484D02*
X9834991Y-14468960D01*
X9834991Y-14468960D02*
X9844515Y-14459436D01*
X9844515Y-14459436D02*
X9844515Y-14478484D01*
X9977848Y-14278484D02*
X9996896Y-14278484D01*
X9996896Y-14278484D02*
X10015944Y-14288008D01*
X10015944Y-14288008D02*
X10025468Y-14297531D01*
X10025468Y-14297531D02*
X10034991Y-14316579D01*
X10034991Y-14316579D02*
X10044515Y-14354674D01*
X10044515Y-14354674D02*
X10044515Y-14402293D01*
X10044515Y-14402293D02*
X10034991Y-14440388D01*
X10034991Y-14440388D02*
X10025468Y-14459436D01*
X10025468Y-14459436D02*
X10015944Y-14468960D01*
X10015944Y-14468960D02*
X9996896Y-14478484D01*
X9996896Y-14478484D02*
X9977848Y-14478484D01*
X9977848Y-14478484D02*
X9958801Y-14468960D01*
X9958801Y-14468960D02*
X9949277Y-14459436D01*
X9949277Y-14459436D02*
X9939753Y-14440388D01*
X9939753Y-14440388D02*
X9930229Y-14402293D01*
X9930229Y-14402293D02*
X9930229Y-14354674D01*
X9930229Y-14354674D02*
X9939753Y-14316579D01*
X9939753Y-14316579D02*
X9949277Y-14297531D01*
X9949277Y-14297531D02*
X9958801Y-14288008D01*
X9958801Y-14288008D02*
X9977848Y-14278484D01*
X10234991Y-14478484D02*
X10120706Y-14478484D01*
X10177848Y-14478484D02*
X10177848Y-14278484D01*
X10177848Y-14278484D02*
X10158801Y-14307055D01*
X10158801Y-14307055D02*
X10139753Y-14326103D01*
X10139753Y-14326103D02*
X10120706Y-14335627D01*
X10301658Y-14278484D02*
X10434991Y-14278484D01*
X10434991Y-14278484D02*
X10349277Y-14478484D01*
X10492134Y-14278484D02*
X10625468Y-14278484D01*
X10625468Y-14278484D02*
X10539753Y-14478484D01*
X10692134Y-14278484D02*
X10692134Y-14316579D01*
X10768325Y-14278484D02*
X10768325Y-14316579D01*
X11063563Y-14554674D02*
X11054039Y-14545150D01*
X11054039Y-14545150D02*
X11034991Y-14516579D01*
X11034991Y-14516579D02*
X11025468Y-14497531D01*
X11025468Y-14497531D02*
X11015944Y-14468960D01*
X11015944Y-14468960D02*
X11006420Y-14421341D01*
X11006420Y-14421341D02*
X11006420Y-14383246D01*
X11006420Y-14383246D02*
X11015944Y-14335627D01*
X11015944Y-14335627D02*
X11025468Y-14307055D01*
X11025468Y-14307055D02*
X11034991Y-14288008D01*
X11034991Y-14288008D02*
X11054039Y-14259436D01*
X11054039Y-14259436D02*
X11063563Y-14249912D01*
X11177849Y-14278484D02*
X11196896Y-14278484D01*
X11196896Y-14278484D02*
X11215944Y-14288008D01*
X11215944Y-14288008D02*
X11225468Y-14297531D01*
X11225468Y-14297531D02*
X11234991Y-14316579D01*
X11234991Y-14316579D02*
X11244515Y-14354674D01*
X11244515Y-14354674D02*
X11244515Y-14402293D01*
X11244515Y-14402293D02*
X11234991Y-14440388D01*
X11234991Y-14440388D02*
X11225468Y-14459436D01*
X11225468Y-14459436D02*
X11215944Y-14468960D01*
X11215944Y-14468960D02*
X11196896Y-14478484D01*
X11196896Y-14478484D02*
X11177849Y-14478484D01*
X11177849Y-14478484D02*
X11158801Y-14468960D01*
X11158801Y-14468960D02*
X11149277Y-14459436D01*
X11149277Y-14459436D02*
X11139753Y-14440388D01*
X11139753Y-14440388D02*
X11130230Y-14402293D01*
X11130230Y-14402293D02*
X11130230Y-14354674D01*
X11130230Y-14354674D02*
X11139753Y-14316579D01*
X11139753Y-14316579D02*
X11149277Y-14297531D01*
X11149277Y-14297531D02*
X11158801Y-14288008D01*
X11158801Y-14288008D02*
X11177849Y-14278484D01*
X11482610Y-14478484D02*
X11482610Y-14278484D01*
X11568325Y-14478484D02*
X11568325Y-14373722D01*
X11568325Y-14373722D02*
X11558801Y-14354674D01*
X11558801Y-14354674D02*
X11539753Y-14345150D01*
X11539753Y-14345150D02*
X11511182Y-14345150D01*
X11511182Y-14345150D02*
X11492134Y-14354674D01*
X11492134Y-14354674D02*
X11482610Y-14364198D01*
X11692134Y-14478484D02*
X11673087Y-14468960D01*
X11673087Y-14468960D02*
X11663563Y-14459436D01*
X11663563Y-14459436D02*
X11654039Y-14440388D01*
X11654039Y-14440388D02*
X11654039Y-14383246D01*
X11654039Y-14383246D02*
X11663563Y-14364198D01*
X11663563Y-14364198D02*
X11673087Y-14354674D01*
X11673087Y-14354674D02*
X11692134Y-14345150D01*
X11692134Y-14345150D02*
X11720706Y-14345150D01*
X11720706Y-14345150D02*
X11739753Y-14354674D01*
X11739753Y-14354674D02*
X11749277Y-14364198D01*
X11749277Y-14364198D02*
X11758801Y-14383246D01*
X11758801Y-14383246D02*
X11758801Y-14440388D01*
X11758801Y-14440388D02*
X11749277Y-14459436D01*
X11749277Y-14459436D02*
X11739753Y-14468960D01*
X11739753Y-14468960D02*
X11720706Y-14478484D01*
X11720706Y-14478484D02*
X11692134Y-14478484D01*
X11873087Y-14478484D02*
X11854039Y-14468960D01*
X11854039Y-14468960D02*
X11844515Y-14449912D01*
X11844515Y-14449912D02*
X11844515Y-14278484D01*
X12025468Y-14468960D02*
X12006420Y-14478484D01*
X12006420Y-14478484D02*
X11968325Y-14478484D01*
X11968325Y-14478484D02*
X11949277Y-14468960D01*
X11949277Y-14468960D02*
X11939753Y-14449912D01*
X11939753Y-14449912D02*
X11939753Y-14373722D01*
X11939753Y-14373722D02*
X11949277Y-14354674D01*
X11949277Y-14354674D02*
X11968325Y-14345150D01*
X11968325Y-14345150D02*
X12006420Y-14345150D01*
X12006420Y-14345150D02*
X12025468Y-14354674D01*
X12025468Y-14354674D02*
X12034991Y-14373722D01*
X12034991Y-14373722D02*
X12034991Y-14392769D01*
X12034991Y-14392769D02*
X11939753Y-14411817D01*
X12111182Y-14468960D02*
X12130230Y-14478484D01*
X12130230Y-14478484D02*
X12168325Y-14478484D01*
X12168325Y-14478484D02*
X12187372Y-14468960D01*
X12187372Y-14468960D02*
X12196896Y-14449912D01*
X12196896Y-14449912D02*
X12196896Y-14440388D01*
X12196896Y-14440388D02*
X12187372Y-14421341D01*
X12187372Y-14421341D02*
X12168325Y-14411817D01*
X12168325Y-14411817D02*
X12139753Y-14411817D01*
X12139753Y-14411817D02*
X12120706Y-14402293D01*
X12120706Y-14402293D02*
X12111182Y-14383246D01*
X12111182Y-14383246D02*
X12111182Y-14373722D01*
X12111182Y-14373722D02*
X12120706Y-14354674D01*
X12120706Y-14354674D02*
X12139753Y-14345150D01*
X12139753Y-14345150D02*
X12168325Y-14345150D01*
X12168325Y-14345150D02*
X12187372Y-14354674D01*
X12434992Y-14402293D02*
X12587373Y-14402293D01*
X12511182Y-14478484D02*
X12511182Y-14326103D01*
X12825468Y-14297531D02*
X12834992Y-14288008D01*
X12834992Y-14288008D02*
X12854039Y-14278484D01*
X12854039Y-14278484D02*
X12901658Y-14278484D01*
X12901658Y-14278484D02*
X12920706Y-14288008D01*
X12920706Y-14288008D02*
X12930230Y-14297531D01*
X12930230Y-14297531D02*
X12939753Y-14316579D01*
X12939753Y-14316579D02*
X12939753Y-14335627D01*
X12939753Y-14335627D02*
X12930230Y-14364198D01*
X12930230Y-14364198D02*
X12815944Y-14478484D01*
X12815944Y-14478484D02*
X12939753Y-14478484D01*
X13168325Y-14468960D02*
X13187373Y-14478484D01*
X13187373Y-14478484D02*
X13225468Y-14478484D01*
X13225468Y-14478484D02*
X13244515Y-14468960D01*
X13244515Y-14468960D02*
X13254039Y-14449912D01*
X13254039Y-14449912D02*
X13254039Y-14440388D01*
X13254039Y-14440388D02*
X13244515Y-14421341D01*
X13244515Y-14421341D02*
X13225468Y-14411817D01*
X13225468Y-14411817D02*
X13196896Y-14411817D01*
X13196896Y-14411817D02*
X13177849Y-14402293D01*
X13177849Y-14402293D02*
X13168325Y-14383246D01*
X13168325Y-14383246D02*
X13168325Y-14373722D01*
X13168325Y-14373722D02*
X13177849Y-14354674D01*
X13177849Y-14354674D02*
X13196896Y-14345150D01*
X13196896Y-14345150D02*
X13225468Y-14345150D01*
X13225468Y-14345150D02*
X13244515Y-14354674D01*
X13368325Y-14478484D02*
X13349277Y-14468960D01*
X13349277Y-14468960D02*
X13339754Y-14449912D01*
X13339754Y-14449912D02*
X13339754Y-14278484D01*
X13473087Y-14478484D02*
X13454039Y-14468960D01*
X13454039Y-14468960D02*
X13444515Y-14459436D01*
X13444515Y-14459436D02*
X13434992Y-14440388D01*
X13434992Y-14440388D02*
X13434992Y-14383246D01*
X13434992Y-14383246D02*
X13444515Y-14364198D01*
X13444515Y-14364198D02*
X13454039Y-14354674D01*
X13454039Y-14354674D02*
X13473087Y-14345150D01*
X13473087Y-14345150D02*
X13501658Y-14345150D01*
X13501658Y-14345150D02*
X13520706Y-14354674D01*
X13520706Y-14354674D02*
X13530230Y-14364198D01*
X13530230Y-14364198D02*
X13539754Y-14383246D01*
X13539754Y-14383246D02*
X13539754Y-14440388D01*
X13539754Y-14440388D02*
X13530230Y-14459436D01*
X13530230Y-14459436D02*
X13520706Y-14468960D01*
X13520706Y-14468960D02*
X13501658Y-14478484D01*
X13501658Y-14478484D02*
X13473087Y-14478484D01*
X13596896Y-14345150D02*
X13673087Y-14345150D01*
X13625468Y-14278484D02*
X13625468Y-14449912D01*
X13625468Y-14449912D02*
X13634992Y-14468960D01*
X13634992Y-14468960D02*
X13654039Y-14478484D01*
X13654039Y-14478484D02*
X13673087Y-14478484D01*
X13730230Y-14468960D02*
X13749277Y-14478484D01*
X13749277Y-14478484D02*
X13787373Y-14478484D01*
X13787373Y-14478484D02*
X13806420Y-14468960D01*
X13806420Y-14468960D02*
X13815944Y-14449912D01*
X13815944Y-14449912D02*
X13815944Y-14440388D01*
X13815944Y-14440388D02*
X13806420Y-14421341D01*
X13806420Y-14421341D02*
X13787373Y-14411817D01*
X13787373Y-14411817D02*
X13758801Y-14411817D01*
X13758801Y-14411817D02*
X13739754Y-14402293D01*
X13739754Y-14402293D02*
X13730230Y-14383246D01*
X13730230Y-14383246D02*
X13730230Y-14373722D01*
X13730230Y-14373722D02*
X13739754Y-14354674D01*
X13739754Y-14354674D02*
X13758801Y-14345150D01*
X13758801Y-14345150D02*
X13787373Y-14345150D01*
X13787373Y-14345150D02*
X13806420Y-14354674D01*
X13882611Y-14554674D02*
X13892135Y-14545150D01*
X13892135Y-14545150D02*
X13911182Y-14516579D01*
X13911182Y-14516579D02*
X13920706Y-14497531D01*
X13920706Y-14497531D02*
X13930230Y-14468960D01*
X13930230Y-14468960D02*
X13939754Y-14421341D01*
X13939754Y-14421341D02*
X13939754Y-14383246D01*
X13939754Y-14383246D02*
X13930230Y-14335627D01*
X13930230Y-14335627D02*
X13920706Y-14307055D01*
X13920706Y-14307055D02*
X13911182Y-14288008D01*
X13911182Y-14288008D02*
X13892135Y-14259436D01*
X13892135Y-14259436D02*
X13882611Y-14249912D01*
D11*
X7479713Y-14672213D02*
X7479713Y-14629787D01*
X7437287Y-14629787D01*
X7437287Y-14672213D01*
X7479713Y-14672213D01*
D10*
X7787372Y-14542484D02*
X7806420Y-14542484D01*
X7806420Y-14542484D02*
X7825467Y-14552008D01*
X7825467Y-14552008D02*
X7834991Y-14561531D01*
X7834991Y-14561531D02*
X7844515Y-14580579D01*
X7844515Y-14580579D02*
X7854039Y-14618674D01*
X7854039Y-14618674D02*
X7854039Y-14666293D01*
X7854039Y-14666293D02*
X7844515Y-14704388D01*
X7844515Y-14704388D02*
X7834991Y-14723436D01*
X7834991Y-14723436D02*
X7825467Y-14732960D01*
X7825467Y-14732960D02*
X7806420Y-14742484D01*
X7806420Y-14742484D02*
X7787372Y-14742484D01*
X7787372Y-14742484D02*
X7768324Y-14732960D01*
X7768324Y-14732960D02*
X7758801Y-14723436D01*
X7758801Y-14723436D02*
X7749277Y-14704388D01*
X7749277Y-14704388D02*
X7739753Y-14666293D01*
X7739753Y-14666293D02*
X7739753Y-14618674D01*
X7739753Y-14618674D02*
X7749277Y-14580579D01*
X7749277Y-14580579D02*
X7758801Y-14561531D01*
X7758801Y-14561531D02*
X7768324Y-14552008D01*
X7768324Y-14552008D02*
X7787372Y-14542484D01*
X7939753Y-14723436D02*
X7949277Y-14732960D01*
X7949277Y-14732960D02*
X7939753Y-14742484D01*
X7939753Y-14742484D02*
X7930229Y-14732960D01*
X7930229Y-14732960D02*
X7939753Y-14723436D01*
X7939753Y-14723436D02*
X7939753Y-14742484D01*
X8120705Y-14542484D02*
X8082610Y-14542484D01*
X8082610Y-14542484D02*
X8063562Y-14552008D01*
X8063562Y-14552008D02*
X8054039Y-14561531D01*
X8054039Y-14561531D02*
X8034991Y-14590103D01*
X8034991Y-14590103D02*
X8025467Y-14628198D01*
X8025467Y-14628198D02*
X8025467Y-14704388D01*
X8025467Y-14704388D02*
X8034991Y-14723436D01*
X8034991Y-14723436D02*
X8044515Y-14732960D01*
X8044515Y-14732960D02*
X8063562Y-14742484D01*
X8063562Y-14742484D02*
X8101658Y-14742484D01*
X8101658Y-14742484D02*
X8120705Y-14732960D01*
X8120705Y-14732960D02*
X8130229Y-14723436D01*
X8130229Y-14723436D02*
X8139753Y-14704388D01*
X8139753Y-14704388D02*
X8139753Y-14656769D01*
X8139753Y-14656769D02*
X8130229Y-14637722D01*
X8130229Y-14637722D02*
X8120705Y-14628198D01*
X8120705Y-14628198D02*
X8101658Y-14618674D01*
X8101658Y-14618674D02*
X8063562Y-14618674D01*
X8063562Y-14618674D02*
X8044515Y-14628198D01*
X8044515Y-14628198D02*
X8034991Y-14637722D01*
X8034991Y-14637722D02*
X8025467Y-14656769D01*
X8263562Y-14542484D02*
X8282610Y-14542484D01*
X8282610Y-14542484D02*
X8301658Y-14552008D01*
X8301658Y-14552008D02*
X8311182Y-14561531D01*
X8311182Y-14561531D02*
X8320705Y-14580579D01*
X8320705Y-14580579D02*
X8330229Y-14618674D01*
X8330229Y-14618674D02*
X8330229Y-14666293D01*
X8330229Y-14666293D02*
X8320705Y-14704388D01*
X8320705Y-14704388D02*
X8311182Y-14723436D01*
X8311182Y-14723436D02*
X8301658Y-14732960D01*
X8301658Y-14732960D02*
X8282610Y-14742484D01*
X8282610Y-14742484D02*
X8263562Y-14742484D01*
X8263562Y-14742484D02*
X8244515Y-14732960D01*
X8244515Y-14732960D02*
X8234991Y-14723436D01*
X8234991Y-14723436D02*
X8225467Y-14704388D01*
X8225467Y-14704388D02*
X8215943Y-14666293D01*
X8215943Y-14666293D02*
X8215943Y-14618674D01*
X8215943Y-14618674D02*
X8225467Y-14580579D01*
X8225467Y-14580579D02*
X8234991Y-14561531D01*
X8234991Y-14561531D02*
X8244515Y-14552008D01*
X8244515Y-14552008D02*
X8263562Y-14542484D01*
X8454039Y-14542484D02*
X8473086Y-14542484D01*
X8473086Y-14542484D02*
X8492134Y-14552008D01*
X8492134Y-14552008D02*
X8501658Y-14561531D01*
X8501658Y-14561531D02*
X8511182Y-14580579D01*
X8511182Y-14580579D02*
X8520705Y-14618674D01*
X8520705Y-14618674D02*
X8520705Y-14666293D01*
X8520705Y-14666293D02*
X8511182Y-14704388D01*
X8511182Y-14704388D02*
X8501658Y-14723436D01*
X8501658Y-14723436D02*
X8492134Y-14732960D01*
X8492134Y-14732960D02*
X8473086Y-14742484D01*
X8473086Y-14742484D02*
X8454039Y-14742484D01*
X8454039Y-14742484D02*
X8434991Y-14732960D01*
X8434991Y-14732960D02*
X8425467Y-14723436D01*
X8425467Y-14723436D02*
X8415944Y-14704388D01*
X8415944Y-14704388D02*
X8406420Y-14666293D01*
X8406420Y-14666293D02*
X8406420Y-14618674D01*
X8406420Y-14618674D02*
X8415944Y-14580579D01*
X8415944Y-14580579D02*
X8425467Y-14561531D01*
X8425467Y-14561531D02*
X8434991Y-14552008D01*
X8434991Y-14552008D02*
X8454039Y-14542484D01*
X8606420Y-14742484D02*
X8606420Y-14609150D01*
X8606420Y-14628198D02*
X8615944Y-14618674D01*
X8615944Y-14618674D02*
X8634991Y-14609150D01*
X8634991Y-14609150D02*
X8663563Y-14609150D01*
X8663563Y-14609150D02*
X8682610Y-14618674D01*
X8682610Y-14618674D02*
X8692134Y-14637722D01*
X8692134Y-14637722D02*
X8692134Y-14742484D01*
X8692134Y-14637722D02*
X8701658Y-14618674D01*
X8701658Y-14618674D02*
X8720705Y-14609150D01*
X8720705Y-14609150D02*
X8749277Y-14609150D01*
X8749277Y-14609150D02*
X8768325Y-14618674D01*
X8768325Y-14618674D02*
X8777848Y-14637722D01*
X8777848Y-14637722D02*
X8777848Y-14742484D01*
X8873086Y-14742484D02*
X8873086Y-14609150D01*
X8873086Y-14628198D02*
X8882610Y-14618674D01*
X8882610Y-14618674D02*
X8901658Y-14609150D01*
X8901658Y-14609150D02*
X8930229Y-14609150D01*
X8930229Y-14609150D02*
X8949277Y-14618674D01*
X8949277Y-14618674D02*
X8958801Y-14637722D01*
X8958801Y-14637722D02*
X8958801Y-14742484D01*
X8958801Y-14637722D02*
X8968325Y-14618674D01*
X8968325Y-14618674D02*
X8987372Y-14609150D01*
X8987372Y-14609150D02*
X9015944Y-14609150D01*
X9015944Y-14609150D02*
X9034991Y-14618674D01*
X9034991Y-14618674D02*
X9044515Y-14637722D01*
X9044515Y-14637722D02*
X9044515Y-14742484D01*
X9434991Y-14532960D02*
X9263563Y-14790103D01*
X9692134Y-14542484D02*
X9711182Y-14542484D01*
X9711182Y-14542484D02*
X9730229Y-14552008D01*
X9730229Y-14552008D02*
X9739753Y-14561531D01*
X9739753Y-14561531D02*
X9749277Y-14580579D01*
X9749277Y-14580579D02*
X9758801Y-14618674D01*
X9758801Y-14618674D02*
X9758801Y-14666293D01*
X9758801Y-14666293D02*
X9749277Y-14704388D01*
X9749277Y-14704388D02*
X9739753Y-14723436D01*
X9739753Y-14723436D02*
X9730229Y-14732960D01*
X9730229Y-14732960D02*
X9711182Y-14742484D01*
X9711182Y-14742484D02*
X9692134Y-14742484D01*
X9692134Y-14742484D02*
X9673087Y-14732960D01*
X9673087Y-14732960D02*
X9663563Y-14723436D01*
X9663563Y-14723436D02*
X9654039Y-14704388D01*
X9654039Y-14704388D02*
X9644515Y-14666293D01*
X9644515Y-14666293D02*
X9644515Y-14618674D01*
X9644515Y-14618674D02*
X9654039Y-14580579D01*
X9654039Y-14580579D02*
X9663563Y-14561531D01*
X9663563Y-14561531D02*
X9673087Y-14552008D01*
X9673087Y-14552008D02*
X9692134Y-14542484D01*
X9844515Y-14723436D02*
X9854039Y-14732960D01*
X9854039Y-14732960D02*
X9844515Y-14742484D01*
X9844515Y-14742484D02*
X9834991Y-14732960D01*
X9834991Y-14732960D02*
X9844515Y-14723436D01*
X9844515Y-14723436D02*
X9844515Y-14742484D01*
X9977848Y-14542484D02*
X9996896Y-14542484D01*
X9996896Y-14542484D02*
X10015944Y-14552008D01*
X10015944Y-14552008D02*
X10025468Y-14561531D01*
X10025468Y-14561531D02*
X10034991Y-14580579D01*
X10034991Y-14580579D02*
X10044515Y-14618674D01*
X10044515Y-14618674D02*
X10044515Y-14666293D01*
X10044515Y-14666293D02*
X10034991Y-14704388D01*
X10034991Y-14704388D02*
X10025468Y-14723436D01*
X10025468Y-14723436D02*
X10015944Y-14732960D01*
X10015944Y-14732960D02*
X9996896Y-14742484D01*
X9996896Y-14742484D02*
X9977848Y-14742484D01*
X9977848Y-14742484D02*
X9958801Y-14732960D01*
X9958801Y-14732960D02*
X9949277Y-14723436D01*
X9949277Y-14723436D02*
X9939753Y-14704388D01*
X9939753Y-14704388D02*
X9930229Y-14666293D01*
X9930229Y-14666293D02*
X9930229Y-14618674D01*
X9930229Y-14618674D02*
X9939753Y-14580579D01*
X9939753Y-14580579D02*
X9949277Y-14561531D01*
X9949277Y-14561531D02*
X9958801Y-14552008D01*
X9958801Y-14552008D02*
X9977848Y-14542484D01*
X10120706Y-14561531D02*
X10130229Y-14552008D01*
X10130229Y-14552008D02*
X10149277Y-14542484D01*
X10149277Y-14542484D02*
X10196896Y-14542484D01*
X10196896Y-14542484D02*
X10215944Y-14552008D01*
X10215944Y-14552008D02*
X10225468Y-14561531D01*
X10225468Y-14561531D02*
X10234991Y-14580579D01*
X10234991Y-14580579D02*
X10234991Y-14599627D01*
X10234991Y-14599627D02*
X10225468Y-14628198D01*
X10225468Y-14628198D02*
X10111182Y-14742484D01*
X10111182Y-14742484D02*
X10234991Y-14742484D01*
X10301658Y-14542484D02*
X10425468Y-14542484D01*
X10425468Y-14542484D02*
X10358801Y-14618674D01*
X10358801Y-14618674D02*
X10387372Y-14618674D01*
X10387372Y-14618674D02*
X10406420Y-14628198D01*
X10406420Y-14628198D02*
X10415944Y-14637722D01*
X10415944Y-14637722D02*
X10425468Y-14656769D01*
X10425468Y-14656769D02*
X10425468Y-14704388D01*
X10425468Y-14704388D02*
X10415944Y-14723436D01*
X10415944Y-14723436D02*
X10406420Y-14732960D01*
X10406420Y-14732960D02*
X10387372Y-14742484D01*
X10387372Y-14742484D02*
X10330229Y-14742484D01*
X10330229Y-14742484D02*
X10311182Y-14732960D01*
X10311182Y-14732960D02*
X10301658Y-14723436D01*
X10596896Y-14542484D02*
X10558801Y-14542484D01*
X10558801Y-14542484D02*
X10539753Y-14552008D01*
X10539753Y-14552008D02*
X10530229Y-14561531D01*
X10530229Y-14561531D02*
X10511182Y-14590103D01*
X10511182Y-14590103D02*
X10501658Y-14628198D01*
X10501658Y-14628198D02*
X10501658Y-14704388D01*
X10501658Y-14704388D02*
X10511182Y-14723436D01*
X10511182Y-14723436D02*
X10520706Y-14732960D01*
X10520706Y-14732960D02*
X10539753Y-14742484D01*
X10539753Y-14742484D02*
X10577849Y-14742484D01*
X10577849Y-14742484D02*
X10596896Y-14732960D01*
X10596896Y-14732960D02*
X10606420Y-14723436D01*
X10606420Y-14723436D02*
X10615944Y-14704388D01*
X10615944Y-14704388D02*
X10615944Y-14656769D01*
X10615944Y-14656769D02*
X10606420Y-14637722D01*
X10606420Y-14637722D02*
X10596896Y-14628198D01*
X10596896Y-14628198D02*
X10577849Y-14618674D01*
X10577849Y-14618674D02*
X10539753Y-14618674D01*
X10539753Y-14618674D02*
X10520706Y-14628198D01*
X10520706Y-14628198D02*
X10511182Y-14637722D01*
X10511182Y-14637722D02*
X10501658Y-14656769D01*
X10692134Y-14542484D02*
X10692134Y-14580579D01*
X10768325Y-14542484D02*
X10768325Y-14580579D01*
X11063563Y-14818674D02*
X11054039Y-14809150D01*
X11054039Y-14809150D02*
X11034991Y-14780579D01*
X11034991Y-14780579D02*
X11025468Y-14761531D01*
X11025468Y-14761531D02*
X11015944Y-14732960D01*
X11015944Y-14732960D02*
X11006420Y-14685341D01*
X11006420Y-14685341D02*
X11006420Y-14647246D01*
X11006420Y-14647246D02*
X11015944Y-14599627D01*
X11015944Y-14599627D02*
X11025468Y-14571055D01*
X11025468Y-14571055D02*
X11034991Y-14552008D01*
X11034991Y-14552008D02*
X11054039Y-14523436D01*
X11054039Y-14523436D02*
X11063563Y-14513912D01*
X11244515Y-14742484D02*
X11130230Y-14742484D01*
X11187372Y-14742484D02*
X11187372Y-14542484D01*
X11187372Y-14542484D02*
X11168325Y-14571055D01*
X11168325Y-14571055D02*
X11149277Y-14590103D01*
X11149277Y-14590103D02*
X11130230Y-14599627D01*
X11482610Y-14742484D02*
X11482610Y-14542484D01*
X11568325Y-14742484D02*
X11568325Y-14637722D01*
X11568325Y-14637722D02*
X11558801Y-14618674D01*
X11558801Y-14618674D02*
X11539753Y-14609150D01*
X11539753Y-14609150D02*
X11511182Y-14609150D01*
X11511182Y-14609150D02*
X11492134Y-14618674D01*
X11492134Y-14618674D02*
X11482610Y-14628198D01*
X11692134Y-14742484D02*
X11673087Y-14732960D01*
X11673087Y-14732960D02*
X11663563Y-14723436D01*
X11663563Y-14723436D02*
X11654039Y-14704388D01*
X11654039Y-14704388D02*
X11654039Y-14647246D01*
X11654039Y-14647246D02*
X11663563Y-14628198D01*
X11663563Y-14628198D02*
X11673087Y-14618674D01*
X11673087Y-14618674D02*
X11692134Y-14609150D01*
X11692134Y-14609150D02*
X11720706Y-14609150D01*
X11720706Y-14609150D02*
X11739753Y-14618674D01*
X11739753Y-14618674D02*
X11749277Y-14628198D01*
X11749277Y-14628198D02*
X11758801Y-14647246D01*
X11758801Y-14647246D02*
X11758801Y-14704388D01*
X11758801Y-14704388D02*
X11749277Y-14723436D01*
X11749277Y-14723436D02*
X11739753Y-14732960D01*
X11739753Y-14732960D02*
X11720706Y-14742484D01*
X11720706Y-14742484D02*
X11692134Y-14742484D01*
X11873087Y-14742484D02*
X11854039Y-14732960D01*
X11854039Y-14732960D02*
X11844515Y-14713912D01*
X11844515Y-14713912D02*
X11844515Y-14542484D01*
X12025468Y-14732960D02*
X12006420Y-14742484D01*
X12006420Y-14742484D02*
X11968325Y-14742484D01*
X11968325Y-14742484D02*
X11949277Y-14732960D01*
X11949277Y-14732960D02*
X11939753Y-14713912D01*
X11939753Y-14713912D02*
X11939753Y-14637722D01*
X11939753Y-14637722D02*
X11949277Y-14618674D01*
X11949277Y-14618674D02*
X11968325Y-14609150D01*
X11968325Y-14609150D02*
X12006420Y-14609150D01*
X12006420Y-14609150D02*
X12025468Y-14618674D01*
X12025468Y-14618674D02*
X12034991Y-14637722D01*
X12034991Y-14637722D02*
X12034991Y-14656769D01*
X12034991Y-14656769D02*
X11939753Y-14675817D01*
X12101658Y-14818674D02*
X12111182Y-14809150D01*
X12111182Y-14809150D02*
X12130230Y-14780579D01*
X12130230Y-14780579D02*
X12139753Y-14761531D01*
X12139753Y-14761531D02*
X12149277Y-14732960D01*
X12149277Y-14732960D02*
X12158801Y-14685341D01*
X12158801Y-14685341D02*
X12158801Y-14647246D01*
X12158801Y-14647246D02*
X12149277Y-14599627D01*
X12149277Y-14599627D02*
X12139753Y-14571055D01*
X12139753Y-14571055D02*
X12130230Y-14552008D01*
X12130230Y-14552008D02*
X12111182Y-14523436D01*
X12111182Y-14523436D02*
X12101658Y-14513912D01*
D11*
X7438500Y-14965000D02*
X7488500Y-14915000D01*
X7438500Y-14865000D01*
X7388500Y-14915000D01*
X7438500Y-14965000D01*
D10*
X7854039Y-15006484D02*
X7739753Y-15006484D01*
X7796896Y-15006484D02*
X7796896Y-14806484D01*
X7796896Y-14806484D02*
X7777848Y-14835055D01*
X7777848Y-14835055D02*
X7758801Y-14854103D01*
X7758801Y-14854103D02*
X7739753Y-14863627D01*
X7939753Y-14987436D02*
X7949277Y-14996960D01*
X7949277Y-14996960D02*
X7939753Y-15006484D01*
X7939753Y-15006484D02*
X7930229Y-14996960D01*
X7930229Y-14996960D02*
X7939753Y-14987436D01*
X7939753Y-14987436D02*
X7939753Y-15006484D01*
X8073086Y-14806484D02*
X8092134Y-14806484D01*
X8092134Y-14806484D02*
X8111182Y-14816008D01*
X8111182Y-14816008D02*
X8120705Y-14825531D01*
X8120705Y-14825531D02*
X8130229Y-14844579D01*
X8130229Y-14844579D02*
X8139753Y-14882674D01*
X8139753Y-14882674D02*
X8139753Y-14930293D01*
X8139753Y-14930293D02*
X8130229Y-14968388D01*
X8130229Y-14968388D02*
X8120705Y-14987436D01*
X8120705Y-14987436D02*
X8111182Y-14996960D01*
X8111182Y-14996960D02*
X8092134Y-15006484D01*
X8092134Y-15006484D02*
X8073086Y-15006484D01*
X8073086Y-15006484D02*
X8054039Y-14996960D01*
X8054039Y-14996960D02*
X8044515Y-14987436D01*
X8044515Y-14987436D02*
X8034991Y-14968388D01*
X8034991Y-14968388D02*
X8025467Y-14930293D01*
X8025467Y-14930293D02*
X8025467Y-14882674D01*
X8025467Y-14882674D02*
X8034991Y-14844579D01*
X8034991Y-14844579D02*
X8044515Y-14825531D01*
X8044515Y-14825531D02*
X8054039Y-14816008D01*
X8054039Y-14816008D02*
X8073086Y-14806484D01*
X8263562Y-14806484D02*
X8282610Y-14806484D01*
X8282610Y-14806484D02*
X8301658Y-14816008D01*
X8301658Y-14816008D02*
X8311182Y-14825531D01*
X8311182Y-14825531D02*
X8320705Y-14844579D01*
X8320705Y-14844579D02*
X8330229Y-14882674D01*
X8330229Y-14882674D02*
X8330229Y-14930293D01*
X8330229Y-14930293D02*
X8320705Y-14968388D01*
X8320705Y-14968388D02*
X8311182Y-14987436D01*
X8311182Y-14987436D02*
X8301658Y-14996960D01*
X8301658Y-14996960D02*
X8282610Y-15006484D01*
X8282610Y-15006484D02*
X8263562Y-15006484D01*
X8263562Y-15006484D02*
X8244515Y-14996960D01*
X8244515Y-14996960D02*
X8234991Y-14987436D01*
X8234991Y-14987436D02*
X8225467Y-14968388D01*
X8225467Y-14968388D02*
X8215943Y-14930293D01*
X8215943Y-14930293D02*
X8215943Y-14882674D01*
X8215943Y-14882674D02*
X8225467Y-14844579D01*
X8225467Y-14844579D02*
X8234991Y-14825531D01*
X8234991Y-14825531D02*
X8244515Y-14816008D01*
X8244515Y-14816008D02*
X8263562Y-14806484D01*
X8454039Y-14806484D02*
X8473086Y-14806484D01*
X8473086Y-14806484D02*
X8492134Y-14816008D01*
X8492134Y-14816008D02*
X8501658Y-14825531D01*
X8501658Y-14825531D02*
X8511182Y-14844579D01*
X8511182Y-14844579D02*
X8520705Y-14882674D01*
X8520705Y-14882674D02*
X8520705Y-14930293D01*
X8520705Y-14930293D02*
X8511182Y-14968388D01*
X8511182Y-14968388D02*
X8501658Y-14987436D01*
X8501658Y-14987436D02*
X8492134Y-14996960D01*
X8492134Y-14996960D02*
X8473086Y-15006484D01*
X8473086Y-15006484D02*
X8454039Y-15006484D01*
X8454039Y-15006484D02*
X8434991Y-14996960D01*
X8434991Y-14996960D02*
X8425467Y-14987436D01*
X8425467Y-14987436D02*
X8415944Y-14968388D01*
X8415944Y-14968388D02*
X8406420Y-14930293D01*
X8406420Y-14930293D02*
X8406420Y-14882674D01*
X8406420Y-14882674D02*
X8415944Y-14844579D01*
X8415944Y-14844579D02*
X8425467Y-14825531D01*
X8425467Y-14825531D02*
X8434991Y-14816008D01*
X8434991Y-14816008D02*
X8454039Y-14806484D01*
X8606420Y-15006484D02*
X8606420Y-14873150D01*
X8606420Y-14892198D02*
X8615944Y-14882674D01*
X8615944Y-14882674D02*
X8634991Y-14873150D01*
X8634991Y-14873150D02*
X8663563Y-14873150D01*
X8663563Y-14873150D02*
X8682610Y-14882674D01*
X8682610Y-14882674D02*
X8692134Y-14901722D01*
X8692134Y-14901722D02*
X8692134Y-15006484D01*
X8692134Y-14901722D02*
X8701658Y-14882674D01*
X8701658Y-14882674D02*
X8720705Y-14873150D01*
X8720705Y-14873150D02*
X8749277Y-14873150D01*
X8749277Y-14873150D02*
X8768325Y-14882674D01*
X8768325Y-14882674D02*
X8777848Y-14901722D01*
X8777848Y-14901722D02*
X8777848Y-15006484D01*
X8873086Y-15006484D02*
X8873086Y-14873150D01*
X8873086Y-14892198D02*
X8882610Y-14882674D01*
X8882610Y-14882674D02*
X8901658Y-14873150D01*
X8901658Y-14873150D02*
X8930229Y-14873150D01*
X8930229Y-14873150D02*
X8949277Y-14882674D01*
X8949277Y-14882674D02*
X8958801Y-14901722D01*
X8958801Y-14901722D02*
X8958801Y-15006484D01*
X8958801Y-14901722D02*
X8968325Y-14882674D01*
X8968325Y-14882674D02*
X8987372Y-14873150D01*
X8987372Y-14873150D02*
X9015944Y-14873150D01*
X9015944Y-14873150D02*
X9034991Y-14882674D01*
X9034991Y-14882674D02*
X9044515Y-14901722D01*
X9044515Y-14901722D02*
X9044515Y-15006484D01*
X9434991Y-14796960D02*
X9263563Y-15054103D01*
X9692134Y-14806484D02*
X9711182Y-14806484D01*
X9711182Y-14806484D02*
X9730229Y-14816008D01*
X9730229Y-14816008D02*
X9739753Y-14825531D01*
X9739753Y-14825531D02*
X9749277Y-14844579D01*
X9749277Y-14844579D02*
X9758801Y-14882674D01*
X9758801Y-14882674D02*
X9758801Y-14930293D01*
X9758801Y-14930293D02*
X9749277Y-14968388D01*
X9749277Y-14968388D02*
X9739753Y-14987436D01*
X9739753Y-14987436D02*
X9730229Y-14996960D01*
X9730229Y-14996960D02*
X9711182Y-15006484D01*
X9711182Y-15006484D02*
X9692134Y-15006484D01*
X9692134Y-15006484D02*
X9673087Y-14996960D01*
X9673087Y-14996960D02*
X9663563Y-14987436D01*
X9663563Y-14987436D02*
X9654039Y-14968388D01*
X9654039Y-14968388D02*
X9644515Y-14930293D01*
X9644515Y-14930293D02*
X9644515Y-14882674D01*
X9644515Y-14882674D02*
X9654039Y-14844579D01*
X9654039Y-14844579D02*
X9663563Y-14825531D01*
X9663563Y-14825531D02*
X9673087Y-14816008D01*
X9673087Y-14816008D02*
X9692134Y-14806484D01*
X9844515Y-14987436D02*
X9854039Y-14996960D01*
X9854039Y-14996960D02*
X9844515Y-15006484D01*
X9844515Y-15006484D02*
X9834991Y-14996960D01*
X9834991Y-14996960D02*
X9844515Y-14987436D01*
X9844515Y-14987436D02*
X9844515Y-15006484D01*
X9977848Y-14806484D02*
X9996896Y-14806484D01*
X9996896Y-14806484D02*
X10015944Y-14816008D01*
X10015944Y-14816008D02*
X10025468Y-14825531D01*
X10025468Y-14825531D02*
X10034991Y-14844579D01*
X10034991Y-14844579D02*
X10044515Y-14882674D01*
X10044515Y-14882674D02*
X10044515Y-14930293D01*
X10044515Y-14930293D02*
X10034991Y-14968388D01*
X10034991Y-14968388D02*
X10025468Y-14987436D01*
X10025468Y-14987436D02*
X10015944Y-14996960D01*
X10015944Y-14996960D02*
X9996896Y-15006484D01*
X9996896Y-15006484D02*
X9977848Y-15006484D01*
X9977848Y-15006484D02*
X9958801Y-14996960D01*
X9958801Y-14996960D02*
X9949277Y-14987436D01*
X9949277Y-14987436D02*
X9939753Y-14968388D01*
X9939753Y-14968388D02*
X9930229Y-14930293D01*
X9930229Y-14930293D02*
X9930229Y-14882674D01*
X9930229Y-14882674D02*
X9939753Y-14844579D01*
X9939753Y-14844579D02*
X9949277Y-14825531D01*
X9949277Y-14825531D02*
X9958801Y-14816008D01*
X9958801Y-14816008D02*
X9977848Y-14806484D01*
X10111182Y-14806484D02*
X10234991Y-14806484D01*
X10234991Y-14806484D02*
X10168325Y-14882674D01*
X10168325Y-14882674D02*
X10196896Y-14882674D01*
X10196896Y-14882674D02*
X10215944Y-14892198D01*
X10215944Y-14892198D02*
X10225468Y-14901722D01*
X10225468Y-14901722D02*
X10234991Y-14920769D01*
X10234991Y-14920769D02*
X10234991Y-14968388D01*
X10234991Y-14968388D02*
X10225468Y-14987436D01*
X10225468Y-14987436D02*
X10215944Y-14996960D01*
X10215944Y-14996960D02*
X10196896Y-15006484D01*
X10196896Y-15006484D02*
X10139753Y-15006484D01*
X10139753Y-15006484D02*
X10120706Y-14996960D01*
X10120706Y-14996960D02*
X10111182Y-14987436D01*
X10330229Y-15006484D02*
X10368325Y-15006484D01*
X10368325Y-15006484D02*
X10387372Y-14996960D01*
X10387372Y-14996960D02*
X10396896Y-14987436D01*
X10396896Y-14987436D02*
X10415944Y-14958865D01*
X10415944Y-14958865D02*
X10425468Y-14920769D01*
X10425468Y-14920769D02*
X10425468Y-14844579D01*
X10425468Y-14844579D02*
X10415944Y-14825531D01*
X10415944Y-14825531D02*
X10406420Y-14816008D01*
X10406420Y-14816008D02*
X10387372Y-14806484D01*
X10387372Y-14806484D02*
X10349277Y-14806484D01*
X10349277Y-14806484D02*
X10330229Y-14816008D01*
X10330229Y-14816008D02*
X10320706Y-14825531D01*
X10320706Y-14825531D02*
X10311182Y-14844579D01*
X10311182Y-14844579D02*
X10311182Y-14892198D01*
X10311182Y-14892198D02*
X10320706Y-14911246D01*
X10320706Y-14911246D02*
X10330229Y-14920769D01*
X10330229Y-14920769D02*
X10349277Y-14930293D01*
X10349277Y-14930293D02*
X10387372Y-14930293D01*
X10387372Y-14930293D02*
X10406420Y-14920769D01*
X10406420Y-14920769D02*
X10415944Y-14911246D01*
X10415944Y-14911246D02*
X10425468Y-14892198D01*
X10596896Y-14873150D02*
X10596896Y-15006484D01*
X10549277Y-14796960D02*
X10501658Y-14939817D01*
X10501658Y-14939817D02*
X10625468Y-14939817D01*
X10692134Y-14806484D02*
X10692134Y-14844579D01*
X10768325Y-14806484D02*
X10768325Y-14844579D01*
X11063563Y-15082674D02*
X11054039Y-15073150D01*
X11054039Y-15073150D02*
X11034991Y-15044579D01*
X11034991Y-15044579D02*
X11025468Y-15025531D01*
X11025468Y-15025531D02*
X11015944Y-14996960D01*
X11015944Y-14996960D02*
X11006420Y-14949341D01*
X11006420Y-14949341D02*
X11006420Y-14911246D01*
X11006420Y-14911246D02*
X11015944Y-14863627D01*
X11015944Y-14863627D02*
X11025468Y-14835055D01*
X11025468Y-14835055D02*
X11034991Y-14816008D01*
X11034991Y-14816008D02*
X11054039Y-14787436D01*
X11054039Y-14787436D02*
X11063563Y-14777912D01*
X11120706Y-14806484D02*
X11244515Y-14806484D01*
X11244515Y-14806484D02*
X11177849Y-14882674D01*
X11177849Y-14882674D02*
X11206420Y-14882674D01*
X11206420Y-14882674D02*
X11225468Y-14892198D01*
X11225468Y-14892198D02*
X11234991Y-14901722D01*
X11234991Y-14901722D02*
X11244515Y-14920769D01*
X11244515Y-14920769D02*
X11244515Y-14968388D01*
X11244515Y-14968388D02*
X11234991Y-14987436D01*
X11234991Y-14987436D02*
X11225468Y-14996960D01*
X11225468Y-14996960D02*
X11206420Y-15006484D01*
X11206420Y-15006484D02*
X11149277Y-15006484D01*
X11149277Y-15006484D02*
X11130230Y-14996960D01*
X11130230Y-14996960D02*
X11120706Y-14987436D01*
X11434991Y-15006484D02*
X11320706Y-15006484D01*
X11377848Y-15006484D02*
X11377848Y-14806484D01*
X11377848Y-14806484D02*
X11358801Y-14835055D01*
X11358801Y-14835055D02*
X11339753Y-14854103D01*
X11339753Y-14854103D02*
X11320706Y-14863627D01*
X11673087Y-15006484D02*
X11673087Y-14806484D01*
X11758801Y-15006484D02*
X11758801Y-14901722D01*
X11758801Y-14901722D02*
X11749277Y-14882674D01*
X11749277Y-14882674D02*
X11730230Y-14873150D01*
X11730230Y-14873150D02*
X11701658Y-14873150D01*
X11701658Y-14873150D02*
X11682610Y-14882674D01*
X11682610Y-14882674D02*
X11673087Y-14892198D01*
X11882610Y-15006484D02*
X11863563Y-14996960D01*
X11863563Y-14996960D02*
X11854039Y-14987436D01*
X11854039Y-14987436D02*
X11844515Y-14968388D01*
X11844515Y-14968388D02*
X11844515Y-14911246D01*
X11844515Y-14911246D02*
X11854039Y-14892198D01*
X11854039Y-14892198D02*
X11863563Y-14882674D01*
X11863563Y-14882674D02*
X11882610Y-14873150D01*
X11882610Y-14873150D02*
X11911182Y-14873150D01*
X11911182Y-14873150D02*
X11930230Y-14882674D01*
X11930230Y-14882674D02*
X11939753Y-14892198D01*
X11939753Y-14892198D02*
X11949277Y-14911246D01*
X11949277Y-14911246D02*
X11949277Y-14968388D01*
X11949277Y-14968388D02*
X11939753Y-14987436D01*
X11939753Y-14987436D02*
X11930230Y-14996960D01*
X11930230Y-14996960D02*
X11911182Y-15006484D01*
X11911182Y-15006484D02*
X11882610Y-15006484D01*
X12063563Y-15006484D02*
X12044515Y-14996960D01*
X12044515Y-14996960D02*
X12034991Y-14977912D01*
X12034991Y-14977912D02*
X12034991Y-14806484D01*
X12215944Y-14996960D02*
X12196896Y-15006484D01*
X12196896Y-15006484D02*
X12158801Y-15006484D01*
X12158801Y-15006484D02*
X12139753Y-14996960D01*
X12139753Y-14996960D02*
X12130230Y-14977912D01*
X12130230Y-14977912D02*
X12130230Y-14901722D01*
X12130230Y-14901722D02*
X12139753Y-14882674D01*
X12139753Y-14882674D02*
X12158801Y-14873150D01*
X12158801Y-14873150D02*
X12196896Y-14873150D01*
X12196896Y-14873150D02*
X12215944Y-14882674D01*
X12215944Y-14882674D02*
X12225468Y-14901722D01*
X12225468Y-14901722D02*
X12225468Y-14920769D01*
X12225468Y-14920769D02*
X12130230Y-14939817D01*
X12301658Y-14996960D02*
X12320706Y-15006484D01*
X12320706Y-15006484D02*
X12358801Y-15006484D01*
X12358801Y-15006484D02*
X12377849Y-14996960D01*
X12377849Y-14996960D02*
X12387372Y-14977912D01*
X12387372Y-14977912D02*
X12387372Y-14968388D01*
X12387372Y-14968388D02*
X12377849Y-14949341D01*
X12377849Y-14949341D02*
X12358801Y-14939817D01*
X12358801Y-14939817D02*
X12330230Y-14939817D01*
X12330230Y-14939817D02*
X12311182Y-14930293D01*
X12311182Y-14930293D02*
X12301658Y-14911246D01*
X12301658Y-14911246D02*
X12301658Y-14901722D01*
X12301658Y-14901722D02*
X12311182Y-14882674D01*
X12311182Y-14882674D02*
X12330230Y-14873150D01*
X12330230Y-14873150D02*
X12358801Y-14873150D01*
X12358801Y-14873150D02*
X12377849Y-14882674D01*
X12454039Y-15082674D02*
X12463563Y-15073150D01*
X12463563Y-15073150D02*
X12482611Y-15044579D01*
X12482611Y-15044579D02*
X12492134Y-15025531D01*
X12492134Y-15025531D02*
X12501658Y-14996960D01*
X12501658Y-14996960D02*
X12511182Y-14949341D01*
X12511182Y-14949341D02*
X12511182Y-14911246D01*
X12511182Y-14911246D02*
X12501658Y-14863627D01*
X12501658Y-14863627D02*
X12492134Y-14835055D01*
X12492134Y-14835055D02*
X12482611Y-14816008D01*
X12482611Y-14816008D02*
X12463563Y-14787436D01*
X12463563Y-14787436D02*
X12454039Y-14777912D01*
D12*
X7356500Y-15113000D02*
X7488500Y-15245000D01*
X7488500Y-15113000D02*
X7356500Y-15245000D01*
X7488500Y-15179000D02*
G75*
G02*
X7356500Y-15179000I-66000J0D01*
G01*
X7356500Y-15179000D02*
G75*
G02*
X7488500Y-15179000I66000J0D01*
G01*
D10*
X7854039Y-15270484D02*
X7739753Y-15270484D01*
X7796896Y-15270484D02*
X7796896Y-15070484D01*
X7796896Y-15070484D02*
X7777848Y-15099055D01*
X7777848Y-15099055D02*
X7758801Y-15118103D01*
X7758801Y-15118103D02*
X7739753Y-15127627D01*
X7939753Y-15251436D02*
X7949277Y-15260960D01*
X7949277Y-15260960D02*
X7939753Y-15270484D01*
X7939753Y-15270484D02*
X7930229Y-15260960D01*
X7930229Y-15260960D02*
X7939753Y-15251436D01*
X7939753Y-15251436D02*
X7939753Y-15270484D01*
X8015943Y-15070484D02*
X8139753Y-15070484D01*
X8139753Y-15070484D02*
X8073086Y-15146674D01*
X8073086Y-15146674D02*
X8101658Y-15146674D01*
X8101658Y-15146674D02*
X8120705Y-15156198D01*
X8120705Y-15156198D02*
X8130229Y-15165722D01*
X8130229Y-15165722D02*
X8139753Y-15184769D01*
X8139753Y-15184769D02*
X8139753Y-15232388D01*
X8139753Y-15232388D02*
X8130229Y-15251436D01*
X8130229Y-15251436D02*
X8120705Y-15260960D01*
X8120705Y-15260960D02*
X8101658Y-15270484D01*
X8101658Y-15270484D02*
X8044515Y-15270484D01*
X8044515Y-15270484D02*
X8025467Y-15260960D01*
X8025467Y-15260960D02*
X8015943Y-15251436D01*
X8215943Y-15089531D02*
X8225467Y-15080008D01*
X8225467Y-15080008D02*
X8244515Y-15070484D01*
X8244515Y-15070484D02*
X8292134Y-15070484D01*
X8292134Y-15070484D02*
X8311182Y-15080008D01*
X8311182Y-15080008D02*
X8320705Y-15089531D01*
X8320705Y-15089531D02*
X8330229Y-15108579D01*
X8330229Y-15108579D02*
X8330229Y-15127627D01*
X8330229Y-15127627D02*
X8320705Y-15156198D01*
X8320705Y-15156198D02*
X8206420Y-15270484D01*
X8206420Y-15270484D02*
X8330229Y-15270484D01*
X8454039Y-15070484D02*
X8473086Y-15070484D01*
X8473086Y-15070484D02*
X8492134Y-15080008D01*
X8492134Y-15080008D02*
X8501658Y-15089531D01*
X8501658Y-15089531D02*
X8511182Y-15108579D01*
X8511182Y-15108579D02*
X8520705Y-15146674D01*
X8520705Y-15146674D02*
X8520705Y-15194293D01*
X8520705Y-15194293D02*
X8511182Y-15232388D01*
X8511182Y-15232388D02*
X8501658Y-15251436D01*
X8501658Y-15251436D02*
X8492134Y-15260960D01*
X8492134Y-15260960D02*
X8473086Y-15270484D01*
X8473086Y-15270484D02*
X8454039Y-15270484D01*
X8454039Y-15270484D02*
X8434991Y-15260960D01*
X8434991Y-15260960D02*
X8425467Y-15251436D01*
X8425467Y-15251436D02*
X8415944Y-15232388D01*
X8415944Y-15232388D02*
X8406420Y-15194293D01*
X8406420Y-15194293D02*
X8406420Y-15146674D01*
X8406420Y-15146674D02*
X8415944Y-15108579D01*
X8415944Y-15108579D02*
X8425467Y-15089531D01*
X8425467Y-15089531D02*
X8434991Y-15080008D01*
X8434991Y-15080008D02*
X8454039Y-15070484D01*
X8606420Y-15270484D02*
X8606420Y-15137150D01*
X8606420Y-15156198D02*
X8615944Y-15146674D01*
X8615944Y-15146674D02*
X8634991Y-15137150D01*
X8634991Y-15137150D02*
X8663563Y-15137150D01*
X8663563Y-15137150D02*
X8682610Y-15146674D01*
X8682610Y-15146674D02*
X8692134Y-15165722D01*
X8692134Y-15165722D02*
X8692134Y-15270484D01*
X8692134Y-15165722D02*
X8701658Y-15146674D01*
X8701658Y-15146674D02*
X8720705Y-15137150D01*
X8720705Y-15137150D02*
X8749277Y-15137150D01*
X8749277Y-15137150D02*
X8768325Y-15146674D01*
X8768325Y-15146674D02*
X8777848Y-15165722D01*
X8777848Y-15165722D02*
X8777848Y-15270484D01*
X8873086Y-15270484D02*
X8873086Y-15137150D01*
X8873086Y-15156198D02*
X8882610Y-15146674D01*
X8882610Y-15146674D02*
X8901658Y-15137150D01*
X8901658Y-15137150D02*
X8930229Y-15137150D01*
X8930229Y-15137150D02*
X8949277Y-15146674D01*
X8949277Y-15146674D02*
X8958801Y-15165722D01*
X8958801Y-15165722D02*
X8958801Y-15270484D01*
X8958801Y-15165722D02*
X8968325Y-15146674D01*
X8968325Y-15146674D02*
X8987372Y-15137150D01*
X8987372Y-15137150D02*
X9015944Y-15137150D01*
X9015944Y-15137150D02*
X9034991Y-15146674D01*
X9034991Y-15146674D02*
X9044515Y-15165722D01*
X9044515Y-15165722D02*
X9044515Y-15270484D01*
X9434991Y-15060960D02*
X9263563Y-15318103D01*
X9692134Y-15070484D02*
X9711182Y-15070484D01*
X9711182Y-15070484D02*
X9730229Y-15080008D01*
X9730229Y-15080008D02*
X9739753Y-15089531D01*
X9739753Y-15089531D02*
X9749277Y-15108579D01*
X9749277Y-15108579D02*
X9758801Y-15146674D01*
X9758801Y-15146674D02*
X9758801Y-15194293D01*
X9758801Y-15194293D02*
X9749277Y-15232388D01*
X9749277Y-15232388D02*
X9739753Y-15251436D01*
X9739753Y-15251436D02*
X9730229Y-15260960D01*
X9730229Y-15260960D02*
X9711182Y-15270484D01*
X9711182Y-15270484D02*
X9692134Y-15270484D01*
X9692134Y-15270484D02*
X9673087Y-15260960D01*
X9673087Y-15260960D02*
X9663563Y-15251436D01*
X9663563Y-15251436D02*
X9654039Y-15232388D01*
X9654039Y-15232388D02*
X9644515Y-15194293D01*
X9644515Y-15194293D02*
X9644515Y-15146674D01*
X9644515Y-15146674D02*
X9654039Y-15108579D01*
X9654039Y-15108579D02*
X9663563Y-15089531D01*
X9663563Y-15089531D02*
X9673087Y-15080008D01*
X9673087Y-15080008D02*
X9692134Y-15070484D01*
X9844515Y-15251436D02*
X9854039Y-15260960D01*
X9854039Y-15260960D02*
X9844515Y-15270484D01*
X9844515Y-15270484D02*
X9834991Y-15260960D01*
X9834991Y-15260960D02*
X9844515Y-15251436D01*
X9844515Y-15251436D02*
X9844515Y-15270484D01*
X9977848Y-15070484D02*
X9996896Y-15070484D01*
X9996896Y-15070484D02*
X10015944Y-15080008D01*
X10015944Y-15080008D02*
X10025468Y-15089531D01*
X10025468Y-15089531D02*
X10034991Y-15108579D01*
X10034991Y-15108579D02*
X10044515Y-15146674D01*
X10044515Y-15146674D02*
X10044515Y-15194293D01*
X10044515Y-15194293D02*
X10034991Y-15232388D01*
X10034991Y-15232388D02*
X10025468Y-15251436D01*
X10025468Y-15251436D02*
X10015944Y-15260960D01*
X10015944Y-15260960D02*
X9996896Y-15270484D01*
X9996896Y-15270484D02*
X9977848Y-15270484D01*
X9977848Y-15270484D02*
X9958801Y-15260960D01*
X9958801Y-15260960D02*
X9949277Y-15251436D01*
X9949277Y-15251436D02*
X9939753Y-15232388D01*
X9939753Y-15232388D02*
X9930229Y-15194293D01*
X9930229Y-15194293D02*
X9930229Y-15146674D01*
X9930229Y-15146674D02*
X9939753Y-15108579D01*
X9939753Y-15108579D02*
X9949277Y-15089531D01*
X9949277Y-15089531D02*
X9958801Y-15080008D01*
X9958801Y-15080008D02*
X9977848Y-15070484D01*
X10225468Y-15070484D02*
X10130229Y-15070484D01*
X10130229Y-15070484D02*
X10120706Y-15165722D01*
X10120706Y-15165722D02*
X10130229Y-15156198D01*
X10130229Y-15156198D02*
X10149277Y-15146674D01*
X10149277Y-15146674D02*
X10196896Y-15146674D01*
X10196896Y-15146674D02*
X10215944Y-15156198D01*
X10215944Y-15156198D02*
X10225468Y-15165722D01*
X10225468Y-15165722D02*
X10234991Y-15184769D01*
X10234991Y-15184769D02*
X10234991Y-15232388D01*
X10234991Y-15232388D02*
X10225468Y-15251436D01*
X10225468Y-15251436D02*
X10215944Y-15260960D01*
X10215944Y-15260960D02*
X10196896Y-15270484D01*
X10196896Y-15270484D02*
X10149277Y-15270484D01*
X10149277Y-15270484D02*
X10130229Y-15260960D01*
X10130229Y-15260960D02*
X10120706Y-15251436D01*
X10311182Y-15089531D02*
X10320706Y-15080008D01*
X10320706Y-15080008D02*
X10339753Y-15070484D01*
X10339753Y-15070484D02*
X10387372Y-15070484D01*
X10387372Y-15070484D02*
X10406420Y-15080008D01*
X10406420Y-15080008D02*
X10415944Y-15089531D01*
X10415944Y-15089531D02*
X10425468Y-15108579D01*
X10425468Y-15108579D02*
X10425468Y-15127627D01*
X10425468Y-15127627D02*
X10415944Y-15156198D01*
X10415944Y-15156198D02*
X10301658Y-15270484D01*
X10301658Y-15270484D02*
X10425468Y-15270484D01*
X10549277Y-15070484D02*
X10568325Y-15070484D01*
X10568325Y-15070484D02*
X10587372Y-15080008D01*
X10587372Y-15080008D02*
X10596896Y-15089531D01*
X10596896Y-15089531D02*
X10606420Y-15108579D01*
X10606420Y-15108579D02*
X10615944Y-15146674D01*
X10615944Y-15146674D02*
X10615944Y-15194293D01*
X10615944Y-15194293D02*
X10606420Y-15232388D01*
X10606420Y-15232388D02*
X10596896Y-15251436D01*
X10596896Y-15251436D02*
X10587372Y-15260960D01*
X10587372Y-15260960D02*
X10568325Y-15270484D01*
X10568325Y-15270484D02*
X10549277Y-15270484D01*
X10549277Y-15270484D02*
X10530229Y-15260960D01*
X10530229Y-15260960D02*
X10520706Y-15251436D01*
X10520706Y-15251436D02*
X10511182Y-15232388D01*
X10511182Y-15232388D02*
X10501658Y-15194293D01*
X10501658Y-15194293D02*
X10501658Y-15146674D01*
X10501658Y-15146674D02*
X10511182Y-15108579D01*
X10511182Y-15108579D02*
X10520706Y-15089531D01*
X10520706Y-15089531D02*
X10530229Y-15080008D01*
X10530229Y-15080008D02*
X10549277Y-15070484D01*
X10692134Y-15070484D02*
X10692134Y-15108579D01*
X10768325Y-15070484D02*
X10768325Y-15108579D01*
X11063563Y-15346674D02*
X11054039Y-15337150D01*
X11054039Y-15337150D02*
X11034991Y-15308579D01*
X11034991Y-15308579D02*
X11025468Y-15289531D01*
X11025468Y-15289531D02*
X11015944Y-15260960D01*
X11015944Y-15260960D02*
X11006420Y-15213341D01*
X11006420Y-15213341D02*
X11006420Y-15175246D01*
X11006420Y-15175246D02*
X11015944Y-15127627D01*
X11015944Y-15127627D02*
X11025468Y-15099055D01*
X11025468Y-15099055D02*
X11034991Y-15080008D01*
X11034991Y-15080008D02*
X11054039Y-15051436D01*
X11054039Y-15051436D02*
X11063563Y-15041912D01*
X11168325Y-15156198D02*
X11149277Y-15146674D01*
X11149277Y-15146674D02*
X11139753Y-15137150D01*
X11139753Y-15137150D02*
X11130230Y-15118103D01*
X11130230Y-15118103D02*
X11130230Y-15108579D01*
X11130230Y-15108579D02*
X11139753Y-15089531D01*
X11139753Y-15089531D02*
X11149277Y-15080008D01*
X11149277Y-15080008D02*
X11168325Y-15070484D01*
X11168325Y-15070484D02*
X11206420Y-15070484D01*
X11206420Y-15070484D02*
X11225468Y-15080008D01*
X11225468Y-15080008D02*
X11234991Y-15089531D01*
X11234991Y-15089531D02*
X11244515Y-15108579D01*
X11244515Y-15108579D02*
X11244515Y-15118103D01*
X11244515Y-15118103D02*
X11234991Y-15137150D01*
X11234991Y-15137150D02*
X11225468Y-15146674D01*
X11225468Y-15146674D02*
X11206420Y-15156198D01*
X11206420Y-15156198D02*
X11168325Y-15156198D01*
X11168325Y-15156198D02*
X11149277Y-15165722D01*
X11149277Y-15165722D02*
X11139753Y-15175246D01*
X11139753Y-15175246D02*
X11130230Y-15194293D01*
X11130230Y-15194293D02*
X11130230Y-15232388D01*
X11130230Y-15232388D02*
X11139753Y-15251436D01*
X11139753Y-15251436D02*
X11149277Y-15260960D01*
X11149277Y-15260960D02*
X11168325Y-15270484D01*
X11168325Y-15270484D02*
X11206420Y-15270484D01*
X11206420Y-15270484D02*
X11225468Y-15260960D01*
X11225468Y-15260960D02*
X11234991Y-15251436D01*
X11234991Y-15251436D02*
X11244515Y-15232388D01*
X11244515Y-15232388D02*
X11244515Y-15194293D01*
X11244515Y-15194293D02*
X11234991Y-15175246D01*
X11234991Y-15175246D02*
X11225468Y-15165722D01*
X11225468Y-15165722D02*
X11206420Y-15156198D01*
X11482610Y-15270484D02*
X11482610Y-15070484D01*
X11568325Y-15270484D02*
X11568325Y-15165722D01*
X11568325Y-15165722D02*
X11558801Y-15146674D01*
X11558801Y-15146674D02*
X11539753Y-15137150D01*
X11539753Y-15137150D02*
X11511182Y-15137150D01*
X11511182Y-15137150D02*
X11492134Y-15146674D01*
X11492134Y-15146674D02*
X11482610Y-15156198D01*
X11692134Y-15270484D02*
X11673087Y-15260960D01*
X11673087Y-15260960D02*
X11663563Y-15251436D01*
X11663563Y-15251436D02*
X11654039Y-15232388D01*
X11654039Y-15232388D02*
X11654039Y-15175246D01*
X11654039Y-15175246D02*
X11663563Y-15156198D01*
X11663563Y-15156198D02*
X11673087Y-15146674D01*
X11673087Y-15146674D02*
X11692134Y-15137150D01*
X11692134Y-15137150D02*
X11720706Y-15137150D01*
X11720706Y-15137150D02*
X11739753Y-15146674D01*
X11739753Y-15146674D02*
X11749277Y-15156198D01*
X11749277Y-15156198D02*
X11758801Y-15175246D01*
X11758801Y-15175246D02*
X11758801Y-15232388D01*
X11758801Y-15232388D02*
X11749277Y-15251436D01*
X11749277Y-15251436D02*
X11739753Y-15260960D01*
X11739753Y-15260960D02*
X11720706Y-15270484D01*
X11720706Y-15270484D02*
X11692134Y-15270484D01*
X11873087Y-15270484D02*
X11854039Y-15260960D01*
X11854039Y-15260960D02*
X11844515Y-15241912D01*
X11844515Y-15241912D02*
X11844515Y-15070484D01*
X12025468Y-15260960D02*
X12006420Y-15270484D01*
X12006420Y-15270484D02*
X11968325Y-15270484D01*
X11968325Y-15270484D02*
X11949277Y-15260960D01*
X11949277Y-15260960D02*
X11939753Y-15241912D01*
X11939753Y-15241912D02*
X11939753Y-15165722D01*
X11939753Y-15165722D02*
X11949277Y-15146674D01*
X11949277Y-15146674D02*
X11968325Y-15137150D01*
X11968325Y-15137150D02*
X12006420Y-15137150D01*
X12006420Y-15137150D02*
X12025468Y-15146674D01*
X12025468Y-15146674D02*
X12034991Y-15165722D01*
X12034991Y-15165722D02*
X12034991Y-15184769D01*
X12034991Y-15184769D02*
X11939753Y-15203817D01*
X12111182Y-15260960D02*
X12130230Y-15270484D01*
X12130230Y-15270484D02*
X12168325Y-15270484D01*
X12168325Y-15270484D02*
X12187372Y-15260960D01*
X12187372Y-15260960D02*
X12196896Y-15241912D01*
X12196896Y-15241912D02*
X12196896Y-15232388D01*
X12196896Y-15232388D02*
X12187372Y-15213341D01*
X12187372Y-15213341D02*
X12168325Y-15203817D01*
X12168325Y-15203817D02*
X12139753Y-15203817D01*
X12139753Y-15203817D02*
X12120706Y-15194293D01*
X12120706Y-15194293D02*
X12111182Y-15175246D01*
X12111182Y-15175246D02*
X12111182Y-15165722D01*
X12111182Y-15165722D02*
X12120706Y-15146674D01*
X12120706Y-15146674D02*
X12139753Y-15137150D01*
X12139753Y-15137150D02*
X12168325Y-15137150D01*
X12168325Y-15137150D02*
X12187372Y-15146674D01*
X12263563Y-15346674D02*
X12273087Y-15337150D01*
X12273087Y-15337150D02*
X12292134Y-15308579D01*
X12292134Y-15308579D02*
X12301658Y-15289531D01*
X12301658Y-15289531D02*
X12311182Y-15260960D01*
X12311182Y-15260960D02*
X12320706Y-15213341D01*
X12320706Y-15213341D02*
X12320706Y-15175246D01*
X12320706Y-15175246D02*
X12311182Y-15127627D01*
X12311182Y-15127627D02*
X12301658Y-15099055D01*
X12301658Y-15099055D02*
X12292134Y-15080008D01*
X12292134Y-15080008D02*
X12273087Y-15051436D01*
X12273087Y-15051436D02*
X12263563Y-15041912D01*
M02*
