%TF.GenerationSoftware,KiCad,Pcbnew,8.0.4*%
%TF.CreationDate,2025-10-24T14:41:15-04:00*%
%TF.ProjectId,Board,426f6172-642e-46b6-9963-61645f706362,rev?*%
%TF.SameCoordinates,Original*%
%TF.FileFunction,Soldermask,Top*%
%TF.FilePolarity,Negative*%
%FSLAX46Y46*%
G04 Gerber Fmt 4.6, Leading zero omitted, Abs format (unit mm)*
G04 Created by KiCad (PCBNEW 8.0.4) date 2025-10-24 14:41:15*
%MOMM*%
%LPD*%
G01*
G04 APERTURE LIST*
G04 Aperture macros list*
%AMRoundRect*
0 Rectangle with rounded corners*
0 $1 Rounding radius*
0 $2 $3 $4 $5 $6 $7 $8 $9 X,Y pos of 4 corners*
0 Add a 4 corners polygon primitive as box body*
4,1,4,$2,$3,$4,$5,$6,$7,$8,$9,$2,$3,0*
0 Add four circle primitives for the rounded corners*
1,1,$1+$1,$2,$3*
1,1,$1+$1,$4,$5*
1,1,$1+$1,$6,$7*
1,1,$1+$1,$8,$9*
0 Add four rect primitives between the rounded corners*
20,1,$1+$1,$2,$3,$4,$5,0*
20,1,$1+$1,$4,$5,$6,$7,0*
20,1,$1+$1,$6,$7,$8,$9,0*
20,1,$1+$1,$8,$9,$2,$3,0*%
%AMFreePoly0*
4,1,6,1.000000,0.000000,0.500000,-0.750000,-0.500000,-0.750000,-0.500000,0.750000,0.500000,0.750000,1.000000,0.000000,1.000000,0.000000,$1*%
%AMFreePoly1*
4,1,6,0.500000,-0.750000,-0.650000,-0.750000,-0.150000,0.000000,-0.650000,0.750000,0.500000,0.750000,0.500000,-0.750000,0.500000,-0.750000,$1*%
G04 Aperture macros list end*
%ADD10RoundRect,0.250000X-0.450000X0.350000X-0.450000X-0.350000X0.450000X-0.350000X0.450000X0.350000X0*%
%ADD11R,1.600000X0.850000*%
%ADD12R,2.400000X2.000000*%
%ADD13O,3.204000X1.704000*%
%ADD14RoundRect,0.250000X0.475000X-0.337500X0.475000X0.337500X-0.475000X0.337500X-0.475000X-0.337500X0*%
%ADD15RoundRect,0.250000X-0.412500X-0.650000X0.412500X-0.650000X0.412500X0.650000X-0.412500X0.650000X0*%
%ADD16RoundRect,0.237500X-0.300000X-0.237500X0.300000X-0.237500X0.300000X0.237500X-0.300000X0.237500X0*%
%ADD17RoundRect,0.237500X0.250000X0.237500X-0.250000X0.237500X-0.250000X-0.237500X0.250000X-0.237500X0*%
%ADD18RoundRect,0.237500X0.300000X0.237500X-0.300000X0.237500X-0.300000X-0.237500X0.300000X-0.237500X0*%
%ADD19RoundRect,0.250000X-0.337500X-0.475000X0.337500X-0.475000X0.337500X0.475000X-0.337500X0.475000X0*%
%ADD20RoundRect,0.150000X-0.650000X-0.150000X0.650000X-0.150000X0.650000X0.150000X-0.650000X0.150000X0*%
%ADD21R,2.400000X3.200000*%
%ADD22RoundRect,0.250000X0.337500X0.475000X-0.337500X0.475000X-0.337500X-0.475000X0.337500X-0.475000X0*%
%ADD23RoundRect,0.250000X0.450000X-0.350000X0.450000X0.350000X-0.450000X0.350000X-0.450000X-0.350000X0*%
%ADD24FreePoly0,0.000000*%
%ADD25FreePoly1,0.000000*%
%ADD26R,1.700000X1.700000*%
%ADD27O,1.700000X1.700000*%
%ADD28RoundRect,0.250000X0.650000X-0.412500X0.650000X0.412500X-0.650000X0.412500X-0.650000X-0.412500X0*%
%ADD29RoundRect,0.250000X1.250000X0.550000X-1.250000X0.550000X-1.250000X-0.550000X1.250000X-0.550000X0*%
%ADD30RoundRect,0.250000X0.350000X0.450000X-0.350000X0.450000X-0.350000X-0.450000X0.350000X-0.450000X0*%
%ADD31C,1.600000*%
%ADD32RoundRect,0.160000X0.160000X-0.197500X0.160000X0.197500X-0.160000X0.197500X-0.160000X-0.197500X0*%
%ADD33RoundRect,0.250000X-0.450000X0.325000X-0.450000X-0.325000X0.450000X-0.325000X0.450000X0.325000X0*%
%ADD34RoundRect,0.250000X-0.675000X-1.625000X0.675000X-1.625000X0.675000X1.625000X-0.675000X1.625000X0*%
%ADD35R,4.038600X3.657600*%
%ADD36R,3.960000X1.980000*%
%ADD37O,3.960000X1.980000*%
%ADD38R,0.400000X1.400000*%
%ADD39O,1.050000X1.900000*%
%ADD40R,1.150000X1.450000*%
%ADD41R,1.750000X1.900000*%
%ADD42FreePoly0,90.000000*%
%ADD43FreePoly1,90.000000*%
%ADD44R,0.550000X1.500000*%
%ADD45R,1.500000X0.550000*%
%ADD46RoundRect,0.250000X0.250000X-0.525000X0.250000X0.525000X-0.250000X0.525000X-0.250000X-0.525000X0*%
%ADD47R,1.980000X3.960000*%
%ADD48O,1.980000X3.960000*%
%ADD49RoundRect,0.237500X-0.237500X0.250000X-0.237500X-0.250000X0.237500X-0.250000X0.237500X0.250000X0*%
%ADD50FreePoly0,180.000000*%
%ADD51FreePoly1,180.000000*%
%ADD52RoundRect,0.250000X-0.475000X0.337500X-0.475000X-0.337500X0.475000X-0.337500X0.475000X0.337500X0*%
G04 APERTURE END LIST*
D10*
%TO.C,R1*%
X149550000Y-98880000D03*
X149550000Y-100880000D03*
%TD*%
D11*
%TO.C,D6*%
X173550000Y-58400000D03*
X173550000Y-56650000D03*
X170050000Y-56650000D03*
X170050000Y-58400000D03*
%TD*%
D12*
%TO.C,Y1*%
X153540000Y-81660000D03*
X153540000Y-85360000D03*
%TD*%
D13*
%TO.C,ACC1*%
X140348400Y-123292600D03*
X140348400Y-110592600D03*
X140348400Y-125832600D03*
X140348400Y-113132600D03*
X140348400Y-115672600D03*
X140348400Y-108052600D03*
X140348400Y-120752600D03*
X140348400Y-118212600D03*
%TD*%
D11*
%TO.C,D12*%
X173690000Y-75030000D03*
X173690000Y-73280000D03*
X170190000Y-73280000D03*
X170190000Y-75030000D03*
%TD*%
D14*
%TO.C,C5*%
X134590000Y-88007500D03*
X134590000Y-85932500D03*
%TD*%
D11*
%TO.C,D10*%
X173600000Y-69555000D03*
X173600000Y-67805000D03*
X170100000Y-67805000D03*
X170100000Y-69555000D03*
%TD*%
D15*
%TO.C,C8*%
X108247500Y-52425000D03*
X111372500Y-52425000D03*
%TD*%
D16*
%TO.C,C7*%
X117470000Y-67575000D03*
X119195000Y-67575000D03*
%TD*%
D17*
%TO.C,R14*%
X116470000Y-100110000D03*
X114645000Y-100110000D03*
%TD*%
D11*
%TO.C,D20*%
X173660000Y-96860000D03*
X173660000Y-95110000D03*
X170160000Y-95110000D03*
X170160000Y-96860000D03*
%TD*%
D17*
%TO.C,R17*%
X101872500Y-100970000D03*
X100047500Y-100970000D03*
%TD*%
D18*
%TO.C,C16*%
X106702500Y-123000000D03*
X104977500Y-123000000D03*
%TD*%
D11*
%TO.C,D24*%
X173870000Y-107860000D03*
X173870000Y-106110000D03*
X170370000Y-106110000D03*
X170370000Y-107860000D03*
%TD*%
%TO.C,D5*%
X166590000Y-58360000D03*
X166590000Y-56610000D03*
X163090000Y-56610000D03*
X163090000Y-58360000D03*
%TD*%
D17*
%TO.C,R21*%
X102262500Y-125680000D03*
X100437500Y-125680000D03*
%TD*%
D11*
%TO.C,D15*%
X166650000Y-85865000D03*
X166650000Y-84115000D03*
X163150000Y-84115000D03*
X163150000Y-85865000D03*
%TD*%
%TO.C,D7*%
X166580000Y-64025000D03*
X166580000Y-62275000D03*
X163080000Y-62275000D03*
X163080000Y-64025000D03*
%TD*%
D19*
%TO.C,C3*%
X157110000Y-81510000D03*
X159185000Y-81510000D03*
%TD*%
D20*
%TO.C,U4*%
X109380000Y-120450000D03*
X109380000Y-121720000D03*
X109380000Y-122990000D03*
X109380000Y-124260000D03*
X114680000Y-124260000D03*
X114680000Y-122990000D03*
X114680000Y-121720000D03*
X114680000Y-120450000D03*
D21*
X112030000Y-122355000D03*
%TD*%
D16*
%TO.C,C13*%
X117560000Y-94910000D03*
X119285000Y-94910000D03*
%TD*%
D22*
%TO.C,C1*%
X133807500Y-97820000D03*
X131732500Y-97820000D03*
%TD*%
D23*
%TO.C,R8*%
X156590000Y-74920000D03*
X156590000Y-72920000D03*
%TD*%
D11*
%TO.C,D13*%
X166610000Y-80390000D03*
X166610000Y-78640000D03*
X163110000Y-78640000D03*
X163110000Y-80390000D03*
%TD*%
%TO.C,D19*%
X166790000Y-96830000D03*
X166790000Y-95080000D03*
X163290000Y-95080000D03*
X163290000Y-96830000D03*
%TD*%
D24*
%TO.C,JP3*%
X158510000Y-109820000D03*
D25*
X159960000Y-109820000D03*
%TD*%
D26*
%TO.C,J8*%
X132990000Y-117420000D03*
D27*
X132990000Y-114880000D03*
%TD*%
D28*
%TO.C,C15*%
X114570000Y-117675000D03*
X114570000Y-114550000D03*
%TD*%
D29*
%TO.C,C2*%
X133730000Y-92830000D03*
X129330000Y-92830000D03*
%TD*%
D17*
%TO.C,R16*%
X101910000Y-98550000D03*
X100085000Y-98550000D03*
%TD*%
D11*
%TO.C,D25*%
X166790000Y-113360000D03*
X166790000Y-111610000D03*
X163290000Y-111610000D03*
X163290000Y-113360000D03*
%TD*%
D30*
%TO.C,R5*%
X154500000Y-88620000D03*
X152500000Y-88620000D03*
%TD*%
D17*
%TO.C,R10*%
X101910000Y-69115000D03*
X100085000Y-69115000D03*
%TD*%
D11*
%TO.C,D14*%
X173700000Y-80420000D03*
X173700000Y-78670000D03*
X170200000Y-78670000D03*
X170200000Y-80420000D03*
%TD*%
D10*
%TO.C,R2*%
X146570000Y-98850000D03*
X146570000Y-100850000D03*
%TD*%
D20*
%TO.C,U3*%
X109240000Y-93595000D03*
X109240000Y-94865000D03*
X109240000Y-96135000D03*
X109240000Y-97405000D03*
X114540000Y-97405000D03*
X114540000Y-96135000D03*
X114540000Y-94865000D03*
X114540000Y-93595000D03*
D21*
X111890000Y-95500000D03*
%TD*%
D17*
%TO.C,R6*%
X101940000Y-71595000D03*
X100115000Y-71595000D03*
%TD*%
D31*
%TO.C,.*%
X136990000Y-60790000D03*
%TD*%
D32*
%TO.C,R18*%
X117260000Y-124780000D03*
X117260000Y-123585000D03*
%TD*%
D11*
%TO.C,D3*%
X166670000Y-52860000D03*
X166670000Y-51110000D03*
X163170000Y-51110000D03*
X163170000Y-52860000D03*
%TD*%
%TO.C,D23*%
X166770000Y-107940000D03*
X166770000Y-106190000D03*
X163270000Y-106190000D03*
X163270000Y-107940000D03*
%TD*%
%TO.C,D8*%
X173540000Y-64085000D03*
X173540000Y-62335000D03*
X170040000Y-62335000D03*
X170040000Y-64085000D03*
%TD*%
D33*
%TO.C,D2*%
X146590000Y-93850000D03*
X146590000Y-95900000D03*
%TD*%
D32*
%TO.C,R11*%
X117140000Y-71080000D03*
X117140000Y-69885000D03*
%TD*%
D34*
%TO.C,D30*%
X107090000Y-116495000D03*
X111640000Y-116495000D03*
%TD*%
D26*
%TO.C,U2*%
X159850000Y-129140000D03*
D27*
X162390000Y-129140000D03*
X164930000Y-129140000D03*
X167470000Y-129140000D03*
%TD*%
D26*
%TO.C,J1*%
X158460000Y-92430000D03*
D27*
X158460000Y-94970000D03*
X155920000Y-92430000D03*
X155920000Y-94970000D03*
X153380000Y-92430000D03*
X153380000Y-94970000D03*
%TD*%
D33*
%TO.C,D1*%
X149560000Y-93860000D03*
X149560000Y-95910000D03*
%TD*%
D20*
%TO.C,U6*%
X109240000Y-66580000D03*
X109240000Y-67850000D03*
X109240000Y-69120000D03*
X109240000Y-70390000D03*
X114540000Y-70390000D03*
X114540000Y-69120000D03*
X114540000Y-67850000D03*
X114540000Y-66580000D03*
D21*
X111890000Y-68485000D03*
%TD*%
D11*
%TO.C,D16*%
X173640000Y-85875000D03*
X173640000Y-84125000D03*
X170140000Y-84125000D03*
X170140000Y-85875000D03*
%TD*%
D17*
%TO.C,R22*%
X102272500Y-128210000D03*
X100447500Y-128210000D03*
%TD*%
D35*
%TO.C,L3*%
X97250000Y-116465000D03*
X97250000Y-106203400D03*
%TD*%
D36*
%TO.C,J7*%
X82480000Y-76950000D03*
D37*
X82480000Y-81950000D03*
X82480000Y-86950000D03*
X82480000Y-91950000D03*
%TD*%
D35*
%TO.C,L1*%
X97460000Y-62695000D03*
X97460000Y-52433400D03*
%TD*%
D28*
%TO.C,C11*%
X114510000Y-90890000D03*
X114510000Y-87765000D03*
%TD*%
D26*
%TO.C,J6*%
X130220000Y-86120000D03*
D27*
X130220000Y-83580000D03*
X130220000Y-81040000D03*
X130220000Y-78500000D03*
X130220000Y-75960000D03*
X130220000Y-73420000D03*
%TD*%
D18*
%TO.C,C9*%
X106380000Y-69115000D03*
X104655000Y-69115000D03*
%TD*%
D11*
%TO.C,D21*%
X166760000Y-102380000D03*
X166760000Y-100630000D03*
X163260000Y-100630000D03*
X163260000Y-102380000D03*
%TD*%
D38*
%TO.C,J2*%
X126310000Y-125180000D03*
X126960000Y-125180000D03*
X127610000Y-125180000D03*
X128260000Y-125180000D03*
X128910000Y-125180000D03*
D39*
X124035000Y-127830000D03*
D40*
X125290000Y-125600000D03*
D41*
X126485000Y-127830000D03*
X128735000Y-127830000D03*
D40*
X129930000Y-125600000D03*
D39*
X131185000Y-127830000D03*
%TD*%
D42*
%TO.C,JP1*%
X125690000Y-122120000D03*
D43*
X125690000Y-120670000D03*
%TD*%
D34*
%TO.C,D29*%
X106900000Y-89630000D03*
X111450000Y-89630000D03*
%TD*%
D44*
%TO.C,U1*%
X139850000Y-90940000D03*
X140650000Y-90940000D03*
X141450000Y-90940000D03*
X142250000Y-90940000D03*
X143050000Y-90940000D03*
X143850000Y-90940000D03*
X144650000Y-90940000D03*
X145450000Y-90940000D03*
X146250000Y-90940000D03*
X147050000Y-90940000D03*
X147850000Y-90940000D03*
D45*
X149550000Y-89240000D03*
X149550000Y-88440000D03*
X149550000Y-87640000D03*
X149550000Y-86840000D03*
X149550000Y-86040000D03*
X149550000Y-85240000D03*
X149550000Y-84440000D03*
X149550000Y-83640000D03*
X149550000Y-82840000D03*
X149550000Y-82040000D03*
X149550000Y-81240000D03*
D44*
X147850000Y-79540000D03*
X147050000Y-79540000D03*
X146250000Y-79540000D03*
X145450000Y-79540000D03*
X144650000Y-79540000D03*
X143850000Y-79540000D03*
X143050000Y-79540000D03*
X142250000Y-79540000D03*
X141450000Y-79540000D03*
X140650000Y-79540000D03*
X139850000Y-79540000D03*
D45*
X138150000Y-81240000D03*
X138150000Y-82040000D03*
X138150000Y-82840000D03*
X138150000Y-83640000D03*
X138150000Y-84440000D03*
X138150000Y-85240000D03*
X138150000Y-86040000D03*
X138150000Y-86840000D03*
X138150000Y-87640000D03*
X138150000Y-88440000D03*
X138150000Y-89240000D03*
%TD*%
D17*
%TO.C,R19*%
X116500000Y-126835000D03*
X114675000Y-126835000D03*
%TD*%
D26*
%TO.C,J4*%
X138770000Y-73950000D03*
D27*
X141310000Y-73950000D03*
X143850000Y-73950000D03*
X146390000Y-73950000D03*
X148930000Y-73950000D03*
%TD*%
D46*
%TO.C,SW1*%
X131800000Y-107400000D03*
X131800000Y-102150000D03*
X135000000Y-107400000D03*
X135000000Y-102150000D03*
%TD*%
D47*
%TO.C,J5*%
X138630000Y-56320000D03*
D48*
X143630000Y-56320000D03*
%TD*%
D15*
%TO.C,C14*%
X108237500Y-79820000D03*
X111362500Y-79820000D03*
%TD*%
D35*
%TO.C,L2*%
X97270000Y-89670800D03*
X97270000Y-79409200D03*
%TD*%
D17*
%TO.C,R20*%
X102272500Y-122990000D03*
X100447500Y-122990000D03*
%TD*%
D49*
%TO.C,R7*%
X136430000Y-121477500D03*
X136430000Y-123302500D03*
%TD*%
D50*
%TO.C,JP4*%
X115935000Y-76320000D03*
D51*
X114485000Y-76320000D03*
%TD*%
D28*
%TO.C,C10*%
X114770000Y-63915000D03*
X114770000Y-60790000D03*
%TD*%
D16*
%TO.C,C17*%
X117550000Y-121745000D03*
X119275000Y-121745000D03*
%TD*%
D18*
%TO.C,C12*%
X106420000Y-96140000D03*
X104695000Y-96140000D03*
%TD*%
D10*
%TO.C,R4*%
X140360000Y-93850000D03*
X140360000Y-95850000D03*
%TD*%
D52*
%TO.C,C6*%
X143340000Y-98860000D03*
X143340000Y-100935000D03*
%TD*%
D11*
%TO.C,D11*%
X166530000Y-74960000D03*
X166530000Y-73210000D03*
X163030000Y-73210000D03*
X163030000Y-74960000D03*
%TD*%
%TO.C,D18*%
X173690000Y-91385000D03*
X173690000Y-89635000D03*
X170190000Y-89635000D03*
X170190000Y-91385000D03*
%TD*%
D19*
%TO.C,C4*%
X157290000Y-85410000D03*
X159365000Y-85410000D03*
%TD*%
D15*
%TO.C,C18*%
X108275000Y-106345000D03*
X111400000Y-106345000D03*
%TD*%
D47*
%TO.C,J3*%
X124200000Y-56280000D03*
D48*
X129200000Y-56280000D03*
%TD*%
D17*
%TO.C,R12*%
X116440000Y-73075000D03*
X114615000Y-73075000D03*
%TD*%
D32*
%TO.C,R13*%
X117200000Y-98045000D03*
X117200000Y-96850000D03*
%TD*%
D10*
%TO.C,R3*%
X143330000Y-93840000D03*
X143330000Y-95840000D03*
%TD*%
D11*
%TO.C,D4*%
X173660000Y-52880000D03*
X173660000Y-51130000D03*
X170160000Y-51130000D03*
X170160000Y-52880000D03*
%TD*%
%TO.C,D17*%
X166710000Y-91355000D03*
X166710000Y-89605000D03*
X163210000Y-89605000D03*
X163210000Y-91355000D03*
%TD*%
%TO.C,D22*%
X173800000Y-102375000D03*
X173800000Y-100625000D03*
X170300000Y-100625000D03*
X170300000Y-102375000D03*
%TD*%
%TO.C,D26*%
X173800000Y-113370000D03*
X173800000Y-111620000D03*
X170300000Y-111620000D03*
X170300000Y-113370000D03*
%TD*%
D34*
%TO.C,D28*%
X106930000Y-62725000D03*
X111480000Y-62725000D03*
%TD*%
D11*
%TO.C,D9*%
X166580000Y-69505000D03*
X166580000Y-67755000D03*
X163080000Y-67755000D03*
X163080000Y-69505000D03*
%TD*%
D17*
%TO.C,R9*%
X101940000Y-74085000D03*
X100115000Y-74085000D03*
%TD*%
%TO.C,R15*%
X101940000Y-96150000D03*
X100115000Y-96150000D03*
%TD*%
M02*
