%TF.GenerationSoftware,KiCad,Pcbnew,8.0.4*%
%TF.CreationDate,2025-10-24T14:41:15-04:00*%
%TF.ProjectId,Board,426f6172-642e-46b6-9963-61645f706362,rev?*%
%TF.SameCoordinates,Original*%
%TF.FileFunction,Soldermask,Bot*%
%TF.FilePolarity,Negative*%
%FSLAX46Y46*%
G04 Gerber Fmt 4.6, Leading zero omitted, Abs format (unit mm)*
G04 Created by KiCad (PCBNEW 8.0.4) date 2025-10-24 14:41:15*
%MOMM*%
%LPD*%
G01*
G04 APERTURE LIST*
%ADD10O,3.204000X1.704000*%
%ADD11R,1.700000X1.700000*%
%ADD12O,1.700000X1.700000*%
%ADD13C,1.600000*%
%ADD14R,3.960000X1.980000*%
%ADD15O,3.960000X1.980000*%
%ADD16O,1.050000X1.900000*%
%ADD17R,1.980000X3.960000*%
%ADD18O,1.980000X3.960000*%
G04 APERTURE END LIST*
D10*
%TO.C,ACC1*%
X140348400Y-123292600D03*
X140348400Y-110592600D03*
X140348400Y-125832600D03*
X140348400Y-113132600D03*
X140348400Y-115672600D03*
X140348400Y-108052600D03*
X140348400Y-120752600D03*
X140348400Y-118212600D03*
%TD*%
D11*
%TO.C,J8*%
X132990000Y-117420000D03*
D12*
X132990000Y-114880000D03*
%TD*%
D13*
%TO.C,.*%
X136990000Y-60790000D03*
%TD*%
D11*
%TO.C,U2*%
X159850000Y-129140000D03*
D12*
X162390000Y-129140000D03*
X164930000Y-129140000D03*
X167470000Y-129140000D03*
%TD*%
D11*
%TO.C,J1*%
X158460000Y-92430000D03*
D12*
X158460000Y-94970000D03*
X155920000Y-92430000D03*
X155920000Y-94970000D03*
X153380000Y-92430000D03*
X153380000Y-94970000D03*
%TD*%
D14*
%TO.C,J7*%
X82480000Y-76950000D03*
D15*
X82480000Y-81950000D03*
X82480000Y-86950000D03*
X82480000Y-91950000D03*
%TD*%
D11*
%TO.C,J6*%
X130220000Y-86120000D03*
D12*
X130220000Y-83580000D03*
X130220000Y-81040000D03*
X130220000Y-78500000D03*
X130220000Y-75960000D03*
X130220000Y-73420000D03*
%TD*%
D16*
%TO.C,J2*%
X124035000Y-127830000D03*
X131185000Y-127830000D03*
%TD*%
D11*
%TO.C,J4*%
X138770000Y-73950000D03*
D12*
X141310000Y-73950000D03*
X143850000Y-73950000D03*
X146390000Y-73950000D03*
X148930000Y-73950000D03*
%TD*%
D17*
%TO.C,J5*%
X138630000Y-56320000D03*
D18*
X143630000Y-56320000D03*
%TD*%
D17*
%TO.C,J3*%
X124200000Y-56280000D03*
D18*
X129200000Y-56280000D03*
%TD*%
M02*
