%TF.GenerationSoftware,KiCad,Pcbnew,8.0.4*%
%TF.CreationDate,2025-10-24T14:41:25-04:00*%
%TF.ProjectId,Board,426f6172-642e-46b6-9963-61645f706362,rev?*%
%TF.SameCoordinates,Original*%
%TF.FileFunction,Drillmap*%
%TF.FilePolarity,Positive*%
%FSLAX45Y45*%
G04 Gerber Fmt 4.5, Leading zero omitted, Abs format (unit mm)*
G04 Created by KiCad (PCBNEW 8.0.4) date 2025-10-24 14:41:25*
%MOMM*%
%LPD*%
G01*
G04 APERTURE LIST*
%ADD10C,0.200000*%
G04 APERTURE END LIST*
D10*
X7498500Y-4805000D02*
X17602500Y-4805000D01*
X17602500Y-13209000D01*
X7498500Y-13209000D01*
X7498500Y-4805000D01*
X7749277Y-13530484D02*
X7749277Y-13330484D01*
X7749277Y-13330484D02*
X7796896Y-13330484D01*
X7796896Y-13330484D02*
X7825467Y-13340008D01*
X7825467Y-13340008D02*
X7844515Y-13359055D01*
X7844515Y-13359055D02*
X7854039Y-13378103D01*
X7854039Y-13378103D02*
X7863562Y-13416198D01*
X7863562Y-13416198D02*
X7863562Y-13444769D01*
X7863562Y-13444769D02*
X7854039Y-13482865D01*
X7854039Y-13482865D02*
X7844515Y-13501912D01*
X7844515Y-13501912D02*
X7825467Y-13520960D01*
X7825467Y-13520960D02*
X7796896Y-13530484D01*
X7796896Y-13530484D02*
X7749277Y-13530484D01*
X7949277Y-13530484D02*
X7949277Y-13397150D01*
X7949277Y-13435246D02*
X7958801Y-13416198D01*
X7958801Y-13416198D02*
X7968324Y-13406674D01*
X7968324Y-13406674D02*
X7987372Y-13397150D01*
X7987372Y-13397150D02*
X8006420Y-13397150D01*
X8073086Y-13530484D02*
X8073086Y-13397150D01*
X8073086Y-13330484D02*
X8063562Y-13340008D01*
X8063562Y-13340008D02*
X8073086Y-13349531D01*
X8073086Y-13349531D02*
X8082610Y-13340008D01*
X8082610Y-13340008D02*
X8073086Y-13330484D01*
X8073086Y-13330484D02*
X8073086Y-13349531D01*
X8196896Y-13530484D02*
X8177848Y-13520960D01*
X8177848Y-13520960D02*
X8168324Y-13501912D01*
X8168324Y-13501912D02*
X8168324Y-13330484D01*
X8301658Y-13530484D02*
X8282610Y-13520960D01*
X8282610Y-13520960D02*
X8273086Y-13501912D01*
X8273086Y-13501912D02*
X8273086Y-13330484D01*
X8530229Y-13530484D02*
X8530229Y-13330484D01*
X8530229Y-13330484D02*
X8596896Y-13473341D01*
X8596896Y-13473341D02*
X8663563Y-13330484D01*
X8663563Y-13330484D02*
X8663563Y-13530484D01*
X8844515Y-13530484D02*
X8844515Y-13425722D01*
X8844515Y-13425722D02*
X8834991Y-13406674D01*
X8834991Y-13406674D02*
X8815944Y-13397150D01*
X8815944Y-13397150D02*
X8777848Y-13397150D01*
X8777848Y-13397150D02*
X8758801Y-13406674D01*
X8844515Y-13520960D02*
X8825467Y-13530484D01*
X8825467Y-13530484D02*
X8777848Y-13530484D01*
X8777848Y-13530484D02*
X8758801Y-13520960D01*
X8758801Y-13520960D02*
X8749277Y-13501912D01*
X8749277Y-13501912D02*
X8749277Y-13482865D01*
X8749277Y-13482865D02*
X8758801Y-13463817D01*
X8758801Y-13463817D02*
X8777848Y-13454293D01*
X8777848Y-13454293D02*
X8825467Y-13454293D01*
X8825467Y-13454293D02*
X8844515Y-13444769D01*
X8939753Y-13397150D02*
X8939753Y-13597150D01*
X8939753Y-13406674D02*
X8958801Y-13397150D01*
X8958801Y-13397150D02*
X8996896Y-13397150D01*
X8996896Y-13397150D02*
X9015944Y-13406674D01*
X9015944Y-13406674D02*
X9025467Y-13416198D01*
X9025467Y-13416198D02*
X9034991Y-13435246D01*
X9034991Y-13435246D02*
X9034991Y-13492388D01*
X9034991Y-13492388D02*
X9025467Y-13511436D01*
X9025467Y-13511436D02*
X9015944Y-13520960D01*
X9015944Y-13520960D02*
X8996896Y-13530484D01*
X8996896Y-13530484D02*
X8958801Y-13530484D01*
X8958801Y-13530484D02*
X8939753Y-13520960D01*
X9120705Y-13511436D02*
X9130229Y-13520960D01*
X9130229Y-13520960D02*
X9120705Y-13530484D01*
X9120705Y-13530484D02*
X9111182Y-13520960D01*
X9111182Y-13520960D02*
X9120705Y-13511436D01*
X9120705Y-13511436D02*
X9120705Y-13530484D01*
X9120705Y-13406674D02*
X9130229Y-13416198D01*
X9130229Y-13416198D02*
X9120705Y-13425722D01*
X9120705Y-13425722D02*
X9111182Y-13416198D01*
X9111182Y-13416198D02*
X9120705Y-13406674D01*
X9120705Y-13406674D02*
X9120705Y-13425722D01*
M02*
