M48
; DRILL file {KiCad 8.0.4} date 2025-10-24T14:35:34-0400
; FORMAT={-:-/ absolute / metric / decimal}
; #@! TF.CreationDate,2025-10-24T14:35:34-04:00
; #@! TF.GenerationSoftware,Kicad,Pcbnew,8.0.4
; #@! TF.FileFunction,Plated,1,2,PTH
FMAT,2
METRIC
; #@! TA.AperFunction,Plated,PTH,ViaDrill
T1C0.300
; #@! TA.AperFunction,Plated,PTH,ComponentDrill
T2C0.300
; #@! TA.AperFunction,Plated,PTH,ComponentDrill
T3C0.450
; #@! TA.AperFunction,Plated,PTH,ComponentDrill
T4C0.600
; #@! TA.AperFunction,Plated,PTH,ComponentDrill
T5C1.000
; #@! TA.AperFunction,Plated,PTH,ComponentDrill
T6C1.320
%
G90
G05
T1
X83.87Y-74.085
X94.51Y-108.23
X94.66Y-83.78
X100.19Y-107.61
X100.22Y-104.78
X100.24Y-77.99
X100.26Y-80.84
X100.43Y-53.86
X100.47Y-51.09
X101.94Y-79.49
X101.94Y-106.25
X102.06Y-52.38
X103.58Y-53.78
X103.58Y-107.62
X103.6Y-51.14
X103.61Y-77.97
X103.62Y-80.89
X103.68Y-104.74
X105.24Y-52.35
X105.25Y-106.19
X105.26Y-79.46
X106.63Y-80.82
X106.68Y-53.72
X106.68Y-107.62
X106.7Y-78.0
X106.76Y-104.76
X106.79Y-51.06
X109.58Y-92.36
X109.62Y-65.39
X109.785Y-119.245
X114.0Y-92.32
X114.07Y-119.09
X114.39Y-65.34
X115.08Y-92.31
X115.09Y-119.15
X115.4Y-65.33
X116.09Y-90.25
X116.095Y-120.945
X116.1Y-91.32
X116.1Y-92.32
X116.1Y-117.14
X116.11Y-118.15
X116.11Y-119.17
X116.27Y-94.08
X116.28Y-66.72
X116.38Y-63.3
X116.4Y-64.35
X116.4Y-65.36
X117.09Y-90.26
X117.1Y-91.28
X117.1Y-92.33
X117.11Y-118.16
X117.11Y-119.19
X117.13Y-117.14
X117.39Y-63.27
X117.4Y-64.35
X117.41Y-65.36
X118.32Y-96.88
X118.41Y-69.87
X120.64Y-119.25
X125.67Y-119.12
X131.55Y-67.11
X131.61Y-63.88
X132.59Y-86.32
X132.74Y-82.53
X133.82Y-100.64
X133.83Y-99.29
X134.411Y-103.451
X135.0Y-105.336
X135.03Y-89.89
X136.17Y-100.12
X136.185Y-91.445
X136.96Y-70.29
X136.99Y-66.76
X137.29Y-104.13
X137.56Y-79.92
X137.73Y-76.7
X139.73Y-76.71
X139.77Y-104.13
X140.4Y-81.74
X141.57Y-76.68
X142.05Y-81.89
X142.305Y-85.021
X142.935Y-89.67
X142.938Y-84.388
X143.48Y-86.48
X143.56Y-97.06
X143.63Y-77.99
X145.0Y-93.21
X145.07Y-81.51
X145.45Y-76.555
X146.088Y-102.887
X146.25Y-76.555
X146.25Y-77.805
X146.368Y-75.568
X146.39Y-82.93
X147.08Y-116.05
X147.23Y-89.24
X147.86Y-87.015
X148.05Y-93.135
X148.14Y-94.26
X148.48Y-82.85
X148.48Y-83.65
X148.48Y-84.45
X148.625Y-77.825
X148.745Y-103.1
X149.11Y-117.74
X149.15Y-79.96
X149.251Y-92.699
X149.375Y-104.6
X150.79Y-116.34
X150.99Y-100.91
X151.22Y-78.7
X151.28Y-90.58
X153.36Y-97.5
X153.51Y-90.64
X154.5Y-90.0
X154.664Y-94.23
X155.35Y-67.48
X155.36Y-64.11
X156.59Y-64.76
X156.59Y-66.82
X157.3Y-109.84
X157.73Y-67.43
X157.81Y-64.16
X162.61Y-65.76
X162.63Y-109.82
X164.78Y-74.96
X164.82Y-64.05
X164.86Y-69.48
X164.87Y-80.4
X164.89Y-85.87
X164.93Y-58.38
X164.96Y-91.37
X164.98Y-52.88
X165.01Y-102.38
X165.03Y-96.85
X165.05Y-107.98
X165.06Y-113.34
X168.35Y-64.04
X168.36Y-58.38
X168.37Y-69.51
X168.4Y-75.0
X168.41Y-80.39
X168.45Y-91.36
X168.46Y-85.84
X168.49Y-52.8
X168.49Y-96.85
X168.55Y-113.33
X168.56Y-102.4
X168.61Y-107.85
X172.11Y-107.01
X172.11Y-109.98
T2
X110.94Y-67.135
X110.94Y-68.485
X110.94Y-69.835
X110.94Y-94.15
X110.94Y-95.5
X110.94Y-96.85
X111.08Y-121.005
X111.08Y-122.355
X111.08Y-123.705
X112.84Y-67.135
X112.84Y-68.485
X112.84Y-69.835
X112.84Y-94.15
X112.84Y-95.5
X112.84Y-96.85
X112.98Y-121.005
X112.98Y-122.355
X112.98Y-123.705
T4
X136.99Y-60.79
T5
X130.22Y-73.42
X130.22Y-75.96
X130.22Y-78.5
X130.22Y-81.04
X130.22Y-83.58
X130.22Y-86.12
X132.99Y-114.88
X132.99Y-117.42
X138.77Y-73.95
X140.348Y-108.053
X140.348Y-110.593
X140.348Y-113.133
X140.348Y-115.673
X140.348Y-118.213
X140.348Y-120.753
X140.348Y-123.293
X140.348Y-125.833
X141.31Y-73.95
X143.85Y-73.95
X146.39Y-73.95
X148.93Y-73.95
X153.38Y-92.43
X153.38Y-94.97
X155.92Y-92.43
X155.92Y-94.97
X158.46Y-92.43
X158.46Y-94.97
X159.85Y-129.14
X162.39Y-129.14
X164.93Y-129.14
X167.47Y-129.14
T6
X82.48Y-76.95
X82.48Y-81.95
X82.48Y-86.95
X82.48Y-91.95
X124.2Y-56.28
X129.2Y-56.28
X138.63Y-56.32
X143.63Y-56.32
T3
X124.035Y-128.23G85X124.035Y-127.43
G05
X131.185Y-127.43G85X131.185Y-128.23
G05
M30
